<svg id="图层_1" data-name="图层 1" xmlns="http://www.w3.org/2000/svg" xmlns:xlink="http://www.w3.org/1999/xlink" viewBox="0 0 120 120"><defs><style>.cls-1{fill:none;}.cls-2{clip-path:url(#clip-path);}.cls-3{fill:#00d3aa;}.cls-4{fill:#25e1c1;}.cls-5{fill:#1cba9b;}.cls-6{fill:#00c49e;}.cls-7{fill:#fff;}.cls-8{fill:#e2e2e2;}</style><clipPath id="clip-path"><rect class="cls-1" x="8.32" y="9.75" width="103.36" height="100.51" rx="10.25" ry="10.25" transform="translate(120 120) rotate(180)"/></clipPath></defs><title>图标</title><g class="cls-2"><polygon class="cls-3" points="60 60 111.68 9.74 111.68 110.26 60 60"/><polygon class="cls-4" points="60 60 8.32 110.26 8.32 9.74 60 60"/><polygon class="cls-5" points="60 60 111.68 110.26 8.32 110.26 60 60"/><polygon class="cls-6" points="60 60.01 8.32 9.75 111.68 9.75 60 60.01"/></g><path class="cls-7" d="M21.08,43.35a5.33,5.33,0,0,0-5.33,5.33v9.38a7.18,7.18,0,0,1,0,14.36V81.8a5.32,5.32,0,0,0,5.33,5.33H32.81V43.35Z"/><path class="cls-7" d="M82,83a2.6,2.6,0,0,1-2.55-3.08,2.67,2.67,0,0,1,2.67-2.1h.72a2.47,2.47,0,0,0,2.46-2.47h0a2.46,2.46,0,0,0-2.46-2.46h-.72a2.68,2.68,0,0,1-2.67-2.11A2.59,2.59,0,0,1,82,67.71h.84a2.47,2.47,0,0,0,2.46-2.47h0a2.46,2.46,0,0,0-2.46-2.46H82a2.59,2.59,0,0,1-2.59-2.59h0A2.59,2.59,0,0,1,82,57.6h.84a2.47,2.47,0,0,0,2.46-2.47h0a2.46,2.46,0,0,0-2.46-2.46h-.72a2.68,2.68,0,0,1-2.67-2.11A2.59,2.59,0,0,1,82,47.49h1.23a2.07,2.07,0,0,0,2.07-2.07h0a2.07,2.07,0,0,0-2.07-2.07H36V87.13h47.2a2.07,2.07,0,0,0,2.07-2.07h0A2.07,2.07,0,0,0,83.22,83Z"/><path class="cls-8" d="M50.77,40.82V33.11H39a5.33,5.33,0,0,0-5.33,5.33v2.38Z"/><path class="cls-8" d="M100,37h1.23a2.06,2.06,0,0,0,2.07-2.06h0a2.06,2.06,0,0,0-2.07-2.07H54v8H89.37v3.86a2.07,2.07,0,0,1,0,4.14H88.14a2.59,2.59,0,0,0-2.55,3.07A2.68,2.68,0,0,0,88.26,54H89a2.47,2.47,0,0,1,0,4.93h-.84a2.59,2.59,0,0,0,0,5.18H89A2.46,2.46,0,1,1,89,69h-.84a2.6,2.6,0,0,0-2.55,3.08,2.68,2.68,0,0,0,2.67,2.11H89a2.46,2.46,0,0,1,2.46,2.43h9.74a2.07,2.07,0,0,0,0-4.14H100a2.6,2.6,0,0,1-2.55-3.07,2.68,2.68,0,0,1,2.68-2.11h.71a2.47,2.47,0,0,0,0-4.93h-.71a2.67,2.67,0,0,1-2.68-2.1A2.6,2.6,0,0,1,100,57.22h.84a2.47,2.47,0,0,0,0-4.93H100a2.59,2.59,0,0,1,0-5.18h.84a2.47,2.47,0,0,0,0-4.93h-.71a2.67,2.67,0,0,1-2.68-2.1A2.6,2.6,0,0,1,100,37Z"/><path class="cls-8" d="M85.74,40.49h5.17a0,0,0,0,1,0,0v4.18a0,0,0,0,1,0,0H88.73a3,3,0,0,1-3-3v-1.2A0,0,0,0,1,85.74,40.49Z"/></svg>