<svg id="图层_1" data-name="图层 1" xmlns="http://www.w3.org/2000/svg" viewBox="0 0 120 120"><defs><style>.cls-1{fill:#466bd6;}.cls-2{fill:#4d76ea;}.cls-3{fill:#547ffe;}.cls-4{fill:#4c73e8;}.cls-5{fill:#547fff;}.cls-6{fill:#628afc;}.cls-7{fill:#f0f0f0;}.cls-8{fill:#fdfffa;}</style></defs><title>图标</title><polygon class="cls-1" points="9.75 60.01 60 60.01 60 8.32 9.75 60.01"/><polygon class="cls-2" points="110.25 60.01 60 60.01 60 8.32 110.25 60.01"/><polygon class="cls-1" points="110.25 59.99 60 59.99 60 111.68 110.25 59.99"/><path class="cls-3" d="M60,8.32H19.75a10,10,0,0,0-10,10V60Z"/><path class="cls-4" d="M60,111.68h40.25a10,10,0,0,0,10-10V60Z"/><path class="cls-4" d="M60,111.68H19.75a10,10,0,0,1-10-10V60Z"/><path class="cls-5" d="M60,8.32h40.25a10,10,0,0,1,10,10V60Z"/><polygon class="cls-6" points="9.75 59.99 60 59.99 60 111.68 9.75 59.99"/><polygon class="cls-7" points="39.59 36.43 39.59 59.99 87.5 59.99 39.59 36.43"/><polygon class="cls-8" points="39.59 83.56 39.59 59.99 87.5 59.99 39.59 83.56"/><rect class="cls-8" x="19.62" y="8.34" width="7.5" height="4.43"/><rect class="cls-8" x="19.62" y="19.87" width="7.5" height="7.5"/><rect class="cls-8" x="19.62" y="34.47" width="7.5" height="7.5"/><rect class="cls-8" x="19.62" y="49.06" width="7.5" height="7.5"/><rect class="cls-8" x="19.62" y="63.66" width="7.5" height="7.5"/><rect class="cls-8" x="19.62" y="78.26" width="7.5" height="7.5"/><rect class="cls-8" x="19.62" y="92.86" width="7.5" height="7.5"/><rect class="cls-8" x="19.62" y="107.46" width="7.5" height="4.21"/><rect class="cls-8" x="93.5" y="8.34" width="7.5" height="4.43"/><rect class="cls-8" x="93.5" y="19.87" width="7.5" height="7.5"/><rect class="cls-8" x="93.5" y="34.47" width="7.5" height="7.5"/><rect class="cls-8" x="93.5" y="49.06" width="7.5" height="7.5"/><rect class="cls-8" x="93.5" y="63.66" width="7.5" height="7.5"/><rect class="cls-8" x="93.5" y="78.26" width="7.5" height="7.5"/><rect class="cls-8" x="93.5" y="92.86" width="7.5" height="7.5"/><rect class="cls-8" x="93.5" y="107.46" width="7.5" height="4.21"/></svg>