<svg id="图层_1" data-name="图层 1" xmlns="http://www.w3.org/2000/svg" xmlns:xlink="http://www.w3.org/1999/xlink" viewBox="0 0 120 120"><defs><style>.cls-1{fill:none;}.cls-2{clip-path:url(#clip-path);}.cls-3{fill:#ffd033;}.cls-4{fill:#eabe2f;}.cls-5{fill:#dbae31;}.cls-6{fill:#e2af3b;}.cls-7{fill:#ccc;}.cls-8{fill:#f7f7f7;}.cls-9{fill:#eaeaea;}.cls-10{fill:#efefef;}.cls-11{fill:#fdfffa;}</style><clipPath id="clip-path"><path class="cls-1" d="M110.25,60h0V18.32a10,10,0,0,0-10-10H19.74a10,10,0,0,0-10,10V60h0v41.67a10,10,0,0,0,10,10h80.51a10,10,0,0,0,10-10V60Z"/></clipPath></defs><title>图标</title><g class="cls-2"><path class="cls-3" d="M60.2,112.22l.16-119H9.61c-2.19,0-5,1-4,3.19Z"/><path class="cls-4" d="M60.2,112.22v-119l54.9-.09c2.18,0-.54,2.67-1.53,4.86Z"/><path class="cls-5" d="M115.1-6.9V111.85H64.34c-2.19,0-5.13,2.26-4.14.08Z"/><path class="cls-6" d="M5.08-6.8V111.91H55.84c2.19,0,5.34,2.18,4.36,0Z"/></g><polygon class="cls-7" points="32.62 49.16 20.33 60.59 39.84 73.03 32.62 49.16"/><polygon class="cls-7" points="87.38 49.16 99.67 60.59 80.16 73.03 87.38 49.16"/><path class="cls-8" d="M60.19,85.1V26.18H34.06a4.3,4.3,0,0,0-4.12,4.45V73.42L59.49,85.53l0-.13Z"/><path class="cls-9" d="M60.19,85.1V26.18H86.32a4.29,4.29,0,0,1,4.11,4.45V73.42L60.88,85.53l0-.13Z"/><path class="cls-10" d="M99.67,60.59,36.41,92.78H97a2.64,2.64,0,0,0,2.64-2.64Z"/><path class="cls-11" d="M20.33,60.59,83.59,92.78H22.46a2.13,2.13,0,0,1-2.13-2.13Z"/><path class="cls-3" d="M60.19,34.72a.6.6,0,0,0-.48.34l-4.44,8.82a.64.64,0,0,1-.47.34L45,45.56a.63.63,0,0,0-.36,1.07l7,6.95a.62.62,0,0,1,.18.55l-1.74,9.72a.63.63,0,0,0,.9.67L59.79,60a.61.61,0,0,1,.4,0Z"/><path class="cls-4" d="M60.19,34.72a.62.62,0,0,1,.48.34l4.43,8.82a.64.64,0,0,0,.48.34l9.77,1.34a.63.63,0,0,1,.36,1.07l-7,6.95a.62.62,0,0,0-.17.55l1.74,9.72a.63.63,0,0,1-.91.67L60.58,60a.58.58,0,0,0-.39,0Z"/></svg>