<svg id="图层_1" data-name="图层 1" xmlns="http://www.w3.org/2000/svg" xmlns:xlink="http://www.w3.org/1999/xlink" viewBox="0 0 120 120"><defs><style>.cls-1,.cls-8{fill:none;}.cls-2{clip-path:url(#clip-path);}.cls-3{fill:#f67732;}.cls-4{fill:#ed6c29;}.cls-5{fill:#da6321;}.cls-6{fill:#e86b28;}.cls-7{fill:#fff;}.cls-8{stroke:#fff;stroke-miterlimit:10;stroke-width:2.08px;}</style><clipPath id="clip-path"><path class="cls-1" d="M110.25,60h0V18.32a10,10,0,0,0-10-10H19.74a10,10,0,0,0-10,10V60h0v41.67a10,10,0,0,0,10,10h80.51a10,10,0,0,0,10-10V60Z"/></clipPath></defs><title>图标</title><g class="cls-2"><path class="cls-3" d="M60.2,112.22l.16-119H9.61c-2.19,0-5,1-4,3.19Z"/><path class="cls-4" d="M60.2,112.22v-119l54.9-.09c2.18,0-.54,2.67-1.53,4.86Z"/><path class="cls-5" d="M115.1-6.9V111.85H64.34c-2.19,0-5.13,2.26-4.14.08Z"/><path class="cls-6" d="M5.08-6.8V111.91H55.84c2.19,0,5.34,2.18,4.36,0Z"/></g><rect class="cls-7" x="15.42" y="35.24" width="18.13" height="3.67"/><rect class="cls-7" x="43.18" y="56.23" width="23.18" height="3.67" transform="translate(112.83 3.3) rotate(90)"/><rect class="cls-7" x="57.7" y="56.23" width="23.18" height="3.67" transform="translate(127.36 -11.22) rotate(90)"/><rect class="cls-7" x="72.22" y="56.23" width="23.18" height="3.67" transform="translate(141.88 -25.74) rotate(90)"/><rect class="cls-7" x="50.9" y="77.07" width="35.5" height="3.67"/><polygon class="cls-7" points="97.58 47.57 36.57 47.57 36.57 43.91 99.78 43.91 97.58 47.57"/><polygon class="cls-7" points="93.91 55.55 39.92 55.55 39.92 51.88 95.85 51.88 93.91 55.55"/><polygon class="cls-7" points="90.62 63.52 43.27 63.52 43.27 59.85 92.33 59.85 90.62 63.52"/><polygon class="cls-7" points="87.06 71.49 46.39 71.49 46.39 67.83 88.52 67.83 87.06 71.49"/><polygon class="cls-7" points="49.37 80.73 30.16 36.8 33.52 35.33 53.36 80.7 49.37 80.73"/><circle class="cls-8" cx="55.23" cy="83.9" r="2.86"/><circle class="cls-8" cx="80.59" cy="83.9" r="2.86"/></svg>