<svg id="图层_1" data-name="图层 1" xmlns="http://www.w3.org/2000/svg" viewBox="0 0 120 120"><defs><style>.cls-1{fill:#289dd6;}.cls-2{fill:#2caeea;}.cls-3{fill:#30bafe;}.cls-4{fill:#2baae8;}.cls-5{fill:#30baff;}.cls-6{fill:#3ebcfc;}.cls-7{fill:#ccc;}.cls-8{fill:#e5e5e5;}.cls-9{fill:#fdfffa;}.cls-10{fill:#757575;stroke:#757575;stroke-miterlimit:10;}</style></defs><title>图标</title><polygon class="cls-1" points="60.01 110.25 60.01 60 8.32 60 60.01 110.25"/><polygon class="cls-2" points="60.01 9.75 60.01 60 8.32 60 60.01 9.75"/><polygon class="cls-1" points="59.99 9.75 59.99 60 111.68 60 59.99 9.75"/><path class="cls-3" d="M8.32,60v40.25a10,10,0,0,0,10,10H60Z"/><path class="cls-4" d="M111.68,60V19.75a10,10,0,0,0-10-10H60Z"/><path class="cls-4" d="M111.68,60v40.25a10,10,0,0,1-10,10H60Z"/><path class="cls-5" d="M8.32,60V19.75a10,10,0,0,1,10-10H60Z"/><polygon class="cls-6" points="59.99 110.25 59.99 60 111.68 60 59.99 110.25"/><rect class="cls-7" x="26.77" y="33.6" width="56.31" height="35.17" rx="3.79" ry="3.79" transform="translate(-19.78 43.75) rotate(-37.3)"/><rect class="cls-8" x="29.29" y="39.66" width="64.31" height="40.17" rx="3.79" ry="3.79" transform="translate(-17.6 26.62) rotate(-21.46)"/><rect class="cls-9" x="21.53" y="52.18" width="76.93" height="40.17" rx="3.52" ry="3.52"/><rect class="cls-10" x="48.93" y="69.98" width="22.13" height="2.26"/><rect class="cls-10" x="50.8" y="78.05" width="18.4" height="2.26" transform="translate(139.18 19.18) rotate(90)"/><rect class="cls-10" x="48.93" y="78.01" width="22.13" height="2.26"/><polygon class="cls-10" points="50.55 56.15 58.84 72.23 60.85 71.2 53.09 56.15 50.55 56.15"/><polygon class="cls-10" points="69.45 56.15 61.16 72.23 59.15 71.2 66.91 56.15 69.45 56.15"/></svg>