<svg id="图层_1" data-name="图层 1" xmlns="http://www.w3.org/2000/svg" xmlns:xlink="http://www.w3.org/1999/xlink" viewBox="0 0 120 120"><defs><style>.cls-1,.cls-7{fill:none;}.cls-2{clip-path:url(#clip-path);}.cls-3{fill:#ed21ac;}.cls-4{fill:#fb4cbf;}.cls-5{fill:#d43da4;}.cls-6{fill:#e02dae;}.cls-7{stroke:#fff;stroke-miterlimit:10;stroke-width:4px;}.cls-8{fill:#fff;}</style><clipPath id="clip-path"><rect class="cls-1" x="8.32" y="9.75" width="103.36" height="100.51" rx="10.25" ry="10.25" transform="translate(120 120) rotate(180)"/></clipPath></defs><title>图标</title><g class="cls-2"><polygon class="cls-3" points="60 60 111.68 9.74 111.68 110.26 60 60"/><polygon class="cls-4" points="60 60 8.32 110.26 8.32 9.74 60 60"/><polygon class="cls-5" points="60 60 111.68 110.26 8.32 110.26 60 60"/><polygon class="cls-6" points="60 60.01 8.32 9.75 111.68 9.75 60 60.01"/></g><path class="cls-7" d="M53.69,28.51C57,32.56,59,39.31,56.46,41.39s-8.75-1.31-12-5.36-2.61-7.46-.05-9.54S50.4,24.45,53.69,28.51Z"/><path class="cls-7" d="M66.31,28.51C63,32.56,61,39.31,63.54,41.39s8.75-1.31,12-5.36,2.61-7.46,0-9.54S69.6,24.45,66.31,28.51Z"/><rect class="cls-8" x="26.24" y="44.71" width="33" height="20.22" rx="2.82" ry="2.82"/><rect class="cls-8" x="60.76" y="44.71" width="33" height="20.22" rx="2.82" ry="2.82"/><rect class="cls-8" x="30.76" y="66.39" width="28.48" height="28.48" rx="2.82" ry="2.82"/><rect class="cls-8" x="60.76" y="66.39" width="28.48" height="28.48" rx="2.82" ry="2.82"/></svg>