<svg id="图层_1" data-name="图层 1" xmlns="http://www.w3.org/2000/svg" viewBox="0 0 400 220.1"><defs><style>.cls-1{fill:#ff8a9d;}.cls-2,.cls-3,.cls-4,.cls-8{fill:none;stroke-linecap:round;stroke-linejoin:round;stroke-width:5px;}.cls-2{stroke:#ff31ff;}.cls-3{stroke:#00bdff;}.cls-4{stroke:#ffce00;}.cls-5{fill:#fff;}.cls-6{fill:#32f98f;}.cls-7{fill:#05c653;}.cls-8{stroke:#1e2e60;}.cls-9{fill:#fc245a;}.cls-10{font-size:38.07px;fill:#00b549;font-family:FZLTTHK--GBK1-0, Lantinghei SC;}</style></defs><title>图标</title><path class="cls-1" d="M32.49,115.41l.26-2.34a5.5,5.5,0,0,0,2.41-3,5.23,5.23,0,0,1,1.25-2,27.66,27.66,0,0,1,2.36-2.48c.21-.2.61-.18.95-.27l.14-2.06.23.19,2-2.27c.53-.6,1-1.22,1.6-1.81s1.39-1.46,2.1-2.19c.09-.09.22-.22.33-.22,1.31,0,1.86-.58,2-1.94.09-.62.9-1.16,1.42-1.69.38-.38.82-.69,1.18-1a17,17,0,0,0,3.66-1.66,15.8,15.8,0,0,0,2.46-3l-.3-.29L59,87.07c-.38,2.78.4,3.29,3.22,2.14V87.26L59,87.11A3.92,3.92,0,0,1,59.42,86c.65-.76,1.37-1.45,2.29-2.4l.59,0c.33,0,.66,0,.85-.3a6.08,6.08,0,0,1,1.38-.95c.69-.23,1.32-.23,1.67.79.12.37,1.19.42,1.54.53,1.53-1.47,2.19-3,1.73-4.77,1-.45,2.54.52,2.59-1.38,1-.14,2.14.55,2.68-.94.11-.31,1.14-.27,1.53-.35.39-.49.72-1.18,1-1.14,1.21.17,2.83-1.06,3.43,1a15.41,15.41,0,0,0,1.72-1.29c.1-.09-.13-.62-.3-.9a11.54,11.54,0,0,0-1-1.23h3.63l-.12-.46c.55-.24,1.1-.47,1.63-.72s1-.48,1.43-.72a6.43,6.43,0,0,1,1.26-.57c.82-.19,1.88.39,2.22-1.06.12-.49,1.92,0,2.26.54a3.75,3.75,0,0,0,.73.76,1.3,1.3,0,0,1-.08,2.07A20.89,20.89,0,0,0,92.25,74a.68.68,0,0,0,0,.66c.62.66,1.34,1.22,1.93,1.9.24.28.46.93.31,1.14a14.08,14.08,0,0,1-2.29,2.48c-.16.79-.8,1.82.83,2.2.6.14,1,1.19,1.45,1.86a1,1,0,0,1,0,.84c-.71.87-1.48,1.68-2.44,2.75.06.41-.71,1.43.89,1.84.66.17,1.1,1.33,1.57,2.08a.88.88,0,0,1-.1.83c-.63.7-1.36,1.31-2,2-.16.18-.25.7-.13.83.61.66,1.34,1.2,1.93,1.88a1.33,1.33,0,0,1,.26,1.17c-.39.74-.88,1.83-1.5,2-1.65.35-.8,1.45-.93,1.84,1,1.06,1.74,1.86,2.44,2.74a1,1,0,0,1-.06,1,23.75,23.75,0,0,0-2,2,6.56,6.56,0,0,0-.6,2l.5-.13c.73.84,1.51,1.65,2.19,2.53a1,1,0,0,1-.1,1c-.63.71-1.37,1.31-2,2-.15.16-.26.64-.15.75.55.58,1.25,1,1.75,1.63.32.38.66,1.1.51,1.44a5.72,5.72,0,0,1-1.54,2c-1,.79-1.07.7-.93,2a30,30,0,0,1,2.4,2.25,1.26,1.26,0,0,1,0,1.22c-.56.73-1.37,1.26-1.91,2a6.65,6.65,0,0,0-.7,1.73,32.45,32.45,0,0,1,2.57,2.38,1.29,1.29,0,0,1,0,1.22,27.55,27.55,0,0,1-1.88,2c-.18.2-.4.65-.32.75a10.05,10.05,0,0,0,1.58,1.68c1,.79.78,1.25.13,2.22s-2.24,1.23-2,2.76c.06.36.44.69.72,1a18.05,18.05,0,0,1,1.8,2,1.46,1.46,0,0,1-.27,1.3c-.61.67-1.52,1.08-2,1.81a2.19,2.19,0,0,0,0,2c.47.72,1.45,1.07,2,1.76a1.79,1.79,0,0,1,0,1.68,16.52,16.52,0,0,1-2.12,2.23c.75.77,1.53,1.47,2.18,2.27a1.32,1.32,0,0,1,.16,1.22,19.55,19.55,0,0,1-1.68,2c-.31.37-.8.78-.81,1.18s.47.83.77,1.22a27.1,27.1,0,0,1,1.74,2.14,1.18,1.18,0,0,1-.12,1.09c-.6.67-1.34,1.2-2,1.84-.16.16-.28.61-.18.73.5.61,1.13,1.11,1.6,1.73a2.36,2.36,0,0,1,.62,1.5c-.07.33-.85.72-1.32.73-3.76.06-7.51.05-11.27.05H14.36c-.23,0-.46,0-.87-.09.4-1.31-.72-2.84,1-3.78.11-.06.09-.68-.07-.87-.7-.86-1.42-4.13-.7-4.55,1.92-1.14.87-2.81,1-4.24s0-2.81.08-4.23c0-.75-.43-1.72.88-1.89.11,0,.19-.6.2-.92,0-.88,0-1.75,0-2.63,0-.29,0-.79.09-.83,2.08-.78.73-2.57,1.13-3.83a17.08,17.08,0,0,1,.71-1.65l.53.12c0-.82,0-1.64,0-2.46s.37-1,1.05-.8a13.47,13.47,0,0,0,.09,1.56.9.9,0,0,0,.47.56c.14.05.54-.15.55-.26a5,5,0,0,0-.05-1.68c0-.13-.72-.1-1.11-.14,0-.92,0-1.85.13-2.76a5.3,5.3,0,0,1,.6-1.37l.51.11V135l.47.12c.27-.67.52-1.35.83-2a4,4,0,0,1,.9-1.22c.52-.77-.44-2.34,1.33-2.23.58-.87-.77-2.55,1.32-2.41v-2.14c2.28-.9,2.83-2.62,2.32-4.73,1.41-1,2.76-1.8,2.47-3.45a10.79,10.79,0,0,1,1.27-1.43c.24-.18.66-.12,1-.17.2,1.81,1.44.92,2.32,1C34.94,114.89,34.41,114.69,32.49,115.41ZM85.28,80.26l-.36,0c0,.85-.54,2,1,2.13.13,0,.16.54.34.71a2.38,2.38,0,0,0,1.09.63,1.55,1.55,0,0,0,1.09-.39,10.62,10.62,0,0,0,1.1-1.45l.23.15V80l-.36.17A10.45,10.45,0,0,0,88.54,79a1.67,1.67,0,0,0-1-.56,2.09,2.09,0,0,0-1.21.5A8.94,8.94,0,0,0,85.28,80.26ZM90,87.47l-.44.1a11.89,11.89,0,0,0-1.06-1.27,1.65,1.65,0,0,0-1-.52,2.08,2.08,0,0,0-1.19.53,9.65,9.65,0,0,0-1.1,1.27c-1.35,1.78.77,2.4,1.48,3.2,1.29,1.45,1.72-1,2.76-1.36C89.83,89.3,89.85,88.15,90,87.47Zm-.19,20.93c-.52-.49-.88-.84-1.27-1.16s-.72-.79-1.06-.76-.85.46-1.24.77c-.16.13-.2.55-.33.57-1.65.21-1,1.36-.8,2.14a4.63,4.63,0,0,1,1.17,1.26,1.53,1.53,0,0,0,2.21,0c.32-.5.72-1,1.08-1.42l.24.15Zm-.28-5.82c1.33-1.74-.7-2.48-1.41-3.23-1.33-1.4-1.71,1.31-3,1.44-.19,0-.27,1.23-.41,1.9l.41-.12a10.46,10.46,0,0,0,1.13,1.26,2.2,2.2,0,0,0,1.18.54,1.64,1.64,0,0,0,1-.51A11.76,11.76,0,0,0,89.56,102.58Zm.78,61.26c-.57-.56-.92-.87-1.24-1.21a7.48,7.48,0,0,0-.54-.69c-.32-.25-.7-.61-1-.6a2.58,2.58,0,0,0-1.23.58,3,3,0,0,0-.54.71c-.29.39-.81.77-.82,1.16s.47.82.75,1.22a2.82,2.82,0,0,0,.6.68c.4.29.84.7,1.27.71s.7-.49,1-.78.33-.39.51-.57C89.42,164.71,89.77,164.39,90.34,163.84Zm0-20.69c-.58-.54-.93-.85-1.27-1.18-.18-.18-.3-.42-.49-.58-.34-.3-.71-.78-1-.77s-.86.44-1.26.73a2.8,2.8,0,0,0-.61.67c-.28.4-.71.81-.73,1.24s.43.75.7,1.11a3.41,3.41,0,0,0,.64.62c.4.27.83.67,1.27.68s.7-.46,1-.74a6.75,6.75,0,0,0,.53-.54C89.45,144.06,89.78,143.72,90.34,143.15Zm-13.6-12.79c.66-1.35-.88-2.27-1.7-2.94-1.35-1.12-1.86,1.11-3,1.47a2.58,2.58,0,0,0-.09,1.69c1.12.46,1.62,2.48,3.18,1.32Zm0-7.3c.66-1.35-.88-2.27-1.7-3-1.35-1.11-1.86,1.11-3,1.47a2.59,2.59,0,0,0-.09,1.69c1.12.47,1.62,2.49,3.18,1.32Zm13.63,27.4-1.21-1.16c-.19-.18-.37-.35-.57-.52-.36-.31-.73-.84-1.11-.84s-.83.46-1.22.76a3.18,3.18,0,0,0-.64.63c-.27.36-.72.77-.69,1.13s.47.82.75,1.22a2.53,2.53,0,0,0,.6.66,3.19,3.19,0,0,0,1.3.65c.32,0,.68-.4,1-.67s.28-.42.46-.6C89.38,151.36,89.76,151,90.37,150.46Zm-.85-19.8c1.16-1.81-.64-2.57-1.45-3.33-1.28-1.19-1.72,1.08-2.79,1.42-.34.11-.36,1.29-.52,2l.45-.1c.37.42.68,1.09,1.14,1.22a4,4,0,0,0,2.17,0C88.93,131.68,89.19,131.06,89.52,130.66ZM75.17,104.21c.27-.5.46-1.19.7-1.21a.87.87,0,0,0,.78-1.33,6.46,6.46,0,0,0-1.74-2.36,1.12,1.12,0,0,0-1.78.71c-.06.24-.44.4-.63.63a2.84,2.84,0,0,0-.61.92c-.26,1,.87,1.17,1,1.57C73.37,104.49,74.23,104.22,75.17,104.21Zm.09,43.92c-1.88-1-2.45.9-3.2,1.65-1.21,1.21.83,1.78,1.23,2.74.18.4,1.26.4,1.83.56.62-1,1.47-1.81,1.47-2.59S75.73,148.91,75.26,148.13Zm-.05-7.36c-1.79-.9-2.46.92-3.19,1.76-1.11,1.25,1,1.74,1.31,2.76.12.35,1.27.32,1.83.44.61-1,1.45-1.84,1.43-2.62S75.7,141.55,75.21,140.77ZM77,88.05A11,11,0,0,0,74.44,86c-.88-.36-2.59,1.45-2.57,2.42a3.57,3.57,0,0,0,2.5,2.52C75.14,91,76.69,89.25,77,88.05Zm-2.1-9.47c-1.43-1-2.07,1-2.79,1.71-1.26,1.17.73,1.88,1.2,2.82.23.44,1.24.46,1.9.67.23-.68.32-1.38.5-1.41,1.57-.25.87-1.38.93-1.9Zm9.88,44.68c1.11.72,1.88,1.62,2.64,1.61s1.6-.9,2.33-1.36c1.07-1.91-.8-2.68-1.58-3.45-1.28-1.26-1.77,1-2.79,1.36C85,121.56,84.92,122.68,84.75,123.26Zm-9.44-16.52c-1.88-1.12-2.51.86-3.27,1.61-1.15,1.15.66,1.85,1.22,2.65.32.46,1.25.48,1.58.59l1.61-1.73C77.86,108.17,75.09,108,75.31,106.74Zm0,54.81c-1.85-1-2.53.79-3.26,1.56-1.17,1.24.81,1.82,1.24,2.76.19.43,1.24.45,1.78.62.65-1.05,1.5-1.82,1.52-2.62S75.76,162.3,75.31,161.55Zm-7.25-8.74c.24-.41.42-1.06.7-1.1a.92.92,0,0,0,.71-1.41A12.57,12.57,0,0,0,67.74,148c-.08-.1-.37,0-.55,0-1.17-.32-1,1.14-1.65,1.35a1.09,1.09,0,0,0-.61,1.71C65.87,151.78,66.25,153.65,68.06,152.81ZM68,161.75c-1.67-1.13-2,.87-3,1.39-.19.09-.1,1.11.1,1.6A2.82,2.82,0,0,0,66.18,166c.44.26,1.25.51,1.54.28a6.82,6.82,0,0,0,1.74-2.1c.18-.31-.07-1-.32-1.4A5.54,5.54,0,0,0,68,161.75Zm.16-20.87c-1.89-1-2.42.86-3.13,1.62-1.08,1.16.74,1.8,1.19,2.69.2.42,1.25.39,1.77.52.63-1,1.48-1.77,1.45-2.49S68.57,141.63,68.13,140.88Zm1.32-10.45c.13-1.11-1-3.07-2-3.1A3,3,0,0,0,64.83,130a2.74,2.74,0,0,0,3,2.17Zm-.21-7.11c1.21-1.72-1.16-1.94-1.12-3.21-1.84-.11-3.35,1.06-3.29,2.51,0,1.26,1.65,2.33,3,2.21ZM68,107.08l.09-.39c-1.72-.69-2.38.91-3.12,1.77s1.1,3.14,2.48,3a1.33,1.33,0,0,0,.81-.38,12.93,12.93,0,0,0,.93-1.24l.37.14a6.23,6.23,0,0,0-.28-1.92C69.05,107.64,68.43,107.4,68,107.08Zm0-20.76c-1.48-1.09-2.23.52-2.92,1.27-1,1.11.5,1.92,1.11,2.68.38.46,1.23.53,1.57.65l1.82-2.07a4.07,4.07,0,0,0-.29-1.52C69,86.88,68.39,86.65,67.94,86.32Zm1.53,15.9c.09-.91.08-.89-.87-1.64-.16-.12-.15-.45-.31-.59a2.93,2.93,0,0,0-1-.69c-1.18-.41-1.18,1-1.81,1.39-.36.24-.76,1-.63,1.28a6.35,6.35,0,0,0,1.64,2.09c.33.26,1.07,0,1.62,0,0,0,.07-.16.12-.23Zm-15,22.63c.81-.79,1.48-1.18,1.78-1.77.68-1.38-.85-1.85-1.37-2.69-.69-1.09-3.85,1.59-3,2.66C52.59,123.86,53.22,125.31,54.49,124.85ZM54.91,104l-.6-.61,1.32-1.34.59.6c.15-1.35-.92-3.14-1.9-3.2a3,3,0,0,0-2.5,2.44C51.88,103,53.46,104.13,54.91,104Zm.42,5,.89.91c.15-1.35-.91-3.15-1.89-3.21a3,3,0,0,0-2.51,2.44c0,1.14,1.64,2.24,3.08,2.12l-.88-.9Zm-.47,23c.24-.35.48-.71.71-1.08s.79-.91.69-1.2a7.94,7.94,0,0,0-1.13-1.65,1.3,1.3,0,0,0-2.06-.16,3.81,3.81,0,0,0-.69.83c-.23.55-.61,1.54-.44,1.67C52.83,131.11,53.32,132.67,54.86,132Zm-.25,16.15c-1.11,0-2.78,1.18-2.78,2.28s1.68,2.44,2.75,2.35c.58-.56,1.16-.88,1.32-1.35a3.32,3.32,0,0,0,0-1.95C55.72,149,55.15,148.72,54.61,148.17Zm0,13.35c-1.07-.08-2.76,1.19-2.75,2.35s1.67,2.34,2.72,2.29c.65-.59,1.29-.9,1.45-1.39a2.93,2.93,0,0,0-.1-1.89C55.72,162.41,55.16,162.09,54.58,161.52Zm0-20.67c-1.19,0-2.76,1.31-2.7,2.41s1.75,2.3,2.76,2.25c.6-.58,1.21-.91,1.4-1.42a2.9,2.9,0,0,0-.08-1.88C55.74,141.75,55.17,141.45,54.53,140.85ZM87.44,97.49l2.3-2.35a.17.17,0,0,0,0-.14,9.49,9.49,0,0,0-2-1.89,1,1,0,0,0-1.53.91c0,.17-.15.43-.27.46-1.48.42-1.33.79,0,1.19.13,0,.17.32.28.46C86.59,96.54,86.94,96.93,87.44,97.49Zm-38,25.06a11.8,11.8,0,0,0-2-2.18c-.54-.35-2,1.25-2,2.07,0,.65,1.58,2.53,2,2.25A15.27,15.27,0,0,0,49.48,122.55Zm.05,7.25c-.85-.87-1.39-1.75-2.17-2.12s-1.94,1.25-1.94,2.13c0,.59,1.54,2.42,1.91,2.18A15.53,15.53,0,0,0,49.53,129.8Zm37.86-11.7,2.36-2.3a26.1,26.1,0,0,0-2.17-2c-.29-.22-2.65,1.77-2.47,2A30.13,30.13,0,0,0,87.39,118.1Zm-37.89-9a11.13,11.13,0,0,0-2.13-2.12c-.56-.3-2,1.37-1.95,2.17,0,.56,1.6,2.4,1.93,2.16A16.9,16.9,0,0,0,49.5,109.05Zm-.06-7.27a11.53,11.53,0,0,0-2-2.16c-.54-.34-2,1.29-2,2.12s1.61,2.52,2,2.22A15,15,0,0,0,49.44,101.78Zm38.05-25c.88-1,1.6-1.71,2.23-2.52.16-.19-1.84-1.84-2.24-1.84s-2.59,1.65-2.38,1.9C85.77,75.18,86.55,75.88,87.49,76.83ZM85,170.68c.42.27,1.08.46,1.13.75.16,1.2,1,1.39,1.74,1a7.2,7.2,0,0,0,1.84-1.92,2.2,2.2,0,0,0-.47-.55c-.17-.14-.56-.18-.58-.3-.17-1.75-1.34-1-1.87-1Zm1.83-32.33c1,.11,1,.1,1.82-1,.12-.16.42-.17.59-.31s.44-.36.47-.57-2-2-2.38-1.95a2,2,0,0,0-1,.42,13.75,13.75,0,0,0-1.19,1.63ZM75.38,114.06c-2.11-1-2.18,1.14-3.19,1.7l1.42,1.79h1.27c.68-.62,1.47-1,1.49-1.44s-.59-1.09-.91-1.65A1.14,1.14,0,0,1,75.38,114.06ZM47.44,141a2.88,2.88,0,0,1-.67.45c-1,.34-1.71,1-1.28,2a7.34,7.34,0,0,0,1.73,2,.54.54,0,0,0,.52-.05A6.81,6.81,0,0,0,49,143.71a1.84,1.84,0,0,0-.26-1.42A7.39,7.39,0,0,0,47.44,141Zm-.06,7.31a2.64,2.64,0,0,1-.59.42c-.89.36-1.74.92-1.31,2a7.18,7.18,0,0,0,1.71,2c.09.09.49,0,.62-.11a4.53,4.53,0,0,0,1.13-1.43,2.1,2.1,0,0,0-.15-1.57C48.54,149.14,48,148.84,47.38,148.31Zm2,15.61a17.64,17.64,0,0,0-2.05-2.34c-.32-.25-1.93,1.61-1.95,2.2,0,.84,1.33,2.47,1.95,2.16S48.65,164.71,49.42,163.92Zm35.78-6.58c.24.17.92.41,1,.74a1.13,1.13,0,0,0,1.74,1c.74-.37,1.23-1.24,1.83-1.9a.15.15,0,0,0,0-.14,7.93,7.93,0,0,0-1.63-1.77,1.88,1.88,0,0,0-1.67.29A6.75,6.75,0,0,0,85.2,157.34Zm-4.42-4.23c.36-.59.56-1.26.83-1.3,1.67-.21,1-1.36,1-2l-2-1.72c-.6.79-1.62,1.55-1.61,2.29S80.05,152,80.78,153.11Zm.19,13c.16-.25.35-.9.63-1,1.59-.26,1.09-1.34,1.05-2l-1.83-1.54c-.49.39-1.16.66-1.36,1.14a3.16,3.16,0,0,0-.1,2.12C79.56,165.37,80.33,165.64,81,166.11ZM80.87,141c-.56.41-1.31.68-1.53,1.2a2.79,2.79,0,0,0,0,2c.23.5,1,.77,1.52,1.17l1.78-1.52V142.5Zm1.53-17.61c1.17-2-1-2.08-1.75-3.6,0,1.67-2.17,1.29-1.64,2.78a9.53,9.53,0,0,0,1.68,2.3Zm.26,7.13V129l-2-1.49c-.2.31-.35.84-.59.89-1.51.31-1.13,1.36-1.06,2.09L80.83,132ZM75.18,169c-1.81-1.13-2,.84-2.94,1.57.91.78,1.24,2.6,2.67,1.9l1.53-1.91Zm-.12-34.32c-.84-.13-.84-.13-2.71,1.71l1.17,1.92H75l1.34-1.85Zm-1.48,20.64-1.18,1.83L73.54,159H75l1.33-1.85L75,155.32Zm6.84-56.09c.51,1.71-1.64,1-1.53,2.58s1.87,1,1.81,2.21l1.94-1.49v-1.42Zm.2,7.55a2.7,2.7,0,0,1-.41.87c-.22.2-.83.2-.85.35a4.46,4.46,0,0,0,0,2.15c.21.47,1,.7,1.54,1.06l1.77-1.42v-1.44Zm.23-20.59L79,87.73c-1,1.71,1.45,1.73,1.72,2.9l1.94-1.52V87.72ZM79,80.54c-1,1.63,1.53,1.57,1.68,2.86l2-1.61V80.36l-1.87-1.48Zm-3.87,13c-1.72-1.15-1.87,1-3.09,1.55,1.2.64,1.42,2.69,3.19,1.6.29-.42.73-.73,1-1.15a1,1,0,0,0,0-.87A8.46,8.46,0,0,0,75.1,93.51Zm-7.24,61.73c-.44.11-1.53.12-1.64.45a14.73,14.73,0,0,0-.3,3.27h2l1.21-1.76Zm0-41.29c-2.19-.11-2.66.86-1.46,3.56h1.51l1.39-1.69Zm.06,20.76c-2.26-.17-2.69.7-1.53,3.55h1.53l1.27-1.8Zm1.2,35.89L68,168.78H66.28c-1,3-.53,3.82,1.65,3.49ZM67.82,96.83l1.4-1.73-1.33-1.77c-1.61-.1-2.11.26-2.18,1.67S66.35,96.91,67.82,96.83Zm-5.66,34.3.36-.48c-.25-.66-.37-1.74-.79-1.88a4.56,4.56,0,0,0-2.6.16,3.11,3.11,0,0,0-.1,1.65A25,25,0,0,0,62.16,131.13Zm.11-22.93c-2.94-.92-3.67-.49-3.16,2h3.16Zm-3.16,15.43h3.12c0-.47.1-.8.1-1.13s-.06-.65-.09-1C59.4,120.63,58.6,121.12,59.11,123.63Zm0-20.75h3.13V100.8C59.17,100.08,58.62,100.42,59.1,102.88Zm3.17,59.56a24.43,24.43,0,0,0-3.19.69,1.91,1.91,0,0,0,.05,1.53,2.47,2.47,0,0,0,3.14,0Zm0-20.1c-1.22-.66-2.33-.76-3.24.13a1.49,1.49,0,0,0,.05,1.46,2.63,2.63,0,0,0,3.19.13Zm0,7.3c-1.2-.65-2.31-.76-3.23.12a1.54,1.54,0,0,0,.05,1.47c.93.88,2,.7,3.18.14Zm-7,5.94-.51-.38c-.58.32-1.52.51-1.67,1a4,4,0,0,0,.21,2.42c.09.24,1.48.27,1.49.22C55,157.75,55.14,156.66,55.28,155.58Zm-.17,13c-.82.22-1.84.24-1.94.57a4.67,4.67,0,0,0,0,2.62c.09.31,1.11.34,1.94.56Zm0-75.49c-.85.31-1.83.38-2,.77a3.65,3.65,0,0,0,0,2.46c.14.36,1.16.35,1.95.55Zm0,41.54c-.83.22-1.85.25-1.94.57a4.67,4.67,0,0,0,0,2.62c.1.32,1.12.35,1.94.57Zm0-20.87c-.93.35-1.87.43-2,.8a3.8,3.8,0,0,0,0,2.47c.14.37,1.16.37,2,.59Zm-22.68,9.75.42.4c.73-.19,1.67-.17,2.11-.64a2.11,2.11,0,0,0-.19-2,1.79,1.79,0,0,0-1.77-.09A6.43,6.43,0,0,0,32.45,123.54Zm.26,7.54c.9-.32,2.27.89,2.42-1.05.08-.91.07-1.79-1.27-1.67S32.41,128.6,32.71,131.08Zm-.27,20.39.38.43c.73-.15,1.67-.09,2.12-.54a2.09,2.09,0,0,0-.14-2A1.78,1.78,0,0,0,33,149.3,5.56,5.56,0,0,0,32.44,151.47Zm.2,13.89c.94-.23,1.83-.21,2.31-.65a1.93,1.93,0,0,0-.05-1.84,5.79,5.79,0,0,0-2.26-.39Zm-.19-21.13.38.41A5.44,5.44,0,0,0,35,144a1.92,1.92,0,0,0-.15-1.84c-.32-.35-1.55-.42-1.76-.14A6.27,6.27,0,0,0,32.45,144.23Zm48.23-30c-.92,1.6-.92,1.82.06,3.21a16.49,16.49,0,0,0,1.65-1.19.85.85,0,0,0,0-.84A15.89,15.89,0,0,0,80.68,114.19ZM25.53,162.41v2.73c.78-.08,1.65.07,2.14-.31a1.88,1.88,0,0,0,.06-1.83C27.32,162.57,26.44,162.62,25.53,162.41ZM80.74,93.52a12.33,12.33,0,0,0-1.17,1.12.87.87,0,0,0-.1.8,11.74,11.74,0,0,0,1.27,1.17,11.74,11.74,0,0,0,1.57-1.09.91.91,0,0,0,0-.89A11.34,11.34,0,0,0,80.74,93.52ZM25.53,144.58c.89-.18,1.77-.11,2.19-.53a1.86,1.86,0,0,0,0-1.83c-.47-.39-1.35-.26-2.15-.36ZM27.77,131c.28-2.69.09-2.88-2.22-2.29V131Zm-2.24,20.93c.91-.2,1.79-.15,2.2-.58a1.86,1.86,0,0,0-.06-1.83c-.49-.38-1.36-.23-2.14-.32Zm55.23-17,.68.61-2.09.93,1.39,1.68c.59-.46,1.18-.87,1.71-1.36a.79.79,0,0,0-.09-.72A17.86,17.86,0,0,0,80.76,134.94Zm0,37.15c.61-.42,1.17-.76,1.68-1.17.13-.1.2-.55.11-.62-.6-.52-1.25-1-1.79-1.4l-1.38,1.7Zm1.82-14.93-1.76-1.65-1.42,1.63,1.42,1.7ZM48.41,136.48l-1.06-1.55-1.67,1.47,1.71,1.78Zm0,34.16-.87-1.79-1.81,1.67,1.71,1.58Zm0-54.82-1-1.64-1.7,1.63,1.68,1.62Zm0,41.26-1-1.44-1.68,1.5,1.76,1.55Zm-14.31,1.11.89-1c-.32-.25-.68-.73-1-.69a4.7,4.7,0,0,0-1.36.75ZM34,169.43l-1.36,1.17c.43.24.85.66,1.28.68s.7-.48,1-.74Zm-.23-31.85L35,136.46c-.31-.26-.65-.76-.92-.72a4.87,4.87,0,0,0-1.4.71ZM39.51,124c.76-.32,1.4-.43,1.43-.63a6.19,6.19,0,0,0-.15-2c0-.09-.73-.14-.74-.1C39.86,122,39.73,122.76,39.51,124Zm.12,6.92c1.2.38,1.55-.08,1.39-1-.09-.48-.49-1.33-.61-1.3C38.94,128.86,40,130,39.63,130.87Zm-13,6.64,1.11-1c-.28-.22-.58-.66-.84-.63a5.07,5.07,0,0,0-1.4.58Zm14.73,5.67-1-1.24c-.24.43-.64.84-.67,1.27s.37.81.58,1.21ZM26.76,169.59l-1.22.94a4.09,4.09,0,0,0,1.32.66c.28,0,.61-.44.92-.69Zm12.56-19.1,1,1.24c.24-.42.65-.83.68-1.27s-.38-.81-.59-1.21Zm0,13.35,1.08,1.24c.22-.41.62-.82.59-1.22s-.44-.84-.69-1.26ZM21,150.6l-.85-1.18c-.2.35-.56.7-.57,1.06s.31.76.49,1.14Zm6.5,5.32-1.9,1.26a3.54,3.54,0,0,0,1.24.57,1.21,1.21,0,0,0,.94-.62C27.84,156.8,27.57,156.34,27.45,155.92Zm14-46.83-1.11-1.23c-.21.4-.61.81-.58,1.18s.43.83.67,1.24ZM19.21,163.84l.83,1.07c.2-.39.55-.78.56-1.18s-.38-.68-.59-1Z"/><path class="cls-1" d="M95.71,162.44a25.64,25.64,0,0,1,.06-3.73c.08-.58,1-1.05,1-1.61s-1-.93-1-1.46a30.45,30.45,0,0,1,0-4,25.8,25.8,0,0,1,3.76.05c.56.09,1,1.1,1.56,1.11s1-1,1.57-1.08a26.34,26.34,0,0,1,3.81-.06,28.59,28.59,0,0,1,0,3.95c-.08.57-1,1-1.06,1.59s.83.9,1.07,1.45a4.52,4.52,0,0,1,.26,1.84,17.76,17.76,0,0,1-.35,2.12c-1.19,0-2.43.06-3.66,0-.37,0-.68-.59-1.06-.79s-.88-.19-.92-.1c-.72,1.68-2.16,1.1-3.38,1.13A6.49,6.49,0,0,1,95.71,162.44Zm7.25-5.27a2.3,2.3,0,0,0-.25-.42c-.41-.43-.82-.86-1.26-1.26-.12-.11-.43-.2-.5-.13-.57.57-1.12,1.18-1.64,1.8,0,0,.22.36.38.49a6.84,6.84,0,0,0,2.85,0A3.37,3.37,0,0,0,103,157.17Z"/><path class="cls-1" d="M95.65,100.59V96.06l1.27-.93L95.65,94V89.51a21.2,21.2,0,0,1,3.69.06c.67.12,1.22,1.14,1.84,1.15s.59-1.37,1.69-1.24a32.36,32.36,0,0,0,3.58,0v4.66l-1.24.78a3.55,3.55,0,0,1,.9.76,3,3,0,0,1,.41,1.32c0,1.1,0,2.2,0,3.54a32.51,32.51,0,0,1-4.11,0c-.52-.07-.92-1-1.43-1.11s-.79,1-1.25,1.12A31.89,31.89,0,0,1,95.65,100.59ZM103,95.07c-.1-.19-.15-.41-.22-.42-.71-.1-1.24-.37-1.27-1.2a22.51,22.51,0,0,0-2,1.2c-.14.1,0,.57,0,.86,0,0,.19,0,.25.11.42.4.81,1.12,1.24,1.13s.82-.71,1.25-1.09c.1-.08.32,0,.41-.07A3.25,3.25,0,0,0,103,95.07Z"/><path class="cls-1" d="M106.44,68.9a25.18,25.18,0,0,1-.06,3.84c-.1.6-1.06,1.1-1.09,1.67s.85,1,1.1,1.57a4.44,4.44,0,0,1,.24,1.86,16.07,16.07,0,0,1-.35,2.08,23.54,23.54,0,0,0-3.46,0c-1.1.15-1.1-1.24-1.72-1.2s-1.1,1-1.72,1.11a23.54,23.54,0,0,1-3.69,0c0-1.4-.07-2.64,0-3.85,0-.42.6-.76.82-1.19a2.08,2.08,0,0,0,.15-1c-1.85-.6-1.08-2.16-1.18-3.36a6.3,6.3,0,0,1,.4-1.65,24.94,24.94,0,0,1,3.66.06c.54.07,1,1.06,1.49,1.07s1-1,1.52-1.05A26.85,26.85,0,0,1,106.44,68.9Zm-3.37,5.76c-.19-.48-.23-.72-.29-.73a1.47,1.47,0,0,1-1.4-1.28c-.65.42-1.32.8-1.93,1.27-.14.11-.1.52-.08.78,0,.08.24.12.34.21.46.43.91,1.22,1.37,1.23s.9-.8,1.38-1.2A1.87,1.87,0,0,1,103.07,74.66Z"/><path class="cls-1" d="M106.42,142c-1.39,0-2.6.07-3.8,0-.37,0-.67-.6-1.06-.84a1.85,1.85,0,0,0-.85-.2c-.71,2-2.32,1.13-3.61,1.22a4.85,4.85,0,0,1-1.37-.34v-4c0-.05,0-.11,0-.14.39-.43,1.11-.87,1.1-1.28s-1-.83-1.06-1.32a37.49,37.49,0,0,1-.23-4.13c1.49,0,2.67-.07,3.84,0,.42,0,.79.55,1.21.8a2.35,2.35,0,0,0,.76.26c.83-1.93,2.48-.93,3.79-1.11a6.08,6.08,0,0,1,1.3.17,23.85,23.85,0,0,1-.06,3.69c-.09.58-1.08,1.06-1.09,1.6s1,1,1.06,1.56A29,29,0,0,1,106.42,142Zm-5.35-3.66,1.84-1.87c-.61-.6-1.22-1.67-1.82-1.68a2.39,2.39,0,0,0-1.68,1.7C99.37,137.06,100.45,137.7,101.07,138.34Z"/><path class="cls-1" d="M106.29,121.25a25,25,0,0,1-3.69-.06c-.55-.08-1-1-1.52-1s-1,1-1.49,1.07a27.62,27.62,0,0,1-3.92.06c0-1.36,0-2.57,0-3.79,0-.55,0-1.23.89-1.18a3.7,3.7,0,0,0,.14-1c-1.8-.63-1.08-2.19-1.19-3.4a6.41,6.41,0,0,1,.38-1.73c1.13,0,2.31-.07,3.47,0,.43,0,.8.55,1.22.79a4.09,4.09,0,0,0,.88.26c.32-1.69,1.66-1,2.61-1.13a13.58,13.58,0,0,1,2.35.14c0,1.31.06,2.59,0,3.85,0,.37-.55.68-.76,1.07a2.53,2.53,0,0,0-.26,1c2,.82,1.13,2.49,1.1,3.89C106.46,120.39,106.38,120.68,106.29,121.25Zm-3.12-5.46c-.39-.27-.63-.42-.86-.59a5.26,5.26,0,0,1-.67-.58,6.36,6.36,0,0,1-.56-.7c-.19.24-.35.5-.55.71-.41.42-.83.83-1.25,1.24a10.7,10.7,0,0,0,1.32,1.29,1.17,1.17,0,0,0,1,0,4.25,4.25,0,0,0,.81-.73C102.58,116.22,102.78,116.09,103.17,115.79Z"/><path class="cls-1" d="M120.29,89.63l.95,1.39a9.53,9.53,0,0,1,.83-1,1.47,1.47,0,0,1,.79-.44c1.17-.05,2.35,0,3.69,0v4.85h-4.34c-.11-.37-.12-.86-.36-1a1.68,1.68,0,0,0-1-.06c-.09.76-.41,1.21-1.22,1.24-.07,0-.24.53-.15.62a23,23,0,0,0,1.87,1.83s.47-.25.61-.46a3.35,3.35,0,0,0,.24-.93h4.38v4.9c-1.26,0-2.43,0-3.6,0a1.57,1.57,0,0,1-.86-.36,10.14,10.14,0,0,1-.9-1l-.9,1.4H116V96.07l1.25-.94a4.52,4.52,0,0,1-1-.74,1.81,1.81,0,0,1-.36-1c0-1.19,0-2.39,0-3.73Z"/><path class="cls-1" d="M126.59,115.17c-1.19,0-2.22.18-3.24.12-.6,0-1.38-.06-1.44-1.06,0-.18-.65-.51-.7-.45a21,21,0,0,0-1.76,2,2.76,2.76,0,0,0,.52.64c.45.43.89,1.12,1.38,1.17s.81-1,1.28-1.09a30,30,0,0,1,3.94-.06v4.7a18.88,18.88,0,0,1-3.16.12c-.52-.05-1-.68-1.49-.93a2.4,2.4,0,0,0-1.08-.17c-.35,1.5-1.57,1.16-2.51,1.19-2.18.07-2.55-.34-2.52-2.55a19.48,19.48,0,0,1,.22-2l1.25-.94a4.23,4.23,0,0,1-.93-.8,2.65,2.65,0,0,1-.46-1.3c-.07-1.1,0-2.21,0-3.44h4.38l1.1,1.36,1.12-1.36h4.13Z"/><path class="cls-1" d="M126.59,69v4.77c-1.2,0-2.36.07-3.51,0-.39,0-.73-.51-1.1-.78,0,0,0-.13,0-.14-.28-.12-.71-.4-.82-.3a12.77,12.77,0,0,0-1.66,1.71c0,.06.37.49.57.75s.39.7.68.87a2.11,2.11,0,0,0,1.12.21c.63-1.83,2.13-1.16,3.34-1.24a5.36,5.36,0,0,1,1.39.33v4.65h-4l-1.32-1.33-.9,1.35h-4.44a29.83,29.83,0,0,1,0-3.56c0-.47.6-.87.92-1.31a3.47,3.47,0,0,0,.4-.63,12.75,12.75,0,0,0-1.2-1,2.17,2.17,0,0,1-.11-.67c.06-1.18-.22-3.05.35-3.39,1-.6,2.53-.35,3.82-.22.46,0,.87,1.14,1.25,1.12s.84-1.06,1.32-1.13A29.53,29.53,0,0,1,126.59,69Z"/><path class="cls-1" d="M116.05,151.73h4.21l1,1.29a9,9,0,0,1,.86-.89,1.62,1.62,0,0,1,.83-.38c1.17,0,2.35,0,3.66,0v4.86c-1.27,0-2.46.06-3.64,0-.34,0-.64-.52-1-.82-.09-.09-.1-.32-.2-.37s-.55-.23-.64-.14a20.67,20.67,0,0,0-1.68,1.94s.35.44.58.63.51.18.56.34c.58,1.81.79,1.26,1.62,0,.42-.63,2-.49,3-.59a4.13,4.13,0,0,1,1.33.46v4.57c-1.29,0-2.46,0-3.63,0a1.55,1.55,0,0,1-.86-.35,6.8,6.8,0,0,1-.83-.94l-1,1.31h-4.32a36.27,36.27,0,0,1,0-3.64c0-.44.61-.79.84-1.23a4.14,4.14,0,0,0,.19-1.09c-1.39-.19-1.09-1.38-1.16-2.24A16,16,0,0,1,116.05,151.73Z"/><path class="cls-1" d="M126.61,131v4.77h-3.79a.4.4,0,0,1-.27-.06c-.45-.41-.87-1.16-1.31-1.16s-.82.77-1.23,1.21c-.2.22-.59.61-.56.65a18,18,0,0,0,1.64,1.93.81.81,0,0,0,.74-.17c.91-2,2.43-1.49,3.94-1.08a7.51,7.51,0,0,0,.82.13V142a25.83,25.83,0,0,1-3.31,0c-.48-.07-.86-.67-1.34-.93a2.94,2.94,0,0,0-1.08-.25c-.56,1.9-2.11,1.14-3.29,1.26a5.81,5.81,0,0,1-1.57-.32v-4.19l1.28-1a4.21,4.21,0,0,1-.94-.83,3.19,3.19,0,0,1-.5-1.44c0-1,.09-2,.15-3.17h4.4l.75,1.18a12.27,12.27,0,0,1,1-.94,1.35,1.35,0,0,1,.74-.28C124,131,125.21,131,126.61,131Z"/><path class="cls-1" d="M95.89,165a18.13,18.13,0,0,1,3.46.06c.67.12,1.25,1.19,1.84,1.17s.68-1.33,1.71-1.26,2.23,0,3.52,0a30.34,30.34,0,0,1-.06,4.1c-.08.57-1.08,1.06-1.06,1.56s.79,1,1.13,1.6a3,3,0,0,1,.22,1.13c.13,1.06-.17,1.58-1.39,1.53-2.8-.1-5.61-.09-8.41,0-1.22,0-1.62-.5-1.37-1.53.19-.83-.24-2.06,1.16-2.32a1.62,1.62,0,0,0,.08-.9c-1.82-.85-1.21-2.39-1.09-3.79C95.67,166,95.77,165.58,95.89,165Zm5.21,7.4,1.81-1.82c-.64-.61-1.22-1.61-1.91-1.69-.5-.06-1.63,1.13-1.59,1.7S100.49,171.76,101.1,172.36Z"/><path class="cls-1" d="M126.6,165.31V170a35.3,35.3,0,0,1-3.58-.05c-.37,0-.69-.57-1-.85s-.67-.5-.74-.43a15.83,15.83,0,0,0-1.77,1.8c-.06.08.23.54.43.75s.65.28.73.51c.5,1.36.68,1,1.51.09.61-.67,2-.64,3.08-.78.41,0,.87.29,1.4.48v3.25H115.82c.27-1.31-.8-2.9,1.18-3.68.12-.05.07-1,0-1-1.64-.34-1.06-1.71-1.17-2.68a11.1,11.1,0,0,1,.26-2.32,33.57,33.57,0,0,1,3.48,0c.41,0,.73.65,1.15.88a2.47,2.47,0,0,0,1.07.25c.68-1.88,2.24-1.14,3.49-1.22A5,5,0,0,1,126.6,165.31Z"/><path class="cls-1" d="M95.67,149.11v-4.74c1.41,0,2.65-.06,3.88,0,.37,0,.67.58,1,.81a2.22,2.22,0,0,0,.85.23c.61-1.84,2.14-1.12,3.33-1.23a5.79,5.79,0,0,1,1.67.36v4.76a33.87,33.87,0,0,1-3.68-.05c-.43,0-.78-.61-1.2-.86a2,2,0,0,0-.85-.21c-.77,2-2.39,1.17-3.74,1.18A7.25,7.25,0,0,1,95.67,149.11Z"/><path class="cls-1" d="M106.47,82.24v5c-1.46,0-2.73,0-4,0-.26,0-.69-.1-.75-.26-.76-2.29-1-.48-1.48.28H95.7v-5a23.17,23.17,0,0,1,3.75,0c.61.11,1.11,1.12,1.69,1.15s1-1,1.55-1.13A24.39,24.39,0,0,1,106.47,82.24Z"/><path class="cls-1" d="M95.66,107.79V103h4.47l1,1.16L102,103h4.48v4.93c-1.43,0-2.65,0-3.86,0-.34,0-.64-.5-1-.7a5.12,5.12,0,0,0-.92-.35c-.35,1.71-1.73,1.1-2.73,1.22A10.61,10.61,0,0,1,95.66,107.79Z"/><path class="cls-1" d="M106.45,123.83v4.73a26.6,26.6,0,0,1-3.83-.06c-.55-.08-1-1-1.51-1s-1,1-1.5,1.06a27.39,27.39,0,0,1-3.9.06v-4.9c1.34,0,2.52-.08,3.68,0,.43,0,.79.55,1.21.8a2.21,2.21,0,0,0,.77.25c.83-1.93,2.48-.93,3.78-1.1A5.44,5.44,0,0,1,106.45,123.83Z"/><path class="cls-1" d="M108.79,100.5c0-1.35-.06-2.6,0-3.83,0-.36.6-.65.8-1a3.7,3.7,0,0,0,.2-1.08c-1.45,0-1.08-1.25-1.16-2a15.79,15.79,0,0,1,.2-2.89h4.65v4.46l-1.2,1,1.26,1.1v4.35Z"/><path class="cls-1" d="M108.75,151.71h4.86c0,1.32,0,2.47,0,3.61,0,.6,0,1.32-.93,1.34a6.54,6.54,0,0,0-.11,1c1.45.16,1,1.41,1.13,2.23a14.39,14.39,0,0,1-.22,2.74h-4.72a21.32,21.32,0,0,1,.06-3.69c.13-.67,1.15-1.23,1.18-1.86s-1.06-1.08-1.19-1.71A20.9,20.9,0,0,1,108.75,151.71Z"/><path class="cls-1" d="M113.59,121a5.46,5.46,0,0,1-1.17.23c-1.16-.07-3,.2-3.31-.39-.58-1-.33-2.59-.2-3.91,0-.43.77-.8,1.19-1.2-.42-.42-1.15-.8-1.2-1.26a33.59,33.59,0,0,1-.06-4.17h4.69c0,1.43,0,2.76,0,4.1a1.22,1.22,0,0,1-.36.69,7.19,7.19,0,0,1-.85.7l1.28,1.05Z"/><path class="cls-1" d="M113.58,79.86h-4.75c0-1.44,0-2.77,0-4.1a1.35,1.35,0,0,1,.35-.73,10.1,10.1,0,0,1,.91-.81l-1.16-.76c-1-4.43-.13-5.44,4.62-4.27v4.08l-1.25,1.09,1.27,1.12Z"/><path class="cls-1" d="M108.93,131h4.7c0,1.24,0,2.38,0,3.51,0,.59,0,1.32-.91,1.36a2.68,2.68,0,0,0-.22,1c2,.7,1,2.36,1.15,3.64a6.37,6.37,0,0,1-.22,1.38h-4.65c0-1.31-.08-2.5,0-3.68,0-.41.62-.75.84-1.18a2.83,2.83,0,0,0,.19-1.07c-1.65-.42-1.1-1.81-1.18-2.86A10.3,10.3,0,0,1,108.93,131Z"/><path class="cls-1" d="M126.63,82.29v4.79h-4.19l-1.12-1.31-1.1,1.39H116v-4.8h4.21l1.08,1.36a6.64,6.64,0,0,1,.78-1,1.49,1.49,0,0,1,.84-.39C124.1,82.26,125.27,82.29,126.63,82.29Z"/><path class="cls-1" d="M126.58,108c-1.14,0-2.13,0-3.11,0-.68,0-1.48,0-1.58-1,0-.1-.71-.13-1.09-.19-.2,1.7-1.52,1.19-2.49,1.26a15.77,15.77,0,0,1-2.31-.19V103h4.23l1.11,1.36,1.12-1.36h4.12Z"/><path class="cls-1" d="M126.6,144.43v4.91a24.31,24.31,0,0,1-3.33-.05c-.48-.06-.85-.67-1.33-.93a2.86,2.86,0,0,0-1.08-.24c-.52,1.83-2,1.17-3.15,1.27a7.24,7.24,0,0,1-1.71-.33v-4.59h4.29l.95,1.25a8.17,8.17,0,0,1,.85-.91,1.6,1.6,0,0,1,.84-.37C124.1,144.4,125.27,144.43,126.6,144.43Z"/><path class="cls-1" d="M126.62,123.79v4.76a19.4,19.4,0,0,1-3.51-.06c-.63-.13-1.14-1.19-1.73-1.22s-1.06,1.09-1.67,1.18c-3.88.61-4.15,0-3.78-3.65,0-.28.11-.57.21-1.08,1.17,0,2.38,0,3.58,0,.34,0,.62.5,1,.66a5.87,5.87,0,0,0,1.18.32c.23-1.44,1.36-1,2.21-1.07A23.3,23.3,0,0,1,126.62,123.79Z"/><path class="cls-1" d="M113.56,165.09v4.38l-1.25,1c.33.26.85.47.94.8.28,1.07.41,2.19.62,3.44h-5.18c.2-1.31-.86-2.91,1.18-3.72a1.19,1.19,0,0,0,.1-.86c-2.39-1.19-1.12-3.15-1-5.08Z"/><path class="cls-1" d="M113.52,149.27h-4.7v-4.86h4.7Z"/><path class="cls-1" d="M108.85,82.3h4.69v4.84h-4.69Z"/><path class="cls-1" d="M113.55,107.87h-4.7V103h4.7Z"/><path class="cls-1" d="M113.57,123.76v4.74h-4.71v-4.74Z"/><path class="cls-1" d="M129.18,94.41V89.68h4.52v4.73Z"/><path class="cls-1" d="M133.73,95.74v4.69h-4.54V95.74Z"/><path class="cls-1" d="M129,137.11h4.78v4.95c-1.53-.13-3.43.26-4.19-.52S129.12,138.81,129,137.11Z"/><path class="cls-1" d="M140.86,141.62c-1.54.49-3.33,1-4.22-.15-.66-.85-.69-3.22,0-3.86.83-.8,2.65-.5,4.24-.7Z"/><path class="cls-1" d="M133.71,115.28c-1.48-.1-3.44.33-4.09-.43-.8-.92-.5-2.84-.69-4.5h4.78Z"/><path class="cls-1" d="M133.74,79.8h-4.81c.19-1.66-.11-3.58.69-4.5.65-.76,2.61-.33,4.12-.44Z"/><path class="cls-1" d="M129.36,87.07c-1-4.94-.09-5.4,4.34-4.54v4.54Z"/><path class="cls-1" d="M133.7,107.66l-1,.2c-3.28.52-4.23-.51-3.57-3.83.06-.29.11-.57.19-1h4.36Z"/><path class="cls-1" d="M133.69,169.66c-1.52.56-3.34,1-4.26-.17-.66-.85-.67-3.22,0-3.88.81-.81,2.65-.53,4.26-.75Z"/><path class="cls-1" d="M140.87,165.38v4.25c-1.52.47-3.29,1-4.27-.18a4.06,4.06,0,0,1,0-3.79C137.52,164.32,139.3,165,140.87,165.38Z"/><path class="cls-1" d="M144.58,79.9c-2.2,0-2.52-.3-2.52-2.44s.56-2.58,2.54-2.57,2.38.33,2.37,2.6S146.86,79.9,144.58,79.9Z"/><path class="cls-1" d="M144.66,110.25c2.23,0,2.32.11,2.31,2.49,0,2.22-.29,2.52-2.45,2.51-2,0-2.48-.58-2.46-2.64S142.39,110.23,144.66,110.25Z"/><path class="cls-1" d="M151.82,110.26c2.06,0,2.29.27,2.29,2.51,0,2-.46,2.47-2.46,2.46-1.78,0-2.4-.69-2.38-2.63S149.72,110.24,151.82,110.26Z"/><path class="cls-1" d="M154.11,98.17c0,2-.43,2.44-2.47,2.42-1.76,0-2.37-.65-2.37-2.47,0-2.1.42-2.51,2.56-2.49S154.12,95.94,154.11,98.17Z"/><path class="cls-1" d="M147,98.11c0,2.23-.26,2.5-2.42,2.5-2,0-2.48-.5-2.49-2.45,0-2.19.36-2.56,2.57-2.55S147,95.77,147,98.11Z"/><path class="cls-1" d="M144.65,102.94c2.25,0,2.33.09,2.32,2.49,0,2.22-.26,2.49-2.44,2.48-2,0-2.49-.53-2.47-2.6S142.39,102.93,144.65,102.94Z"/><path class="cls-1" d="M154.11,77.43c0,2.21-.24,2.45-2.33,2.46s-2.5-.38-2.51-2.39.61-2.58,2.43-2.58C153.69,74.92,154.11,75.36,154.11,77.43Z"/><path class="cls-1" d="M151.73,103c2.13,0,2.37.25,2.38,2.41s-.38,2.53-2.36,2.54-2.48-.63-2.48-2.51C149.27,103.35,149.67,103,151.73,103Z"/><path class="cls-1" d="M144.55,87.21c-2.18,0-2.49-.31-2.49-2.47,0-2,.52-2.52,2.57-2.5s2.35.28,2.34,2.58S146.86,87.21,144.55,87.21Z"/><path class="cls-1" d="M151.77,87.2c-2.08,0-2.49-.38-2.5-2.4s.6-2.55,2.43-2.55c2,0,2.41.41,2.41,2.5S153.87,87.19,151.77,87.2Z"/><path class="cls-1" d="M154.11,92.15c0,2.11-.29,2.38-2.44,2.37-2,0-2.41-.45-2.4-2.51,0-1.86.64-2.47,2.53-2.45S154.12,90,154.11,92.15Z"/><path class="cls-1" d="M147,92.11c0,2.3-.13,2.43-2.4,2.43s-2.51-.36-2.51-2.48.51-2.53,2.55-2.52S147,89.82,147,92.11Z"/><path class="cls-1" d="M147,146.87c0,2.2-.27,2.47-2.46,2.45-2,0-2.45-.51-2.45-2.48s.39-2.47,2.55-2.46S147,144.55,147,146.87Z"/><path class="cls-1" d="M140.79,103.06c.09.77.19,1.38.21,2,.09,2.62-1.61,3.75-4,2.65a1.21,1.21,0,0,1-.6-.83c-.07-1.22,0-2.46,0-3.82Z"/><path class="cls-1" d="M141.21,87.1h-4.64c-.44-1.6-1-3.39.19-4.43.73-.65,3.07-.68,3.52-.08C141.06,83.63,140.92,85.38,141.21,87.1Z"/><path class="cls-1" d="M141.23,79.79h-4.65c-.46-1.58-1-3.38.18-4.43.71-.65,3.05-.68,3.5-.08C141,76.31,140.92,78.06,141.23,79.79Z"/><path class="cls-1" d="M147,71.33c0,2.32-.13,2.46-2.37,2.47s-2.54-.35-2.54-2.46.48-2.45,2.45-2.46C146.72,68.86,147,69.11,147,71.33Z"/><path class="cls-1" d="M147,139.6c0,2.16-.29,2.44-2.5,2.42-1.93,0-2.42-.53-2.41-2.52s.47-2.48,2.58-2.47S147,137.27,147,139.6Z"/><path class="cls-1" d="M136.37,110.37h4.49c0,1.14.1,2.15.14,3.15.05,1.46-.86,1.73-2,1.77-2,.06-2.63-.25-2.74-1.64A26.73,26.73,0,0,1,136.37,110.37Z"/><path class="cls-1" d="M147,160.28c0,2.2-.19,2.38-2.46,2.37-2.07,0-2.47-.42-2.45-2.54,0-1.89.59-2.46,2.47-2.46C146.67,157.64,147,158,147,160.28Z"/><path class="cls-1" d="M129,162.51c.14-1.63-.21-3.43.51-4.35.91-1.16,2.7-.74,4.24-.07v4.42Z"/><path class="cls-1" d="M147,118.8c0,2.25-.23,2.48-2.44,2.47-2,0-2.47-.48-2.47-2.44,0-2.12.36-2.48,2.52-2.48S147,116.49,147,118.8Z"/><path class="cls-1" d="M147,167.6c0,2.17-.26,2.41-2.5,2.39-2,0-2.41-.47-2.41-2.49s.52-2.51,2.58-2.49S147,165.29,147,167.6Z"/><path class="cls-1" d="M140.85,95.76c.06,1.06.16,1.93.15,2.79,0,1.77-.32,2-2.11,2.07-2.41.06-2.83-.36-2.71-2.83a19.4,19.4,0,0,1,.32-2Z"/><path class="cls-1" d="M129,151.8h4.75v4.42c-1.45.71-3.26,1.11-4.15,0C128.79,155.29,129.12,153.44,129,151.8Z"/><path class="cls-1" d="M141.23,94.42H136.6c-.51-1.59-1-3.39.15-4.44.7-.65,3.06-.69,3.52-.09C141.05,90.92,140.92,92.67,141.23,94.42Z"/><path class="cls-1" d="M154.11,133.37c0,2.1-.38,2.51-2.34,2.53s-2.5-.59-2.5-2.47c0-2,.39-2.43,2.44-2.43S154.1,131.25,154.11,133.37Z"/><path class="cls-1" d="M147,133.48c0,2.13-.37,2.49-2.5,2.46-1.91,0-2.42-.57-2.41-2.55s.33-2.41,2.57-2.4S147,131.09,147,133.48Z"/><path class="cls-1" d="M133.69,135.52c-1.51.63-3.3,1.07-4.2-.1-.72-.92-.37-2.72-.51-4.31h4.71Z"/><path class="cls-1" d="M147,154.15c0,2.22-.3,2.53-2.39,2.53s-2.52-.56-2.52-2.56.4-2.45,2.55-2.44S147,151.84,147,154.15Z"/><path class="cls-1" d="M144.63,123.69c2.26,0,2.35.1,2.34,2.47,0,2.2-.25,2.44-2.49,2.42-2,0-2.43-.51-2.42-2.5S142.39,123.68,144.63,123.69Z"/><path class="cls-1" d="M140.82,151.82a14.51,14.51,0,0,1,.16,2.34c-.07.75-.24,2.06-.57,2.12-1.19.25-2.78.53-3.6-.08-.64-.47-.38-2.25-.45-3.45s.82-1,1.48-1.06C138.77,151.66,139.72,151.76,140.82,151.82Z"/><path class="cls-1" d="M140.86,144.53v4.8c-1.52-.13-3.29.25-4.15-.48-1.09-.91-.64-2.74-.13-4.32Z"/><path class="cls-1" d="M129,144.49h4.74V149c-1.47.5-3.3,1-4.18-.09S129.12,146.11,129,144.49Z"/><path class="cls-1" d="M136.06,131.1h4.72c.16,1.59.89,3.41-.34,4.39-.79.63-3.08.63-3.62,0C136.06,134.54,136.29,132.76,136.06,131.1Z"/><path class="cls-1" d="M154.11,154.15c0,2.08-.39,2.49-2.38,2.49-1.84,0-2.46-.64-2.46-2.53s.48-2.42,2.48-2.42S154.11,152,154.11,154.15Z"/><path class="cls-1" d="M154.11,126.1c0,2.1-.34,2.45-2.39,2.45-1.9,0-2.46-.56-2.45-2.48s.42-2.38,2.48-2.37S154.11,124,154.11,126.1Z"/><path class="cls-1" d="M154.11,71.32c0,2.17-.26,2.44-2.32,2.46s-2.51-.41-2.52-2.36.54-2.52,2.41-2.52C153.75,68.89,154.1,69.25,154.11,71.32Z"/><path class="cls-1" d="M140.87,68.85v4.77h-4.29c-.5-1.48-1-3.31.1-4.24C137.54,68.63,139.32,69,140.87,68.85Z"/><path class="cls-1" d="M154.11,160.24c0,2.09-.31,2.4-2.41,2.39s-2.44-.47-2.43-2.47c0-1.84.66-2.49,2.51-2.47S154.11,158.11,154.11,160.24Z"/><path class="cls-1" d="M140.84,128.21c-4.4,1-5.31.13-4.3-4.37h4.3Z"/><path class="cls-1" d="M140.81,162.49c-.95.07-1.75.17-2.54.16-1.79,0-2.05-.31-2.1-2.21-.06-2.13.37-2.72,2-2.83,2.34-.15,2.83.3,2.79,2.7C141,161,140.89,161.65,140.81,162.49Z"/><path class="cls-1" d="M129.37,123.77h4.31v4.43C129.22,129.38,128.37,128.31,129.37,123.77Z"/><path class="cls-1" d="M133.75,116.45v4.45c-1.5.53-3.33,1-4.21-.05s-.42-2.77-.59-4.4Z"/><path class="cls-1" d="M136.51,116.47h4.55c-.14,1.59.17,3.38-.56,4.36-.48.65-2.79.67-3.67,0C135.53,120,136.2,118.16,136.51,116.47Z"/><path class="cls-1" d="M154.11,118.8c0,2.08-.36,2.45-2.4,2.45s-2.45-.57-2.44-2.49.45-2.39,2.49-2.39S154.11,116.65,154.11,118.8Z"/><path class="cls-1" d="M133.7,73.7h-4.27c-1.18-4.65-.12-5.51,4.27-4.5Z"/><path class="cls-1" d="M154.11,167.41c0,2.22-.3,2.55-2.41,2.55-1.89,0-2.41-.5-2.43-2.34s.54-2.58,2.37-2.59C153.72,165,154.1,165.37,154.11,167.41Z"/><path class="cls-1" d="M154.11,146.86c0,2.09-.35,2.44-2.41,2.44-1.86,0-2.44-.6-2.43-2.52s.49-2.4,2.51-2.39S154.11,144.71,154.11,146.86Z"/><path class="cls-1" d="M154.11,139.53c0,2.11-.35,2.46-2.39,2.47-1.86,0-2.46-.61-2.45-2.51s.53-2.44,2.49-2.43S154.11,137.42,154.11,139.53Z"/><path class="cls-1" d="M126.71,64.2l-.15,2.22c-1.27,0-2.49,0-3.7,0a1.5,1.5,0,0,1-.8-.41,6.67,6.67,0,0,1-.77-.82l-1,1.24c-1,0-2.25,0-3.47,0-.25,0-.48-.39-.73-.6.25-.16.48-.44.73-.46.81-.06,1.62,0,2.53,0,.07-1.28.77-1.25,1.79-1.15C122.88,64.33,124.69,64.2,126.71,64.2Z"/><path class="cls-1" d="M159,95.65a2.46,2.46,0,0,1,2.22,2.68,2.42,2.42,0,1,1-4.82-.34A2.4,2.4,0,0,1,159,95.65Z"/><path class="cls-1" d="M158.91,110.27a2.39,2.39,0,0,1,2.34,2.55,2.44,2.44,0,0,1-2.43,2.38,2.41,2.41,0,0,1-2.39-2.48A2.38,2.38,0,0,1,158.91,110.27Z"/><path class="cls-1" d="M161.25,92a2.4,2.4,0,0,1-2.43,2.46,2.44,2.44,0,0,1-2.39-2.41,2.4,2.4,0,0,1,2.48-2.52A2.45,2.45,0,0,1,161.25,92Z"/><path class="cls-1" d="M161.25,77.38a2.39,2.39,0,0,1-2.39,2.5,2.47,2.47,0,1,1,2.39-2.5Z"/><path class="cls-1" d="M161.25,84.74a2.39,2.39,0,0,1-2.43,2.45,2.47,2.47,0,0,1,.1-4.93A2.47,2.47,0,0,1,161.25,84.74Z"/><path class="cls-1" d="M161.25,105.38a2.41,2.41,0,1,1-2.47-2.42A2.4,2.4,0,0,1,161.25,105.38Z"/><path class="cls-1" d="M164.8,79.88a2.47,2.47,0,0,1-2.42-2.44A2.56,2.56,0,0,1,164.7,75a2.46,2.46,0,0,1,.1,4.92Z"/><path class="cls-1" d="M164.75,110.27a2.46,2.46,0,1,1-2.37,2.49A2.49,2.49,0,0,1,164.75,110.27Z"/><path class="cls-1" d="M161.25,118.85a2.32,2.32,0,0,1-2.38,2.38,2.29,2.29,0,0,1-2.44-2.39,2.37,2.37,0,0,1,2.44-2.45A2.39,2.39,0,0,1,161.25,118.85Z"/><path class="cls-1" d="M164.72,95.66a2.48,2.48,0,0,1,2.47,2.47,2.41,2.41,0,1,1-2.47-2.47Z"/><path class="cls-1" d="M169.55,98A2.53,2.53,0,0,1,172,95.67,2.45,2.45,0,1,1,169.55,98Z"/><path class="cls-1" d="M161.25,126.16a2.32,2.32,0,0,1-2.39,2.37,2.28,2.28,0,0,1-2.43-2.39,2.41,2.41,0,1,1,4.82,0Z"/><path class="cls-1" d="M164.72,103a2.47,2.47,0,0,1,2.47,2.46,2.41,2.41,0,1,1-2.47-2.46Z"/><path class="cls-1" d="M171.8,94.48a2.55,2.55,0,0,1-2.25-2.58,2.39,2.39,0,1,1,4.77.19A2.59,2.59,0,0,1,171.8,94.48Z"/><path class="cls-1" d="M164.77,94.49A2.47,2.47,0,0,1,162.38,92a2.54,2.54,0,0,1,2.35-2.44,2.49,2.49,0,0,1,2.46,2.54A2.53,2.53,0,0,1,164.77,94.49Z"/><path class="cls-1" d="M158.82,131a2.37,2.37,0,0,1,2.43,2.41,2.41,2.41,0,0,1-4.82.09A2.37,2.37,0,0,1,158.82,131Z"/><path class="cls-1" d="M172,110.28a2.45,2.45,0,0,1-.2,4.89,2.66,2.66,0,0,1-2.25-2.51A2.61,2.61,0,0,1,172,110.28Z"/><path class="cls-1" d="M169.55,105.33A2.56,2.56,0,0,1,172,103a2.62,2.62,0,0,1,2.29,2.47,2.67,2.67,0,0,1-2.4,2.41A2.6,2.6,0,0,1,169.55,105.33Z"/><path class="cls-1" d="M164.71,87.18a2.45,2.45,0,1,1,2.48-2.45A2.48,2.48,0,0,1,164.71,87.18Z"/><path class="cls-1" d="M171.86,87.17a2.44,2.44,0,0,1,.08-4.88,2.68,2.68,0,0,1,2.38,2.44A2.57,2.57,0,0,1,171.86,87.17Z"/><path class="cls-1" d="M158.92,165.05a2.4,2.4,0,0,1,2.33,2.51,2.46,2.46,0,0,1-2.52,2.38,2.49,2.49,0,0,1-2.3-2.5A2.42,2.42,0,0,1,158.92,165.05Z"/><path class="cls-1" d="M161.25,139.57a2.41,2.41,0,1,1-4.82-.09,2.5,2.5,0,0,1,2.4-2.4A2.44,2.44,0,0,1,161.25,139.57Z"/><path class="cls-1" d="M161.25,160.26a2.41,2.41,0,1,1-2.42-2.54A2.41,2.41,0,0,1,161.25,160.26Z"/><path class="cls-1" d="M164.74,162.61a2.43,2.43,0,1,1,2.45-2.44A2.52,2.52,0,0,1,164.74,162.61Z"/><path class="cls-1" d="M162.38,154.14a2.47,2.47,0,0,1,2.4-2.42,2.55,2.55,0,0,1,2.41,2.33,2.49,2.49,0,0,1-2.46,2.53A2.55,2.55,0,0,1,162.38,154.14Z"/><path class="cls-1" d="M158.86,151.71a2.45,2.45,0,1,1-2.43,2.47A2.4,2.4,0,0,1,158.86,151.71Z"/><path class="cls-1" d="M158.87,144.4a2.45,2.45,0,0,1,2.38,2.52,2.41,2.41,0,1,1-4.82-.17A2.45,2.45,0,0,1,158.87,144.4Z"/><path class="cls-1" d="M167.19,133.4a2.43,2.43,0,0,1-2.39,2.44,2.39,2.39,0,0,1-2.42-2.34,2.41,2.41,0,1,1,4.81-.1Z"/><path class="cls-1" d="M172.08,75.86l1.31,1.43.82-.83c.23,1.83-.64,3.32-2,3.4a2.49,2.49,0,0,1-2.69-2.42c0-1.56,1.24-2.5,3.16-2.41Z"/><path class="cls-1" d="M176.86,94.39c-.41-1.16-2.36-1.92-.91-3.55.78-.88,1.66-1.81,3-1.08a3.23,3.23,0,0,1,1.23,3.15A3.21,3.21,0,0,1,176.86,94.39Z"/><path class="cls-1" d="M178.38,87.28c-1.12.54-1.93-.81-2.73-1.76-.27-.32,0-1.45.4-2,.66-1,1.73-1.94,2.88-1C180.61,83.91,180.81,85.58,178.38,87.28Z"/><path class="cls-1" d="M169.61,125.05c1.11-.58,2-2.25,3.5-1,.9.77,1.95,1.87,1,3.12-.63.82-1.59,1.73-2.94,1.27C170.14,128.11,169.5,126.72,169.61,125.05Z"/><path class="cls-1" d="M162.38,126.14a2.42,2.42,0,0,1,2.4-2.42,2.48,2.48,0,0,1,2.41,2.33,2.41,2.41,0,1,1-4.81.09Z"/><path class="cls-1" d="M162.38,146.81a2.53,2.53,0,0,1,2.45-2.4,2.56,2.56,0,0,1,2.36,2.41,2.41,2.41,0,1,1-4.81,0Z"/><path class="cls-1" d="M167.19,167.57a2.55,2.55,0,0,1-2.42,2.35,2.43,2.43,0,1,1,2.42-2.35Z"/><path class="cls-1" d="M169.7,117.73c1-.57,1.89-2.29,3.44-.93.91.78,1.68,1.74,1.07,3-.44.93-2.37,1.76-3.06,1.26C170.12,120.36,169,119.5,169.7,117.73Z"/><path class="cls-1" d="M162.38,118.83a2.45,2.45,0,0,1,2.4-2.43,2.5,2.5,0,0,1,2.41,2.34,2.41,2.41,0,1,1-4.81.09Z"/><path class="cls-1" d="M164.8,137.1a2.58,2.58,0,0,1,2.39,2.38,2.41,2.41,0,1,1-4.81.05A2.49,2.49,0,0,1,164.8,137.1Z"/><path class="cls-1" d="M169.55,133.41A2.45,2.45,0,0,1,172,131a2.58,2.58,0,0,1,2.36,2.36,2.46,2.46,0,0,1-2.41,2.41A2.42,2.42,0,0,1,169.55,133.41Z"/><path class="cls-1" d="M176.72,103.18c1.74-.8,2.56.44,3.38,1.39.51.6-.24,2.61-1.21,3.1a2.25,2.25,0,0,1-2,0,3.53,3.53,0,0,1-1.23-2.29C175.64,104.59,176.38,103.8,176.72,103.18Z"/><path class="cls-1" d="M178.89,110.36c.49,1.14,2.25,1.94.92,3.56-.75.91-1.7,1.81-2.86,1.09a3.22,3.22,0,0,1-1.3-2.25c0-.77.69-1.58,1.09-2.4Z"/><path class="cls-1" d="M178,95.69a2.51,2.51,0,0,1,2.24,2.52,2.61,2.61,0,0,1-2.35,2.33,2.7,2.7,0,0,1-2.28-2.44A2.61,2.61,0,0,1,178,95.69Z"/><path class="cls-1" d="M147.23,174.78h-5.4c.32-1.21.29-2.84.93-3.18a4.4,4.4,0,0,1,3.59,0C147,171.88,146.93,173.54,147.23,174.78Z"/><path class="cls-1" d="M133.75,171.53v3.24H128.9c.16-1.15-.05-2.61.54-3.18C130.57,170.53,132.17,170.88,133.75,171.53Z"/><path class="cls-1" d="M154.4,174.76h-5c-.18-1.13-.57-2.56.56-3.11a4.2,4.2,0,0,1,3.42,0C154,172,154.05,173.56,154.4,174.76Z"/><path class="cls-1" d="M171.91,137.12a2.41,2.41,0,0,1,0,4.82,2.58,2.58,0,0,1-2.4-2.51A2.63,2.63,0,0,1,171.91,137.12Z"/><path class="cls-1" d="M169.61,161.31c-.09-1.48.72-3.38,1.58-3.46a3.41,3.41,0,0,1,2,.52c1.05.66,1.8,1.89.89,2.85-.47.5-.95,2-2.23,1.37C171,162.21,170.31,161.72,169.61,161.31Z"/><path class="cls-1" d="M169.62,153.1c1.11-.55,2-2.36,3.49-1,.82.75,2,1.83,1,3-.64.78-1.5,2-3,1.41C170.33,156.18,169.52,154.46,169.62,153.1Z"/><path class="cls-1" d="M169.55,167.48a2.39,2.39,0,1,1,2.4,2.42A2.49,2.49,0,0,1,169.55,167.48Z"/><path class="cls-1" d="M169.7,145.77c1.05-.51,1.88-2.4,3.42-.94.82.77,2,1.83,1,3-.64.78-1.64,2.2-3,1.32C170.17,148.48,169,147.54,169.7,145.77Z"/><path class="cls-1" d="M140.87,171.08c.07,1.55.12,2.56.17,3.66h-5c.19-1.1.05-2.82.63-3.13C137.8,171,139.32,171.22,140.87,171.08Z"/><path class="cls-1" d="M177.06,123.83c1.38-.64,2.39.38,3,1.46.74,1.24-.36,2.26-1.19,3a2.15,2.15,0,0,1-2.1,0C175.12,126.83,175,125.25,177.06,123.83Z"/><path class="cls-1" d="M175.56,118.67a2.57,2.57,0,0,1,2.38-2.24,2.45,2.45,0,0,1,2.25,2.47,2.41,2.41,0,0,1-2.41,2.27A2.46,2.46,0,0,1,175.56,118.67Z"/><path class="cls-1" d="M175.56,133.37a2.58,2.58,0,0,1,2.29-2.33,2.37,2.37,0,1,1-2.29,2.33Z"/><path class="cls-1" d="M184.51,110.34a2.41,2.41,0,0,1,2.8,2.51,2.58,2.58,0,0,1-3.05,2.21C182.44,113.54,181.94,112,184.51,110.34Z"/><path class="cls-1" d="M191.58,110.31c1.39-.67,2.12.81,2.73,1.73.84,1.26-1.89,4-3,2.9-.65-.68-2.12-1.45-1.42-2.91C190.2,111.47,190.82,111.08,191.58,110.31Z"/><path class="cls-1" d="M186,95.89c.38,1,2.12,1.71,1.14,3-.62.84-1.37,2.32-3.07,1.42-.57-.9-2.13-1.83-1.18-3.17C183.47,96.37,184.36,94.86,186,95.89Z"/><path class="cls-1" d="M184.08,89.71c1.9-.16,3.23.82,3.23,2.36s-1.28,2.44-3,2.33l-1.65-1.83C181.94,91.37,183.72,90.83,184.08,89.71Z"/><path class="cls-1" d="M186,87.11h-1.84c-1-2-1-2.22,0-4.9.65.16,1.52.12,2,.54A3.44,3.44,0,0,1,187.21,85C187.2,85.69,186.43,86.38,186,87.11Z"/><path class="cls-1" d="M191.34,94.4a4.82,4.82,0,0,0-.86-1.15,1.39,1.39,0,0,1,0-2.33c.66-.39.78-1.85,1.92-1.23a5.08,5.08,0,0,1,2,1.81c.29.52,0,1.2-.59,1.91A2.33,2.33,0,0,1,191.34,94.4Z"/><path class="cls-1" d="M191.53,95.78a3.33,3.33,0,0,1,2.86,1.63c.53,1.5-2,4-3.08,2.91-.65-.7-2.1-1.48-1.37-2.93C190.22,96.82,190.86,96.44,191.53,95.78Z"/><path class="cls-1" d="M191.12,103.22c1.82-.9,2.34.72,3.19,1.5.22.2-.14,1.26-.45,1.81-.57,1-1.51,1.87-2.65,1.07a3.26,3.26,0,0,1-1.23-2.28C190,104.61,190.74,103.88,191.12,103.22Z"/><path class="cls-1" d="M184,103h2c.35,1.14,2.3,1.85,1,3.47-.7.86-1.68,2-2.77,1.15-.55-.45-1.87-1.06-1.44-2.29A14.6,14.6,0,0,1,184,103Z"/><path class="cls-1" d="M175.69,138.5c1-.59,1.85-2.3,3.37-1,.83.71,1.65,1.72,1,3a2.79,2.79,0,0,1-3,1.37c-.15-.06-.26-.23-.38-.36C176,140.66,175.1,139.85,175.69,138.5Z"/><path class="cls-1" d="M177.79,162.58a2.39,2.39,0,0,1,.13-4.77,2.56,2.56,0,0,1,2.27,2.41A2.5,2.5,0,0,1,177.79,162.58Z"/><path class="cls-1" d="M180.19,146.8a2.56,2.56,0,0,1-2.28,2.42,2.6,2.6,0,0,1-2.35-2.36,2.52,2.52,0,0,1,2.37-2.42A2.54,2.54,0,0,1,180.19,146.8Z"/><path class="cls-1" d="M175.72,153.09c1-.56,1.82-2.29,3.35-1,.83.72,1.74,1.83.94,3-.62.87-1.66,2.23-2.91,1.32C176.2,155.75,174.86,154.81,175.72,153.09Z"/><path class="cls-1" d="M177,169.67c-.37-.32-.86-.58-1.08-1a2.08,2.08,0,0,1-.31-1.54,3.93,3.93,0,0,1,1.54-1.92,1.63,1.63,0,0,1,2.17.63c.66.89,1.27,1.81.73,2.54C179.37,169.31,178.45,170.57,177,169.67Z"/><path class="cls-1" d="M184.85,161.7l-1.15-1.34-.86.88c-.22-1.77.64-3.31,1.9-3.4a2.49,2.49,0,0,1,2.57,2.38c0,1.51-1.3,2.42-3.24,2.27Z"/><path class="cls-1" d="M191.55,162.48l-1.33-1.15s-.13,0-.13,0c-.07-.56-.37-1.26-.15-1.66a4.35,4.35,0,0,1,1.67-1.68,2,2,0,0,1,1.64.34,2.92,2.92,0,0,1,1.12,1.55C194.7,161.5,193.24,162.65,191.55,162.48Z"/><path class="cls-1" d="M191.16,144.64c1.64-.79,2.32.64,3.15,1.45.24.23-.07,1.33-.4,1.84-.61.95-1.7,1.91-2.63,1-.49-.49-1.9-1-1.37-2.21A15.22,15.22,0,0,1,191.16,144.64Z"/><path class="cls-1" d="M184.37,169.81l-1.31-1.14s-.13,0-.13,0c-.07-.61-.38-1.35-.14-1.79a4,4,0,0,1,1.7-1.63,2,2,0,0,1,1.66.34,2.81,2.81,0,0,1,1.11,1.56C187.6,168.86,186.21,170,184.37,169.81Z"/><path class="cls-1" d="M183.52,139.34l1.35-1.12-.9-.92c1.76-.27,3.24.6,3.34,1.94a2.54,2.54,0,0,1-2.31,2.64c-1.43,0-2.34-1.36-2.22-3.3Z"/><path class="cls-1" d="M192.18,137.18a2.66,2.66,0,0,1,2.24,2.39,2.81,2.81,0,0,1-2.25,2.28,2.74,2.74,0,0,1-2.29-2.44A2.86,2.86,0,0,1,192.18,137.18Z"/><path class="cls-1" d="M182.92,145.79c1-.43,1.74-2.35,3.18-1,.69.66,1.86,1.54,1.11,2.92-.56,1-2.38,2-2.91,1.36C183.55,148.26,182,147.64,182.92,145.79Z"/><path class="cls-1" d="M191.31,116.71a2,2,0,0,1,2.93,1.3c.53,2.27-.75,3.59-3,2.83-.59-.19-2-1.37-1.29-2.77C190.21,117.52,190.84,117.16,191.31,116.71Z"/><path class="cls-1" d="M190.12,132.55a4.65,4.65,0,0,1,.94-1.11c.39-.25,1-.49,1.36-.32a4.39,4.39,0,0,1,1.89,1.6,1.7,1.7,0,0,1-.58,2.07c-.85.8-1.76,1.35-2.44.73S189.15,134.12,190.12,132.55Z"/><path class="cls-1" d="M182.76,132.74c.47-.57.72-1.07,1.12-1.3a1.92,1.92,0,0,1,1.48-.33,4.06,4.06,0,0,1,1.85,1.61,1.74,1.74,0,0,1-.56,2.1,2.37,2.37,0,0,1-2.51.83C183.34,135.4,182.7,133.66,182.76,132.74Z"/><path class="cls-1" d="M189.94,168.41c-.1-1.78.86-3.22,2.16-3.23a2.59,2.59,0,0,1,2.32,2.49c-.06,1.31-1.44,2.23-3.16,2.11L192,169l-.66-2Z"/><path class="cls-1" d="M190.9,126l1.1-1.38-.75-.76c1.87-.12,3.15.77,3.17,2.21a2.54,2.54,0,0,1-2.3,2.37c-1.39,0-2.28-1.33-2.19-3.23Z"/><path class="cls-1" d="M182.92,125.24a4.52,4.52,0,0,1,1-1.11c.43-.25,1.12-.51,1.48-.32a4.06,4.06,0,0,1,1.85,1.61,1.74,1.74,0,0,1-.56,2.1c-.85.77-1.77,1.35-2.46.78C183.35,127.61,182,126.75,182.92,125.24Z"/><path class="cls-1" d="M184.44,116.4c1.26-.58,2.26.63,2.76,1.68.85,1.76-1.91,3.91-3.12,2.88-.76-.64-2-1.53-1.3-2.95C183.05,117.46,183.7,117.09,184.44,116.4Z"/><path class="cls-1" d="M183.51,154l1.36-1.13-.9-.91c1.76-.27,3.24.6,3.34,1.94a2.54,2.54,0,0,1-2.31,2.64c-1.43,0-2.34-1.35-2.23-3.3Z"/><path class="cls-1" d="M190.71,154l1.36-1.33-.82-.84c1.72-.13,3.11.79,3.17,2.09a2.6,2.6,0,0,1-2.31,2.51c-1.31,0-2.27-1.44-2.18-3.23Z"/><path class="cls-1" d="M205.2,137.25a2.9,2.9,0,0,1,2.27,2.25,3,3,0,0,1-2.18,2.25,3.09,3.09,0,0,1-2.22-2.15A3,3,0,0,1,205.2,137.25Z"/><path class="cls-1" d="M207.47,146.74a3,3,0,0,1-2.11,2.31,2.8,2.8,0,0,1-2.29-2.23,3.19,3.19,0,0,1,2.07-2.26A2.89,2.89,0,0,1,207.47,146.74Z"/><path class="cls-1" d="M195.94,146.25c.49-.59.81-1,1.12-1.35,0,0,0-.13,0-.13.54-.08,1.22-.4,1.58-.18a4.6,4.6,0,0,1,1.63,1.73,1.78,1.78,0,0,1-.32,1.52,3,3,0,0,1-1.59,1.22C196.88,149.37,195.79,147.87,195.94,146.25Z"/><path class="cls-1" d="M197.66,95.71c1.39-.62,2.05,1,2.61,1.84.78,1.21-2,3.7-2.91,2.69-.66-.72-2.06-1.4-1.41-2.81C196.21,96.86,196.88,96.47,197.66,95.71Z"/><path class="cls-1" d="M197.36,152.1c1.53-1,2.71.65,2.83,1.32.37,2-.85,3.36-2.93,2.72-.48-.15-2.07-1.28-1.31-2.71C196.24,152.89,196.88,152.54,197.36,152.1Z"/><path class="cls-1" d="M207.47,154a3,3,0,0,1-2.1,2.32,2.85,2.85,0,0,1-2.3-2.22,3.23,3.23,0,0,1,2.06-2.28A2.91,2.91,0,0,1,207.47,154Z"/><path class="cls-1" d="M205.28,162.47a3,3,0,0,1-2.21-2.28,3.15,3.15,0,0,1,2.15-2.22,3,3,0,0,1,2.25,2.17A2.86,2.86,0,0,1,205.28,162.47Z"/><path class="cls-1" d="M207.74,167.83a12,12,0,0,1-2.39,1.88c-.72.33-2.26-1.25-2.28-2.11a2.88,2.88,0,0,1,2.19-2.32C206.08,165.28,207.45,166.65,207.74,167.83Z"/><path class="cls-1" d="M198.05,169.81a3,3,0,0,1-2.16-2.36,2.84,2.84,0,0,1,2.34-2.23,3,3,0,0,1,2.15,2.35A3,3,0,0,1,198.05,169.81Z"/><path class="cls-1" d="M197.31,103.09H199c0,1.2,2.51,1.68,1,3.29-.66.68-1.41,2.1-2.68,1.16a3.37,3.37,0,0,1-1.33-2.26C196,104.58,196.81,103.86,197.31,103.09Z"/><path class="cls-1" d="M207.47,118.83a2.84,2.84,0,0,1-2.25,2.17,2.91,2.91,0,0,1-2.15-2.24,3,3,0,0,1,2.22-2.24A2.84,2.84,0,0,1,207.47,118.83Z"/><path class="cls-1" d="M196.74,118.71l1.36-1.33-.82-.84c1.62-.1,3.07.9,3.1,2.14a2.68,2.68,0,0,1-2.3,2.38c-1.29,0-2.25-1.43-2.13-3.16Z"/><path class="cls-1" d="M205.24,131.13a2.24,2.24,0,0,1,0,4.48,3,3,0,0,1-2.2-2.19A2.91,2.91,0,0,1,205.24,131.13Z"/><path class="cls-1" d="M197.57,131.11c1.39-.68,2.52.94,2.62,1.57.37,2.1-.82,3.44-3,2.7-.54-.19-2-1.28-1.27-2.66C196.24,132.16,196.87,131.79,197.57,131.11Z"/><path class="cls-1" d="M197.35,110.64c1.67-1,2.32.65,2.92,1.5.81,1.17-2,3.7-2.88,2.71-.66-.7-2.09-1.36-1.45-2.78C196.21,111.49,196.87,111.11,197.35,110.64Z"/><path class="cls-1" d="M198.05,162.51a3,3,0,0,1-2.16-2.36,2.84,2.84,0,0,1,2.34-2.23,3,3,0,0,1,2.15,2.34A2.93,2.93,0,0,1,198.05,162.51Z"/><path class="cls-1" d="M197.38,137.47c1.51-1,2.68.67,2.81,1.34.38,2.05-.85,3.35-2.93,2.72-.48-.14-2.07-1.28-1.31-2.71C196.24,138.27,196.89,137.91,197.38,137.47Z"/><path class="cls-1" d="M195.92,125.54l1.15-1.4s0-.13,0-.13c.54-.07,1.23-.38,1.61-.15a4.6,4.6,0,0,1,1.59,1.77,1.83,1.83,0,0,1-.34,1.52,3,3,0,0,1-1.53,1.16C197,128.63,195.85,127.17,195.92,125.54Z"/><path class="cls-1" d="M205.27,123.82a2.25,2.25,0,0,1,0,4.49,3,3,0,0,1-2.16-2.22A3,3,0,0,1,205.27,123.82Z"/><path class="cls-1" d="M161,174.79h-4.38c-.79-1.56,0-2.64,1.09-3.4a2.3,2.3,0,0,1,2.15,0A2.54,2.54,0,0,1,161,174.79Z"/><path class="cls-1" d="M167,174.77c-.33,0-.7.06-1.06.06h-3.75a9.46,9.46,0,0,1,.67-2.58,2.11,2.11,0,0,1,2.83-.95A2.58,2.58,0,0,1,167,174.77Z"/><path class="cls-1" d="M204.45,110.48a3.49,3.49,0,0,1,3,1.74c.44,1.34-2.13,3.53-2.92,2.51-.56-.72-2.09-1.27-1.33-2.54.3-.52,1.4-.55,2.13-.8Z"/><path class="cls-1" d="M204.47,103.16a3.53,3.53,0,0,1,3,1.78c.42,1.35-2.17,3.51-2.93,2.47-.54-.74-2.16-1.24-1.33-2.55.34-.53,1.38-.59,2.1-.86Z"/><path class="cls-1" d="M161.13,70.2c.25,2.59-.55,3.65-2.6,3.56a2.71,2.71,0,0,1-2-3.36c.1-.23.5-.32.76-.46,0,0,.09,0,.14,0Z"/><path class="cls-1" d="M174.08,174.78h-4.73a9.33,9.33,0,0,1,.72-2.48c.63-1,1.79-1.61,2.8-.91S175,173.06,174.08,174.78Z"/><path class="cls-1" d="M180,174.75h-4.17c-.93-1.61.3-2.49,1.12-3.31a1.93,1.93,0,0,1,2,0C179.73,172.22,180.81,173.16,180,174.75Z"/><path class="cls-1" d="M182.94,174.73c-.95-1.77.51-2.45,1.25-3.34a1.69,1.69,0,0,1,1.71,0c.79.84,2.11,1.61,1.13,3.3Z"/><path class="cls-1" d="M194.15,174.73h-4.52a15.22,15.22,0,0,1,.82-2.28c.57-1,1.63-1.7,2.56-1S195.12,173.07,194.15,174.73Z"/><path class="cls-1" d="M196.09,174.68c-.94-1.7.72-2.23,1.27-3.21a1.66,1.66,0,0,1,1.56,0c.63.89,2.16,1.45,1.22,3.18Z"/><path class="cls-1" d="M205.31,174.9c-.8-.37-2.28.59-2.24-1.31a2.2,2.2,0,0,1,4.4,0C207.51,175.43,206.11,174.56,205.31,174.9Z"/><path class="cls-1" d="M130.88,65.31h2.65c.12,1.24-1.4,1.53-4.48.86l.43-2.09Z"/><path class="cls-1" d="M199.11,94.34h-1.73a10.7,10.7,0,0,1-.91-1.17,4.92,4.92,0,0,1-.55-1.42c0-.19.2-.46.32-.69.26.26.51.54.78.78.69.58,1.41,1.14,2.08,1.75C199.21,93.69,199.11,94,199.11,94.34Z"/><path class="cls-1" d="M219.5,145.62c-.1,1.1.92,2.62-1.16,2.62-1.22,0-1.43-.65-1.33-1.64C217.22,144.58,218.65,146,219.5,145.62Z"/><path class="cls-1" d="M211.38,145.34a6.65,6.65,0,0,1,2.34.68c.27.21.13,1.48-.23,1.92s-1.55.5-1.74.24a7.78,7.78,0,0,1-.82-2.35Z"/><path class="cls-1" d="M211.39,138a6.76,6.76,0,0,1,2.33.7c.27.21.13,1.48-.24,1.92s-1.55.48-1.75.22a7.75,7.75,0,0,1-.79-2.35Z"/><path class="cls-1" d="M219.78,138.09c-.45,1.23.71,2.68-1.25,2.84-1.18.09-1.64-.41-1.53-1.59C217.18,137.34,218.58,138.55,219.78,138.09Z"/><path class="cls-1" d="M219.56,161.35c-1-.17-2.42,1-2.56-1-.09-1.22.42-1.65,1.56-1.55C220.57,159,219.19,160.47,219.56,161.35Z"/><path class="cls-1" d="M211,161.24a6.78,6.78,0,0,1,.72-2.37c.2-.27,1.44-.1,1.86.27s.46,1.61.2,1.8a7.07,7.07,0,0,1-2.31.77Z"/><path class="cls-1" d="M224.14,132.18h2.6a7.89,7.89,0,0,1-.3,2.44,2,2,0,0,1-1.77,0A7.52,7.52,0,0,1,224.14,132.18Z"/><path class="cls-1" d="M219.82,131.94c-.55,1.26.74,2.78-1.35,2.94-1.26.09-1.55-.57-1.47-1.66C217.15,131.21,218.57,132.41,219.82,131.94Z"/><path class="cls-1" d="M219.55,168.65c-1.06-.1-2.54,1-2.56-1.16,0-1.24.6-1.47,1.59-1.38C220.57,166.3,219.2,167.78,219.55,168.65Z"/><path class="cls-1" d="M219.49,152.92c-.16,1,1,2.47-1,2.62-1.19.09-1.62-.43-1.52-1.6C217.17,151.88,218.63,153.29,219.49,152.92Z"/><path class="cls-1" d="M211,168.56a7.27,7.27,0,0,1,.7-2.38c.21-.27,1.45-.11,1.87.26s.47,1.6.21,1.79a7.34,7.34,0,0,1-2.31.8Z"/><path class="cls-1" d="M211.43,152.62a6.69,6.69,0,0,1,2.31.76c.26.21.09,1.48-.28,1.9s-1.58.46-1.76.19a7.65,7.65,0,0,1-.74-2.37Z"/><path class="cls-1" d="M219.49,117.42v2.92c-.83-.15-1.76,0-2.21-.48a2,2,0,0,1-.1-2C217.65,117.48,218.59,117.57,219.49,117.42Z"/><path class="cls-1" d="M211.43,117.27a6.17,6.17,0,0,1,2.31.76c.28.24.14,1.54-.24,1.92s-1.69.49-1.87.21a7.24,7.24,0,0,1-.64-2.45Z"/><path class="cls-1" d="M211.23,174.88c-.22-2.6-.13-2.74,1.21-2.79s1.6.72,1.44,1.76C213.58,175.77,212.17,174.44,211.23,174.88Z"/><path class="cls-1" d="M211.45,124.56a6.28,6.28,0,0,1,2.29.79c.29.24.13,1.55-.25,1.92s-1.7.47-1.88.19A7.29,7.29,0,0,1,211,125Z"/><path class="cls-1" d="M219.82,124.63c-.55,1.26.74,2.79-1.35,2.94-1.26.1-1.55-.56-1.47-1.65C217.15,123.9,218.57,125.11,219.82,124.63Z"/><path class="cls-1" d="M219.79,174.76H217a6.63,6.63,0,0,1,.46-2.38,1.85,1.85,0,0,1,1.78-.07A7.54,7.54,0,0,1,219.79,174.76Z"/><path class="cls-1" d="M211.48,131.85a6.15,6.15,0,0,1,2.27.84c.28.25.11,1.55-.28,1.91s-1.72.44-1.89.15a7.39,7.39,0,0,1-.57-2.47Z"/><path class="cls-1" d="M212.41,114.16c-1.12.19-1.28-.47-1.31-1.45s.29-1.45,1.37-1.43,1.44.44,1.44,1.46S213.49,114.29,212.41,114.16Z"/><path class="cls-1" d="M226.88,174.78h-2.67a6,6,0,0,1,.39-2.33,1.85,1.85,0,0,1,1.78-.07A6.64,6.64,0,0,1,226.88,174.78Z"/><path class="cls-1" d="M233.8,172.47v2.29h-2.11C231,172.38,231.38,172,233.8,172.47Z"/><path class="cls-1" d="M175.78,77.48l1.47-.07c.66.58,1.1.93,1.5,1.33.17.17.37.47.33.67a.71.71,0,0,1-.58.41c-.69-.13-1.73.61-2-.86-.07-.4-.73-.7-1.11-1Z"/><path class="cls-1" d="M162.53,71.43h2.07l-.15.26a7.1,7.1,0,0,1,1.21,1c.18.22.13.65.18,1-.83,0-1.79.67-2.41-.55a6.6,6.6,0,0,0-1.18-1.31Z"/><path class="cls-1" d="M108.55,65.31c1.74,0,3.06,0,4.38,0,.2,0,.39.29.58.45-.19.21-.36.6-.56.61a32.34,32.34,0,0,1-3.55,0C109.18,66.36,109,65.87,108.55,65.31Z"/><path class="cls-1" d="M224.36,138.32h2.29v2.37h-2.29Z"/><path class="cls-1" d="M231.56,159h2.22v2.33h-2.22Z"/><path class="cls-1" d="M226.69,159v2.34h-2.32V159Z"/><path class="cls-1" d="M138.24,65.27a5.14,5.14,0,0,1,1,0c.55.19,1.09.41,1.63.62a7.26,7.26,0,0,1-1.56.55,9.35,9.35,0,0,1-2.11-.09c-.25,0-.48-.3-.72-.47a2.82,2.82,0,0,1,.8-.54A4.37,4.37,0,0,1,138.24,65.27Z"/><path class="cls-1" d="M226.69,145.64V148h-2.32v-2.34Z"/><path class="cls-1" d="M226.66,155.36h-2.25V153h2.25Z"/><path class="cls-1" d="M231.55,166.34h2.24v2.29h-2.24Z"/><path class="cls-1" d="M226.69,166.32v2.35h-2.32v-2.35Z"/><path class="cls-1" d="M233.79,153v2.24h-2.21V153Z"/><circle class="cls-2" cx="37.89" cy="72.65" r="5.98"/><rect class="cls-3" x="181.16" y="52.89" width="10.5" height="10.5" transform="translate(13.49 148.84) rotate(-45)"/><line class="cls-4" x1="101.53" y1="23.05" x2="104.34" y2="25.87"/><line class="cls-4" x1="110.07" y1="31.59" x2="112.88" y2="34.4"/><line class="cls-4" x1="113.06" y1="22.78" x2="110.24" y2="25.59"/><line class="cls-4" x1="104.24" y1="31.6" x2="101.42" y2="34.41"/><rect class="cls-5" x="66.28" y="69.93" width="12.79" height="114.19"/><path class="cls-6" d="M191.59,87.94V188.82a8.43,8.43,0,0,1-8.44,8.43H80.69a8.42,8.42,0,0,1-8.43-8.43V60.21a8.42,8.42,0,0,1,8.43-8.43h75.14"/><path class="cls-7" d="M80.84,175.47H182.94a8.65,8.65,0,0,1,8.65,8.65v13.21a0,0,0,0,1,0,0H72.19a0,0,0,0,1,0,0V184.11A8.65,8.65,0,0,1,80.84,175.47Z" transform="translate(263.78 372.79) rotate(180)"/><line class="cls-8" x1="108.3" y1="45.78" x2="148.83" y2="45.78"/><line class="cls-8" x1="91.73" y1="45.78" x2="100.36" y2="45.78"/><path class="cls-8" d="M184.59,155.49v27.33a8.43,8.43,0,0,1-8.44,8.43H73.69a8.42,8.42,0,0,1-8.43-8.43V54.21a8.42,8.42,0,0,1,8.43-8.43H83.8"/><line class="cls-8" x1="184.59" y1="81.94" x2="184.59" y2="87.71"/><line class="cls-8" x1="148.83" y1="45.78" x2="184.59" y2="81.94"/><line class="cls-8" x1="148.83" y1="45.78" x2="148.83" y2="84.01"/><line class="cls-8" x1="148.83" y1="83.98" x2="184.59" y2="83.98"/><line class="cls-8" x1="104.42" y1="71.01" x2="135.42" y2="71.01"/><line class="cls-8" x1="82.58" y1="71.01" x2="94.67" y2="71.01"/><line class="cls-8" x1="82.58" y1="87.01" x2="135.42" y2="87.01"/><line class="cls-8" x1="82.58" y1="118.01" x2="165.42" y2="118.01"/><line class="cls-8" x1="122.92" y1="103.51" x2="165.42" y2="103.51"/><line class="cls-8" x1="107.96" y1="103.51" x2="114.8" y2="103.51"/><line class="cls-8" x1="82.42" y1="103.51" x2="99.59" y2="103.51"/><line class="cls-8" x1="82.58" y1="134.01" x2="165.42" y2="134.01"/><line class="cls-8" x1="82.58" y1="150.01" x2="165.42" y2="150.01"/><line class="cls-8" x1="82.58" y1="166.01" x2="165.42" y2="166.01"/><polygon class="cls-5" points="154.52 178.65 107.31 137.53 130.71 126.58 168.54 162.56 154.52 178.65"/><polygon class="cls-5" points="155.14 150.78 149 144.62 194.36 85.69 200.26 89.69 155.14 150.78"/><path class="cls-9" d="M215.81,73.46a1.37,1.37,0,0,0-2.35-.73q-5.11,5.44-10.22,11.17a536.31,536.31,0,0,0-47.36,61.81l-17-18.74a1.31,1.31,0,0,0-1.5-.32l-24.67,11.06a.42.42,0,0,0-.06.74,210.41,210.41,0,0,1,32.37,24.4.57.57,0,0,1-.08.13l15.62,15.89a1.57,1.57,0,0,0,2.46-.29l4.06-6.69a430.67,430.67,0,0,1,36.93-50.76c8.53-10,14.24-15.71,15.89-17.33a1.34,1.34,0,0,0,.39-1.18q-1.14-7.44-2.3-14.86Z"/><path class="cls-8" d="M183.69,98.16q-3,3.68-6,7.37"/><path class="cls-8" d="M177.69,105.53c-8.1,10.59-22.51,30-29.38,40.5l-17.6-19.46-26.27,11.78a211.18,211.18,0,0,1,33.05,24.82.57.57,0,0,0-.08.13l17,17.32,5.11-8.41a429.53,429.53,0,0,1,36.93-50.76c10.22-12,16.39-17.82,16.39-17.82q-1.22-7.77-2.42-15.55L207.81,71q-6.09,6.4-12.15,13.2-6.18,7-12,14"/><text class="cls-10" transform="translate(234.32 124.15)">完结课程</text></svg>