<svg id="图层_1" data-name="图层 1" xmlns="http://www.w3.org/2000/svg" viewBox="0 0 400 220.1"><defs><style>.cls-1{fill:#ff80b9;}.cls-11,.cls-2,.cls-3,.cls-4,.cls-7,.cls-9{fill:none;}.cls-2{stroke:#ff31ff;}.cls-11,.cls-2,.cls-3,.cls-4,.cls-7,.cls-8,.cls-9{stroke-linecap:round;stroke-linejoin:round;}.cls-11,.cls-2,.cls-3,.cls-4,.cls-7,.cls-8{stroke-width:5px;}.cls-3{stroke:#00ff67;}.cls-4{stroke:#ffce00;}.cls-5{fill:#fff;}.cls-6{fill:#ffd814;}.cls-7,.cls-8{stroke:#083357;}.cls-8{fill:#ffce00;}.cls-11,.cls-9{stroke:#1e2e60;}.cls-9{stroke-width:6px;}.cls-10{fill:#e52c2c;}.cls-12,.cls-13{fill:#f91960;}.cls-13{font-size:38.07px;font-family:FZLTTHK--GBK1-0, Lantinghei SC;}</style></defs><title>图标</title><path class="cls-1" d="M29.09,121.18l.26-2.34a5.54,5.54,0,0,0,2.41-3,5.33,5.33,0,0,1,1.24-2,30.81,30.81,0,0,1,2.36-2.48c.21-.2.62-.18,1-.27l.13-2.06.23.19c.69-.75,1.37-1.51,2-2.27.54-.6,1.06-1.22,1.6-1.81.69-.74,1.4-1.46,2.1-2.19.09-.09.22-.22.33-.22,1.31,0,1.87-.58,2.06-1.94.09-.62.9-1.16,1.42-1.69a14,14,0,0,1,1.17-1,17,17,0,0,0,3.67-1.66,16.11,16.11,0,0,0,2.46-3l-.31-.29,2.38-.26c-.38,2.78.4,3.29,3.22,2.14V93l-3.25-.15A3.92,3.92,0,0,1,56,91.75c.64-.76,1.37-1.45,2.29-2.4l.58,0c.33,0,.67,0,.86-.29a5.67,5.67,0,0,1,1.38-1c.69-.23,1.31-.23,1.66.79.13.37,1.19.42,1.55.53,1.53-1.47,2.19-3,1.73-4.77,1-.45,2.54.52,2.59-1.38,1-.14,2.14.55,2.68-.94.11-.31,1.13-.27,1.53-.35.39-.49.72-1.18.95-1.14,1.2.17,2.83-1.06,3.43,1A16.39,16.39,0,0,0,79,80.5c.1-.09-.13-.62-.3-.9a12,12,0,0,0-1-1.23h3.64l-.12-.46c.54-.24,1.09-.47,1.63-.72s1-.48,1.43-.72a6.43,6.43,0,0,1,1.26-.57c.81-.19,1.87.39,2.22-1.06.11-.49,1.91,0,2.26.54a3.5,3.5,0,0,0,.73.76,1.3,1.3,0,0,1-.08,2.07,19.5,19.5,0,0,0-1.81,1.58.68.68,0,0,0,0,.66c.62.66,1.34,1.22,1.93,1.9.24.28.45.93.31,1.14A13.77,13.77,0,0,1,88.82,86c-.15.79-.79,1.82.83,2.2.6.14,1,1.19,1.46,1.86a.92.92,0,0,1,0,.84c-.7.87-1.47,1.68-2.43,2.75,0,.41-.71,1.43.88,1.84.66.17,1.11,1.33,1.58,2.08a.88.88,0,0,1-.1.83c-.64.7-1.37,1.31-2,2a.89.89,0,0,0-.13.83c.6.66,1.34,1.2,1.93,1.88a1.36,1.36,0,0,1,.26,1.17c-.4.74-.89,1.83-1.51,2-1.64.35-.79,1.45-.93,1.84,1,1.06,1.75,1.86,2.44,2.74a1,1,0,0,1-.06,1,27.11,27.11,0,0,0-2,2,6.29,6.29,0,0,0-.6,2l.49-.13c.74.84,1.51,1.65,2.19,2.53a1,1,0,0,1-.09,1c-.63.7-1.38,1.31-2,2-.16.16-.26.64-.16.75.56.58,1.25,1,1.76,1.63.31.38.66,1.1.51,1.44a5.63,5.63,0,0,1-1.55,2c-1,.79-1.06.7-.92,2a31.84,31.84,0,0,1,2.4,2.25,1.29,1.29,0,0,1,0,1.22c-.55.73-1.36,1.26-1.9,2a6.65,6.65,0,0,0-.7,1.73,32.45,32.45,0,0,1,2.57,2.38,1.29,1.29,0,0,1,0,1.22c-.55.74-1.27,1.34-1.88,2-.18.2-.41.65-.33.75a11,11,0,0,0,1.58,1.68c1,.79.79,1.25.14,2.22s-2.25,1.23-2,2.76c.06.36.44.69.72,1a18.05,18.05,0,0,1,1.8,2,1.46,1.46,0,0,1-.28,1.3c-.6.67-1.52,1.08-2,1.81a2.26,2.26,0,0,0,0,2c.48.72,1.46,1.07,2,1.76a1.84,1.84,0,0,1,0,1.68,17.17,17.17,0,0,1-2.12,2.23c.75.77,1.52,1.47,2.18,2.27a1.38,1.38,0,0,1,.16,1.22,22.28,22.28,0,0,1-1.68,2c-.31.37-.81.78-.81,1.18s.46.83.77,1.22c.57.72,1.23,1.37,1.74,2.14A1.16,1.16,0,0,1,91,174c-.6.67-1.33,1.2-2,1.84-.15.16-.27.61-.17.73.49.61,1.12,1.11,1.59,1.73a2.3,2.3,0,0,1,.62,1.5c-.07.33-.85.72-1.31.73-3.76.06-7.52.05-11.27.05H11c-.22,0-.45-.05-.86-.09.39-1.31-.72-2.84,1-3.78.11-.06.08-.68-.07-.87-.71-.86-1.42-4.13-.7-4.55,1.91-1.14.87-2.81,1-4.24s.05-2.81.08-4.23c0-.75-.43-1.72.88-1.89.1,0,.19-.6.2-.92,0-.88,0-1.75,0-2.63,0-.29,0-.79.1-.83,2.07-.78.73-2.57,1.13-3.83a17,17,0,0,1,.7-1.65l.53.12c0-.82,0-1.64,0-2.46s.37-1,1.06-.8a11.56,11.56,0,0,0,.09,1.56.9.9,0,0,0,.47.56c.13.05.53-.15.54-.26a5,5,0,0,0-.05-1.68c0-.13-.71-.1-1.1-.14,0-.92,0-1.85.12-2.76a5.7,5.7,0,0,1,.61-1.37l.51.11v-3.17l.47.12c.27-.67.52-1.35.82-2a4,4,0,0,1,.91-1.22c.52-.77-.45-2.34,1.33-2.23.58-.87-.78-2.55,1.32-2.42v-2.13c2.27-.9,2.83-2.62,2.32-4.73,1.4-1,2.76-1.8,2.47-3.45a10.79,10.79,0,0,1,1.27-1.43c.23-.18.65-.12,1-.17.19,1.81,1.43.92,2.31,1.05C31.53,120.66,31,120.46,29.09,121.18ZM81.88,86l-.37,0c0,.85-.53,2,1,2.13.13,0,.16.54.35.7a2.29,2.29,0,0,0,1.08.64,1.57,1.57,0,0,0,1.1-.39,10.62,10.62,0,0,0,1.1-1.45l.23.15v-2l-.36.17a9.47,9.47,0,0,0-.92-1.17,1.68,1.68,0,0,0-1-.56,2.07,2.07,0,0,0-1.21.5A7.78,7.78,0,0,0,81.88,86Zm4.75,7.21-.45.1a10.73,10.73,0,0,0-1.05-1.27,1.7,1.7,0,0,0-1-.52,2.08,2.08,0,0,0-1.18.53,10.52,10.52,0,0,0-1.11,1.27c-1.35,1.78.78,2.4,1.48,3.2,1.29,1.45,1.73-1,2.77-1.36C86.42,95.06,86.45,93.92,86.63,93.24Zm-.19,20.93c-.53-.49-.89-.84-1.27-1.16s-.73-.79-1.06-.76-.85.46-1.24.77c-.16.13-.2.55-.34.57-1.65.21-1,1.36-.8,2.14A4.67,4.67,0,0,1,82.91,117a1.53,1.53,0,0,0,2.21,0c.32-.5.72-1,1.08-1.42l.24.15Zm-.28-5.82c1.33-1.74-.7-2.48-1.41-3.23-1.34-1.4-1.71,1.31-3,1.43-.19,0-.27,1.24-.4,1.91l.41-.12a10.46,10.46,0,0,0,1.13,1.26,2.17,2.17,0,0,0,1.17.54,1.61,1.61,0,0,0,1-.51A10.76,10.76,0,0,0,86.16,108.35Zm.78,61.26c-.57-.56-.92-.87-1.24-1.21a6.34,6.34,0,0,0-.54-.69c-.32-.25-.7-.61-1-.6a2.55,2.55,0,0,0-1.22.58,3,3,0,0,0-.54.71c-.29.39-.81.77-.82,1.16s.46.82.75,1.22a2.59,2.59,0,0,0,.59.68c.4.29.84.7,1.28.71s.69-.49,1-.78c.19-.17.33-.39.51-.57C86,170.48,86.37,170.16,86.94,169.61Zm0-20.69c-.59-.54-.94-.85-1.27-1.18s-.31-.42-.5-.58-.7-.78-1-.77-.86.44-1.26.73a2.61,2.61,0,0,0-.61.67c-.28.4-.71.81-.74,1.24s.44.75.71,1.11a2.9,2.9,0,0,0,.64.62c.4.27.83.67,1.26.68s.71-.46,1.05-.74c.19-.16.35-.36.53-.54Zm-13.6-12.79c.66-1.35-.88-2.27-1.71-2.94-1.35-1.12-1.86,1.11-3,1.47a2.52,2.52,0,0,0-.1,1.69c1.13.46,1.63,2.48,3.19,1.31Zm0-7.3c.66-1.35-.88-2.27-1.71-3-1.35-1.11-1.86,1.11-3,1.47a2.53,2.53,0,0,0-.1,1.69c1.13.47,1.63,2.49,3.19,1.32ZM87,156.23l-1.21-1.16-.57-.52c-.37-.31-.74-.84-1.11-.84s-.83.46-1.22.76a3.18,3.18,0,0,0-.64.63c-.28.36-.72.77-.7,1.13s.47.82.76,1.22a2.47,2.47,0,0,0,.59.65,3.19,3.19,0,0,0,1.31.66c.31,0,.68-.4,1-.67s.28-.42.45-.6C86,157.13,86.36,156.8,87,156.23Zm-.85-19.8c1.16-1.81-.64-2.57-1.45-3.33-1.28-1.19-1.72,1.08-2.79,1.42-.34.11-.36,1.29-.52,2l.45-.1c.37.42.68,1.09,1.14,1.22a4,4,0,0,0,2.17-.05C85.53,137.45,85.79,136.82,86.12,136.43ZM71.76,110c.28-.5.47-1.19.71-1.21a.86.86,0,0,0,.77-1.33,6.46,6.46,0,0,0-1.74-2.36,1.12,1.12,0,0,0-1.78.71c0,.24-.43.4-.62.63a2.84,2.84,0,0,0-.61.92c-.26,1,.86,1.17,1,1.57C70,110.26,70.83,110,71.76,110Zm.09,43.92c-1.87-1-2.45.9-3.2,1.65-1.2,1.21.83,1.78,1.24,2.74.17.4,1.26.4,1.82.56.63-1,1.48-1.81,1.47-2.59S72.33,154.68,71.85,153.9Zm0-7.36c-1.8-.9-2.46.92-3.2,1.76-1.1,1.25,1,1.74,1.31,2.76.13.35,1.28.32,1.84.44.61-1,1.45-1.84,1.42-2.62S72.3,147.32,71.81,146.54Zm1.75-52.72A10.8,10.8,0,0,0,71,91.76c-.87-.36-2.58,1.45-2.57,2.42A3.59,3.59,0,0,0,71,96.7C71.74,96.72,73.29,95,73.56,93.82Zm-2.1-9.47c-1.42-1-2.06,1-2.79,1.71-1.25,1.17.74,1.88,1.21,2.82.22.44,1.24.46,1.9.67.23-.68.31-1.38.5-1.41,1.56-.25.87-1.39.93-1.9ZM81.35,129c1.11.72,1.88,1.62,2.63,1.61s1.6-.9,2.34-1.36c1.06-1.91-.8-2.68-1.59-3.46-1.27-1.25-1.76,1-2.78,1.36C81.56,127.33,81.52,128.45,81.35,129Zm-9.44-16.52c-1.89-1.12-2.51.86-3.27,1.61-1.15,1.15.66,1.85,1.22,2.65.31.46,1.24.48,1.58.59l1.61-1.73C74.45,113.94,71.69,113.8,71.91,112.51Zm0,54.81c-1.84-1-2.52.79-3.25,1.56-1.17,1.24.8,1.82,1.23,2.76.2.43,1.24.45,1.78.62.65-1,1.51-1.82,1.52-2.62S72.35,168.07,71.9,167.32Zm-7.24-8.74c.24-.41.42-1.06.69-1.1a.92.92,0,0,0,.71-1.41,12.52,12.52,0,0,0-1.72-2.28c-.08-.1-.37,0-.55,0-1.18-.32-1,1.14-1.66,1.35a1.09,1.09,0,0,0-.6,1.71C62.46,157.55,62.85,159.42,64.66,158.58Zm-.09,8.94c-1.67-1.13-2,.87-3,1.39-.19.09-.1,1.11.1,1.59a2.83,2.83,0,0,0,1.11,1.26c.45.26,1.25.51,1.55.28a7,7,0,0,0,1.74-2.1c.17-.31-.08-1-.33-1.4A5.48,5.48,0,0,0,64.57,167.52Zm.15-20.87c-1.88-1-2.41.86-3.12,1.62-1.08,1.16.74,1.8,1.18,2.69.21.42,1.26.39,1.77.52.64-1,1.48-1.77,1.46-2.49S65.17,147.4,64.72,146.65ZM66,136.2c.13-1.11-1-3.07-2-3.1a3,3,0,0,0-2.64,2.62,2.74,2.74,0,0,0,2.95,2.17Zm-.2-7.11c1.21-1.72-1.17-1.94-1.12-3.21-1.85-.11-3.35,1.06-3.29,2.51,0,1.26,1.65,2.33,3,2.21Zm-1.25-16.24.09-.39c-1.72-.69-2.38.91-3.13,1.77s1.11,3.13,2.49,3a1.33,1.33,0,0,0,.81-.38,11.37,11.37,0,0,0,.92-1.24l.38.14a6.23,6.23,0,0,0-.29-1.92C65.65,113.41,65,113.17,64.59,112.85Zm0-20.76c-1.48-1.09-2.23.52-2.92,1.27-1,1.11.49,1.92,1.11,2.68.38.46,1.23.53,1.56.65l1.83-2.07a4.29,4.29,0,0,0-.29-1.52C65.6,92.65,65,92.42,64.54,92.09ZM66.07,108c.08-.91.08-.89-.87-1.64-.16-.13-.16-.45-.31-.59a3.16,3.16,0,0,0-1-.69c-1.18-.41-1.18,1-1.82,1.39-.35.24-.76,1-.62,1.28a6.22,6.22,0,0,0,1.64,2.09c.33.26,1.06,0,1.61,0,.05,0,.08-.16.13-.23Zm-15,22.63c.81-.79,1.49-1.18,1.78-1.77.68-1.38-.84-1.85-1.36-2.69-.69-1.09-3.85,1.59-3,2.66C49.19,129.63,49.82,131.08,51.08,130.62Zm.42-20.85-.59-.61,1.32-1.34.59.6c.15-1.35-.92-3.14-1.9-3.2a3,3,0,0,0-2.5,2.44C48.47,108.81,50.06,109.9,51.5,109.77Zm.43,5,.89.91c.15-1.35-.92-3.15-1.9-3.21a3,3,0,0,0-2.5,2.44c0,1.14,1.63,2.24,3.08,2.12l-.89-.9Zm-.47,23c.23-.35.47-.71.7-1.08s.8-.91.7-1.2a7.94,7.94,0,0,0-1.13-1.65,1.3,1.3,0,0,0-2.07-.16,3.75,3.75,0,0,0-.68.83c-.23.55-.62,1.54-.45,1.67C49.42,136.88,49.92,138.44,51.46,137.79Zm-.26,16.15c-1.1-.05-2.77,1.18-2.78,2.28s1.69,2.44,2.76,2.35c.58-.56,1.16-.88,1.31-1.35a3.24,3.24,0,0,0,0-1.95C52.32,154.81,51.75,154.49,51.2,153.94Zm0,13.35c-1.07-.08-2.76,1.19-2.76,2.35s1.67,2.34,2.73,2.29c.65-.59,1.28-.9,1.45-1.39a3,3,0,0,0-.1-1.89C52.32,168.18,51.76,167.86,51.18,167.29Zm0-20.67c-1.2,0-2.77,1.31-2.7,2.41s1.74,2.3,2.75,2.25c.6-.58,1.22-.91,1.4-1.42a3,3,0,0,0-.07-1.88C52.33,147.52,51.77,147.22,51.13,146.62ZM84,103.26l2.31-2.35a.17.17,0,0,0,0-.14,9.74,9.74,0,0,0-2-1.89,1,1,0,0,0-1.54.91c0,.17-.14.43-.27.46-1.48.42-1.33.79,0,1.19.12,0,.17.32.28.46C83.19,102.31,83.54,102.7,84,103.26Zm-38,25a12,12,0,0,0-2-2.17c-.55-.35-2,1.25-2,2.07,0,.65,1.58,2.53,2,2.25A14.85,14.85,0,0,0,46.07,128.31Zm0,7.26c-.84-.87-1.39-1.75-2.16-2.12s-2,1.25-1.94,2.13c0,.59,1.54,2.42,1.91,2.18A15,15,0,0,0,46.12,135.57ZM84,123.87l2.36-2.3a23.3,23.3,0,0,0-2.17-2c-.29-.22-2.65,1.77-2.47,2A30.13,30.13,0,0,0,84,123.87ZM46.1,114.82A10.87,10.87,0,0,0,44,112.7c-.56-.31-2,1.37-1.94,2.17,0,.56,1.6,2.4,1.93,2.16A16.9,16.9,0,0,0,46.1,114.82ZM46,107.55a11.53,11.53,0,0,0-2-2.16c-.54-.34-2,1.29-2,2.12s1.61,2.52,2,2.22A15.58,15.58,0,0,0,46,107.55Zm38-25c.88-1,1.61-1.71,2.24-2.52.15-.19-1.84-1.84-2.24-1.84s-2.59,1.65-2.38,1.9C82.36,81,83.14,81.65,84.08,82.6ZM81.6,176.44c.43.28,1.09.47,1.13.76.17,1.2,1.06,1.39,1.74,1.05a7.08,7.08,0,0,0,1.85-1.92,2,2,0,0,0-.47-.55c-.17-.14-.57-.18-.58-.3-.17-1.75-1.34-1-1.87-1Zm1.83-32.32c1,.11,1,.1,1.83-1,.12-.16.42-.17.59-.31a1.21,1.21,0,0,0,.47-.57c.06-.36-2-2-2.38-2a1.9,1.9,0,0,0-1,.42,15,15,0,0,0-1.18,1.63ZM72,119.83c-2.1-1-2.18,1.14-3.18,1.7l1.42,1.79h1.27c.68-.62,1.47-1,1.49-1.44s-.59-1.09-.91-1.65A1.44,1.44,0,0,1,72,119.83ZM44,146.77a2.88,2.88,0,0,1-.67.45c-1,.34-1.7,1-1.28,2a7.53,7.53,0,0,0,1.74,2,.54.54,0,0,0,.52-.05,6.76,6.76,0,0,0,1.27-1.68,1.8,1.8,0,0,0-.25-1.42A7.15,7.15,0,0,0,44,146.77ZM44,154.08a2.56,2.56,0,0,1-.58.42c-.9.36-1.74.92-1.31,2a7.15,7.15,0,0,0,1.7,2c.09.09.5,0,.62-.11A4.42,4.42,0,0,0,45.54,157a2.2,2.2,0,0,0-.15-1.57C45.14,154.91,44.58,154.61,44,154.08Zm2,15.61a16.31,16.31,0,0,0-2-2.34c-.31-.25-1.93,1.61-1.94,2.2,0,.84,1.33,2.47,1.95,2.16S45.24,170.48,46,169.69Zm35.79-6.58c.23.17.92.41,1,.74a1.13,1.13,0,0,0,1.74,1c.73-.37,1.23-1.24,1.83-1.9a.15.15,0,0,0,0-.14A8,8,0,0,0,84.67,161a1.86,1.86,0,0,0-1.66.29A6.75,6.75,0,0,0,81.8,163.11Zm-4.42-4.23c.36-.59.55-1.26.82-1.3,1.68-.21,1-1.36,1-2l-2-1.72c-.59.79-1.61,1.55-1.6,2.29S76.65,157.8,77.38,158.88Zm.19,13c.16-.25.35-.9.63-.95,1.58-.26,1.09-1.34,1-2l-1.83-1.54c-.49.39-1.16.66-1.36,1.14a3.23,3.23,0,0,0-.11,2.12C76.15,171.14,76.93,171.41,77.57,171.88Zm-.11-25.13c-.55.41-1.3.68-1.53,1.2A2.84,2.84,0,0,0,76,150c.23.5,1,.77,1.52,1.17l1.79-1.52v-1.38ZM79,129.14c1.17-2-1-2.08-1.76-3.6,0,1.67-2.16,1.29-1.64,2.78a9.86,9.86,0,0,0,1.69,2.3Zm.26,7.13v-1.49l-2-1.49c-.19.31-.34.84-.59.89-1.5.31-1.12,1.36-1,2.09l1.81,1.49Zm-7.49,38.5c-1.8-1.13-2,.84-2.94,1.57.92.78,1.25,2.6,2.67,1.9L73,176.33Zm-.11-34.32c-.85-.13-.85-.13-2.71,1.71l1.16,1.92h1.53L73,142.23Zm-1.48,20.64L69,162.92l1.13,1.86h1.5L73,162.93l-1.33-1.84ZM77,105c.51,1.71-1.65,1-1.53,2.58s1.87,1,1.81,2.2l1.93-1.48v-1.42Zm.2,7.55c-.14.31-.2.68-.42.87s-.82.2-.84.35a4.34,4.34,0,0,0,0,2.15c.2.47,1,.7,1.54,1.06l1.76-1.42v-1.44ZM77.45,92,75.58,93.5c-1,1.71,1.45,1.73,1.72,2.9l1.94-1.52V93.49ZM75.56,86.3c-1,1.64,1.54,1.57,1.69,2.87l2-1.61V86.13l-1.88-1.48Zm-3.86,13c-1.72-1.15-1.87,1-3.1,1.55,1.21.64,1.43,2.69,3.2,1.6.29-.42.73-.73,1-1.15a1,1,0,0,0,0-.87A8.46,8.46,0,0,0,71.7,99.28ZM64.45,161c-.43.11-1.53.12-1.63.45a14.15,14.15,0,0,0-.3,3.27h2L65.69,163Zm0-41.29c-2.19-.11-2.66.86-1.45,3.56h1.51l1.38-1.69Zm.07,20.76c-2.26-.17-2.69.7-1.53,3.55h1.53l1.27-1.8Zm1.2,35.89-1.09-1.82H62.88c-1,3-.54,3.82,1.65,3.49ZM64.41,102.6l1.41-1.73L64.49,99.1c-1.61-.1-2.11.26-2.18,1.67S62.94,102.68,64.41,102.6Zm-5.66,34.3.37-.48c-.26-.66-.37-1.74-.79-1.88a4.56,4.56,0,0,0-2.6.16,2.92,2.92,0,0,0-.1,1.65A25.14,25.14,0,0,0,58.75,136.9ZM58.87,114c-2.94-.92-3.68-.49-3.16,2h3.16ZM55.7,129.4h3.13c0-.47.09-.8.09-1.13s-.05-.65-.08-1C56,126.4,55.2,126.89,55.7,129.4Zm0-20.75h3.13v-2.08C55.77,105.85,55.22,106.19,55.7,108.65Zm3.17,59.56a25,25,0,0,0-3.2.69,2,2,0,0,0,.06,1.53,2.47,2.47,0,0,0,3.14,0Zm0-20.1c-1.21-.66-2.33-.76-3.24.13a1.52,1.52,0,0,0,.06,1.46,2.62,2.62,0,0,0,3.18.13Zm0,7.3c-1.21-.65-2.32-.76-3.23.12a1.51,1.51,0,0,0,0,1.47c.94.88,2.06.7,3.19.14Zm-7,5.94-.51-.38c-.59.32-1.53.51-1.68,1a4.07,4.07,0,0,0,.22,2.42c.08.24,1.48.27,1.49.22C51.62,163.52,51.74,162.43,51.88,161.35Zm-.17,13c-.82.22-1.84.24-1.94.57a4.76,4.76,0,0,0,0,2.62c.1.31,1.12.34,2,.56Zm0-75.49c-.86.31-1.84.38-2,.77a3.77,3.77,0,0,0,0,2.46c.15.36,1.17.35,2,.55Zm0,41.54c-.83.22-1.85.25-1.94.57a4.67,4.67,0,0,0,0,2.62c.09.32,1.11.35,1.94.57Zm0-20.87c-.93.35-1.86.43-2,.8a3.87,3.87,0,0,0,0,2.47c.14.37,1.16.37,2,.59Zm-22.67,9.75.42.4c.73-.19,1.67-.17,2.1-.64a2.07,2.07,0,0,0-.18-2,1.79,1.79,0,0,0-1.77-.09A6.38,6.38,0,0,0,29.05,129.31Zm.25,7.54c.91-.32,2.28.88,2.43-1,.07-.91.06-1.79-1.28-1.67S29,134.37,29.3,136.85ZM29,157.24l.38.43c.73-.15,1.67-.09,2.11-.54a2.06,2.06,0,0,0-.13-2,1.78,1.78,0,0,0-1.77-.09A5.56,5.56,0,0,0,29,157.24Zm.19,13.89c.95-.23,1.84-.21,2.32-.65a1.91,1.91,0,0,0-.06-1.84c-.54-.38-1.43-.27-2.26-.39ZM29.05,150l.38.41a5.5,5.5,0,0,0,2.15-.68,1.92,1.92,0,0,0-.15-1.84c-.33-.35-1.56-.42-1.77-.14A6.27,6.27,0,0,0,29.05,150Zm48.23-30c-.92,1.6-.92,1.82,0,3.21A15.54,15.54,0,0,0,79,122a.9.9,0,0,0,0-.84A15.89,15.89,0,0,0,77.28,120ZM22.13,168.18v2.73c.77-.08,1.64.07,2.13-.31a1.86,1.86,0,0,0,.07-1.83C23.92,168.34,23,168.39,22.13,168.18ZM77.34,99.29a12.43,12.43,0,0,0-1.18,1.12.84.84,0,0,0-.09.8,11.73,11.73,0,0,0,1.26,1.17,11.87,11.87,0,0,0,1.58-1.09.91.91,0,0,0,0-.89A12,12,0,0,0,77.34,99.29ZM22.13,150.35c.88-.18,1.77-.11,2.19-.53a1.89,1.89,0,0,0,0-1.83c-.48-.39-1.35-.26-2.15-.36Zm2.24-13.6c.28-2.69.08-2.88-2.23-2.29v2.29Zm-2.24,20.93c.9-.2,1.79-.15,2.2-.58a1.89,1.89,0,0,0-.06-1.83c-.49-.38-1.36-.23-2.14-.32Zm55.23-17,.68.61-2.09.93,1.39,1.68c.58-.46,1.18-.87,1.7-1.36a.73.73,0,0,0-.09-.72A16.39,16.39,0,0,0,77.36,140.71Zm0,37.15c.61-.42,1.17-.76,1.68-1.17.13-.11.2-.55.12-.62-.6-.52-1.25-1-1.8-1.4l-1.37,1.7Zm1.83-14.93-1.76-1.65L76,162.91l1.42,1.7ZM45,142.25,44,140.7l-1.67,1.47L44,144ZM45,176.41l-.87-1.79-1.8,1.67L44,177.87ZM45,121.59,44,120l-1.7,1.63L44,123.2Zm0,41.26-1-1.44-1.68,1.5L44,164.46ZM30.67,164l.89-1c-.32-.25-.68-.73-.95-.69a4.7,4.7,0,0,0-1.36.75ZM30.6,175.2l-1.36,1.17c.43.24.85.66,1.28.68s.69-.48,1-.74Zm-.24-31.85,1.2-1.12c-.31-.26-.65-.76-.92-.72a4.75,4.75,0,0,0-1.4.71Zm5.74-13.63c.76-.32,1.41-.43,1.44-.63a6.59,6.59,0,0,0-.15-2,1.61,1.61,0,0,0-.74-.09C36.46,127.77,36.33,128.53,36.1,129.72Zm.13,6.92c1.19.38,1.55-.08,1.38-1-.08-.48-.48-1.33-.6-1.3C35.54,134.63,36.62,135.81,36.23,136.64Zm-13,6.64,1.12-1.05c-.28-.22-.59-.66-.84-.63a5,5,0,0,0-1.4.58ZM38,149l-1-1.24c-.24.43-.65.84-.67,1.27s.36.81.57,1.21ZM23.35,175.36l-1.21.94a4,4,0,0,0,1.32.66c.28,0,.61-.44.92-.69Zm12.57-19.1,1,1.24c.25-.42.66-.83.69-1.27s-.38-.81-.59-1.21Zm0,13.35L37,170.85c.21-.41.61-.82.59-1.22s-.44-.84-.69-1.26ZM17.54,156.37l-.84-1.18c-.21.35-.56.7-.57,1.06s.31.76.49,1.14Zm6.51,5.32L22.14,163a3.67,3.67,0,0,0,1.25.57,1.21,1.21,0,0,0,.94-.62C24.44,162.57,24.16,162.11,24.05,161.69Zm14-46.83-1.1-1.23c-.22.4-.61.8-.59,1.18s.43.83.67,1.24Zm-22.2,54.75.83,1.07c.2-.39.55-.78.56-1.18s-.38-.68-.59-1Z"/><path class="cls-1" d="M92.31,168.21a25.65,25.65,0,0,1,0-3.73c.09-.58,1-1.06,1.06-1.61s-1-.93-1-1.46a30.36,30.36,0,0,1-.06-4,25.75,25.75,0,0,1,3.76.05c.57.09,1,1.1,1.56,1.11s1-1,1.57-1.08a26.48,26.48,0,0,1,3.82-.06,30.07,30.07,0,0,1,0,3.94c-.09.58-1,1-1.07,1.6s.84.89,1.08,1.45a4.33,4.33,0,0,1,.25,1.84,14.45,14.45,0,0,1-.35,2.12c-1.18,0-2.43.06-3.66,0-.37,0-.67-.59-1.06-.79s-.87-.2-.91-.1c-.72,1.68-2.16,1.1-3.38,1.13A6.49,6.49,0,0,1,92.31,168.21Zm7.24-5.27a2.3,2.3,0,0,0-.25-.42c-.41-.43-.82-.86-1.25-1.26-.12-.11-.44-.2-.5-.13-.58.57-1.12,1.18-1.64,1.8,0,0,.22.36.38.49a6.8,6.8,0,0,0,2.84,0A2.47,2.47,0,0,0,99.55,162.94Z"/><path class="cls-1" d="M92.24,106.36v-4.53l1.28-.93-1.27-1.13V95.28a21.22,21.22,0,0,1,3.69.06c.66.12,1.22,1.14,1.83,1.15s.6-1.37,1.7-1.24a32.34,32.34,0,0,0,3.58,0v4.66l-1.24.77a4,4,0,0,1,.9.77,2.91,2.91,0,0,1,.4,1.32c.06,1.1,0,2.2,0,3.54a32.48,32.48,0,0,1-4.11,0c-.52-.07-.92-1.05-1.43-1.11s-.79,1-1.25,1.12A32,32,0,0,1,92.24,106.36Zm7.33-5.52c-.1-.19-.15-.41-.23-.42-.71-.1-1.23-.37-1.26-1.2a21.16,21.16,0,0,0-2,1.2c-.14.1,0,.57,0,.86,0,0,.18,0,.24.11.42.4.82,1.12,1.25,1.13s.82-.71,1.25-1.09c.09-.08.32,0,.41-.08A2.78,2.78,0,0,0,99.57,100.84Z"/><path class="cls-1" d="M103,74.67a25.28,25.28,0,0,1,0,3.84c-.1.6-1.07,1.1-1.09,1.67s.85,1,1.1,1.57a4.44,4.44,0,0,1,.24,1.86,16.07,16.07,0,0,1-.35,2.08,23.53,23.53,0,0,0-3.46,0c-1.11.15-1.11-1.24-1.72-1.2s-1.1,1-1.72,1.11a23.58,23.58,0,0,1-3.69,0c0-1.4-.08-2.64,0-3.85,0-.42.6-.76.82-1.19a2.08,2.08,0,0,0,.15-1c-1.86-.6-1.08-2.16-1.18-3.36a5.92,5.92,0,0,1,.4-1.65,24.94,24.94,0,0,1,3.66.06c.54.07,1,1.06,1.49,1.07s1-1,1.51-1A26.88,26.88,0,0,1,103,74.67Zm-3.37,5.76c-.18-.48-.22-.72-.28-.73A1.49,1.49,0,0,1,98,78.42c-.65.42-1.32.8-1.92,1.27-.15.11-.1.52-.08.78,0,.08.24.12.34.21.46.43.91,1.22,1.36,1.22s.9-.79,1.39-1.19A1.93,1.93,0,0,1,99.66,80.43Z"/><path class="cls-1" d="M103,147.77c-1.38,0-2.6.07-3.79,0-.38,0-.68-.6-1.06-.84a1.87,1.87,0,0,0-.85-.2c-.71,2-2.33,1.13-3.61,1.22a5.54,5.54,0,0,1-1.37-.34v-4c0-.05,0-.11,0-.14.39-.43,1.11-.87,1.09-1.28s-1-.83-1.05-1.32a35.18,35.18,0,0,1-.23-4.13c1.49,0,2.67-.07,3.83,0,.43,0,.8.55,1.22.8a2.27,2.27,0,0,0,.76.26c.83-1.93,2.48-.93,3.78-1.11a6,6,0,0,1,1.3.17,25.18,25.18,0,0,1-.05,3.69c-.09.58-1.08,1.06-1.1,1.6s1,1,1.07,1.56A29.17,29.17,0,0,1,103,147.77Zm-5.35-3.66,1.84-1.87c-.6-.6-1.21-1.67-1.82-1.68a2.37,2.37,0,0,0-1.67,1.7C96,142.82,97,143.47,97.66,144.11Z"/><path class="cls-1" d="M102.88,127A24.91,24.91,0,0,1,99.2,127c-.55-.08-1-1-1.52-1s-1,1-1.49,1.07a27.79,27.79,0,0,1-3.92,0c0-1.35,0-2.56,0-3.78,0-.55,0-1.24.89-1.18a3.35,3.35,0,0,0,.13-.95c-1.8-.63-1.08-2.19-1.19-3.4A6.48,6.48,0,0,1,92.5,116c1.12,0,2.3-.07,3.47,0,.42,0,.79.55,1.22.79a4.17,4.17,0,0,0,.87.26c.32-1.69,1.67-1,2.62-1.13a13.63,13.63,0,0,1,2.35.14c0,1.31.06,2.58,0,3.85,0,.37-.56.68-.77,1.07a2.73,2.73,0,0,0-.26,1c2.05.82,1.13,2.49,1.1,3.89A8,8,0,0,1,102.88,127Zm-3.11-5.46c-.4-.27-.64-.42-.86-.59a5.35,5.35,0,0,1-.68-.58c-.2-.21-.37-.47-.56-.7a7.79,7.79,0,0,1-.54.71c-.41.42-.84.82-1.26,1.23a10.18,10.18,0,0,0,1.33,1.3,1.14,1.14,0,0,0,1,0,4.3,4.3,0,0,0,.82-.73C99.18,122,99.38,121.86,99.77,121.56Z"/><path class="cls-1" d="M116.89,95.4l1,1.39a10.9,10.9,0,0,1,.82-1,1.49,1.49,0,0,1,.8-.44c1.17,0,2.35,0,3.69,0v4.85h-4.34c-.12-.37-.13-.86-.36-1a1.68,1.68,0,0,0-1-.06c-.09.76-.42,1.21-1.23,1.24-.06,0-.23.53-.15.62a21.63,21.63,0,0,0,1.88,1.83s.47-.25.6-.46a3,3,0,0,0,.25-.93h4.38v4.9c-1.26,0-2.43,0-3.6,0a1.51,1.51,0,0,1-.86-.36,8.18,8.18,0,0,1-.9-1l-.91,1.4h-4.26v-4.47l1.25-.94a4.85,4.85,0,0,1-1-.74,2,2,0,0,1-.36-1c0-1.19,0-2.39,0-3.73Z"/><path class="cls-1" d="M123.18,120.93a30.67,30.67,0,0,1-3.23.13c-.61,0-1.38-.06-1.44-1.06,0-.18-.65-.51-.71-.46a22.29,22.29,0,0,0-1.75,2s.32.44.52.64c.45.43.89,1.12,1.38,1.17s.81-1,1.28-1.09a30,30,0,0,1,3.94-.06v4.7A20.09,20.09,0,0,1,120,127c-.52,0-1-.68-1.49-.94a2.52,2.52,0,0,0-1.08-.16c-.36,1.5-1.58,1.16-2.52,1.19-2.17.07-2.55-.34-2.51-2.55a17,17,0,0,1,.22-2l1.25-.94a3.81,3.81,0,0,1-.93-.8,2.76,2.76,0,0,1-.47-1.3c-.06-1.1,0-2.21,0-3.44h4.37l1.11,1.36,1.12-1.36h4.12Z"/><path class="cls-1" d="M123.19,74.77v4.78c-1.2,0-2.36.07-3.51,0-.39,0-.74-.51-1.1-.78,0,0,0-.13,0-.14-.28-.12-.71-.4-.83-.3A13.34,13.34,0,0,0,116.06,80c0,.06.37.49.56.75s.39.7.69.87a2.11,2.11,0,0,0,1.12.21c.62-1.83,2.13-1.16,3.34-1.24a5.21,5.21,0,0,1,1.38.33v4.65h-4l-1.32-1.33-.9,1.35h-4.43a32.17,32.17,0,0,1,0-3.56c.06-.47.61-.87.92-1.32a3.4,3.4,0,0,0,.41-.62,14.19,14.19,0,0,0-1.2-1,2.44,2.44,0,0,1-.12-.67c.07-1.18-.22-3,.35-3.39,1-.6,2.54-.35,3.83-.22.45,0,.86,1.14,1.25,1.12s.84-1.06,1.32-1.13A29.47,29.47,0,0,1,123.19,74.77Z"/><path class="cls-1" d="M112.64,157.5h4.22l1,1.29a9,9,0,0,1,.86-.89,1.51,1.51,0,0,1,.83-.38c1.17,0,2.34,0,3.66,0v4.86c-1.27,0-2.46.06-3.64,0-.34,0-.65-.52-1-.82-.1-.09-.1-.32-.2-.37s-.56-.23-.64-.14a22.36,22.36,0,0,0-1.69,1.94,3.09,3.09,0,0,0,.58.63c.17.14.51.18.56.34.58,1.81.79,1.26,1.62,0,.42-.63,2-.49,3-.59.38,0,.79.27,1.33.46v4.57c-1.3,0-2.47,0-3.63,0a1.52,1.52,0,0,1-.86-.35,6.8,6.8,0,0,1-.83-.94l-1.05,1.31h-4.31a36.38,36.38,0,0,1,0-3.64c0-.44.62-.79.84-1.23a3.77,3.77,0,0,0,.2-1.09c-1.39-.19-1.09-1.38-1.16-2.24A17.05,17.05,0,0,1,112.64,157.5Z"/><path class="cls-1" d="M123.2,136.81v4.77h-3.78a.42.42,0,0,1-.28-.06c-.44-.41-.87-1.16-1.3-1.16s-.83.77-1.23,1.21c-.21.22-.59.61-.56.65a19,19,0,0,0,1.64,1.93.81.81,0,0,0,.74-.17c.91-2,2.43-1.49,3.94-1.08a7.12,7.12,0,0,0,.82.13v4.78a26,26,0,0,1-3.32,0c-.47-.07-.85-.67-1.33-.93a2.94,2.94,0,0,0-1.08-.25c-.57,1.9-2.11,1.14-3.29,1.26a5.81,5.81,0,0,1-1.57-.32v-4.19l1.28-1a4.21,4.21,0,0,1-.94-.83,3.19,3.19,0,0,1-.5-1.44c0-1,.08-2,.14-3.17H117l.74,1.18a10.88,10.88,0,0,1,1-.94,1.32,1.32,0,0,1,.74-.28C120.63,136.79,121.81,136.81,123.2,136.81Z"/><path class="cls-1" d="M92.49,170.73a18.14,18.14,0,0,1,3.46.06c.67.12,1.24,1.19,1.83,1.16s.69-1.32,1.71-1.25,2.23,0,3.52,0a32.21,32.21,0,0,1-.05,4.1c-.08.57-1.08,1.06-1.07,1.56s.79,1,1.13,1.6a2.78,2.78,0,0,1,.23,1.13c.12,1.06-.17,1.57-1.39,1.53-2.8-.1-5.61-.09-8.42,0-1.21,0-1.61-.5-1.37-1.53.2-.83-.23-2.06,1.17-2.32.08,0,.17-.86.07-.9-1.81-.85-1.2-2.39-1.08-3.79C92.26,171.72,92.37,171.35,92.49,170.73Zm5.2,7.4,1.81-1.82c-.63-.61-1.21-1.61-1.91-1.69-.49-.06-1.62,1.13-1.58,1.7S97.09,177.53,97.69,178.13Z"/><path class="cls-1" d="M123.2,171.08v4.66a35.3,35.3,0,0,1-3.58-.05c-.38,0-.69-.57-1.05-.85s-.67-.5-.75-.43a16.62,16.62,0,0,0-1.76,1.8c-.07.08.23.54.43.75s.64.28.73.51c.5,1.36.68,1,1.51.09.61-.67,2-.64,3.07-.78.41-.05.87.29,1.41.48v3.25H112.42c.27-1.31-.81-2.9,1.18-3.68.12-.05.07-1,0-1-1.64-.34-1.06-1.71-1.18-2.68a12,12,0,0,1,.27-2.32,33.6,33.6,0,0,1,3.48,0c.4,0,.73.65,1.15.88a2.44,2.44,0,0,0,1.06.25c.69-1.88,2.24-1.14,3.5-1.22A5.12,5.12,0,0,1,123.2,171.08Z"/><path class="cls-1" d="M92.26,154.88v-4.74c1.42,0,2.66-.06,3.89,0,.36,0,.66.58,1,.81a2,2,0,0,0,.86.22c.61-1.83,2.14-1.11,3.33-1.22a5.93,5.93,0,0,1,1.67.36v4.76a34.1,34.1,0,0,1-3.69-.05c-.42,0-.77-.61-1.2-.86a1.77,1.77,0,0,0-.85-.21c-.77,2-2.39,1.17-3.73,1.18A7.32,7.32,0,0,1,92.26,154.88Z"/><path class="cls-1" d="M103.07,88V93c-1.46,0-2.73,0-4,0-.26,0-.69-.1-.74-.26-.77-2.29-1-.48-1.48.28H92.29V88a23.23,23.23,0,0,1,3.76.06c.61.11,1.11,1.12,1.69,1.15s1-1,1.55-1.13A23.2,23.2,0,0,1,103.07,88Z"/><path class="cls-1" d="M92.25,113.56v-4.79h4.47l1,1.16.82-1.19H103v4.93c-1.42,0-2.64,0-3.85,0-.35,0-.64-.5-1-.7a4.85,4.85,0,0,0-.92-.35c-.34,1.71-1.72,1.1-2.72,1.22A10.7,10.7,0,0,1,92.25,113.56Z"/><path class="cls-1" d="M103.05,129.6v4.73a26.6,26.6,0,0,1-3.83-.06c-.55-.08-1-1.05-1.52-1.05s-1,1-1.49,1.06a27.45,27.45,0,0,1-3.9.06v-4.9c1.33,0,2.52-.08,3.68,0,.42,0,.79.55,1.21.8a2.18,2.18,0,0,0,.76.25c.84-1.93,2.49-.93,3.79-1.1A5.5,5.5,0,0,1,103.05,129.6Z"/><path class="cls-1" d="M105.39,106.27c0-1.35-.06-2.6,0-3.83,0-.36.59-.65.79-1a3.45,3.45,0,0,0,.21-1.08c-1.45,0-1.08-1.25-1.17-2a16.8,16.8,0,0,1,.21-2.89h4.65v4.46l-1.21,1,1.27,1.1v4.35Z"/><path class="cls-1" d="M105.34,157.48h4.86c0,1.32,0,2.47,0,3.61,0,.6,0,1.32-.92,1.34a6.12,6.12,0,0,0-.12,1c1.46.16,1,1.41,1.14,2.23a13.67,13.67,0,0,1-.23,2.74h-4.71a21.37,21.37,0,0,1,.05-3.69c.13-.68,1.16-1.23,1.18-1.86s-1.06-1.08-1.18-1.71A20.83,20.83,0,0,1,105.34,157.48Z"/><path class="cls-1" d="M110.19,126.8A5.57,5.57,0,0,1,109,127c-1.16-.07-3,.2-3.32-.39-.57-1-.32-2.59-.2-3.91,0-.44.78-.8,1.19-1.2-.42-.42-1.14-.8-1.2-1.26a35.66,35.66,0,0,1-.06-4.17h4.7c0,1.43,0,2.76,0,4.1a1.15,1.15,0,0,1-.35.69,7.19,7.19,0,0,1-.85.7l1.28,1Z"/><path class="cls-1" d="M110.18,85.63h-4.76c0-1.44,0-2.77,0-4.1a1.28,1.28,0,0,1,.35-.73,11.54,11.54,0,0,1,.9-.81l-1.15-.76c-1-4.43-.14-5.44,4.62-4.27V79l-1.25,1.09,1.27,1.12Z"/><path class="cls-1" d="M105.53,136.81h4.69c0,1.24,0,2.38,0,3.51,0,.59,0,1.32-.92,1.36a2.68,2.68,0,0,0-.22,1c2,.7,1.05,2.36,1.16,3.64a6.21,6.21,0,0,1-.22,1.37h-4.66c0-1.3-.07-2.49,0-3.67,0-.41.63-.75.85-1.18a2.83,2.83,0,0,0,.19-1.07c-1.65-.42-1.1-1.81-1.18-2.86A10.3,10.3,0,0,1,105.53,136.81Z"/><path class="cls-1" d="M123.22,88.06v4.79H119l-1.12-1.31-1.09,1.39h-4.21v-4.8h4.22l1.07,1.36a8.18,8.18,0,0,1,.78-1,1.55,1.55,0,0,1,.85-.39C120.7,88,121.87,88.06,123.22,88.06Z"/><path class="cls-1" d="M123.18,113.72c-1.15,0-2.13,0-3.12,0-.67,0-1.47,0-1.58-1,0-.1-.7-.13-1.08-.19-.21,1.7-1.52,1.19-2.5,1.26a15.75,15.75,0,0,1-2.3-.19v-4.75h4.23l1.11,1.36,1.12-1.36h4.12Z"/><path class="cls-1" d="M123.2,150.2v4.91a24.49,24.49,0,0,1-3.34-.05c-.47-.06-.85-.67-1.32-.93a2.86,2.86,0,0,0-1.08-.24c-.53,1.83-2,1.17-3.16,1.27a7.33,7.33,0,0,1-1.71-.33v-4.59h4.29c.38.49.66.87,1,1.25a8.17,8.17,0,0,1,.85-.91,1.67,1.67,0,0,1,.84-.37C120.69,150.17,121.87,150.2,123.2,150.2Z"/><path class="cls-1" d="M123.22,129.56v4.76a19.39,19.39,0,0,1-3.51-.06c-.64-.13-1.14-1.19-1.73-1.22s-1.07,1.09-1.68,1.18c-3.87.61-4.15,0-3.77-3.65,0-.28.1-.57.2-1.08,1.18,0,2.39-.05,3.59,0,.33,0,.61.51,1,.67a5.7,5.7,0,0,0,1.18.32c.22-1.44,1.36-1,2.21-1.07A23.3,23.3,0,0,1,123.22,129.56Z"/><path class="cls-1" d="M110.15,170.86v4.38l-1.24,1c.32.26.85.47.93.8.29,1.07.42,2.19.63,3.44h-5.18c.2-1.31-.86-2.91,1.17-3.72.14-.06.2-.81.11-.86-2.39-1.19-1.12-3.15-1-5.08Z"/><path class="cls-1" d="M110.12,155h-4.7v-4.86h4.7Z"/><path class="cls-1" d="M105.45,88.07h4.69v4.84h-4.69Z"/><path class="cls-1" d="M110.15,113.64h-4.7v-4.88h4.7Z"/><path class="cls-1" d="M110.16,129.53v4.74h-4.71v-4.74Z"/><path class="cls-1" d="M125.78,100.18V95.45h4.51v4.73Z"/><path class="cls-1" d="M130.33,101.51v4.69h-4.54v-4.69Z"/><path class="cls-1" d="M125.55,142.88h4.77v5c-1.52-.13-3.42.26-4.18-.52S125.72,144.58,125.55,142.88Z"/><path class="cls-1" d="M137.46,147.39c-1.54.49-3.33,1-4.23-.15-.65-.85-.68-3.22,0-3.86.82-.8,2.65-.5,4.24-.7Z"/><path class="cls-1" d="M130.3,121.05c-1.47-.1-3.44.33-4.08-.43-.8-.92-.5-2.84-.69-4.5h4.77Z"/><path class="cls-1" d="M130.34,85.57h-4.82c.2-1.67-.1-3.58.7-4.5.65-.76,2.61-.33,4.12-.44Z"/><path class="cls-1" d="M126,92.84c-1-5-.09-5.4,4.33-4.54v4.54Z"/><path class="cls-1" d="M130.29,113.43l-1,.2c-3.27.52-4.23-.51-3.56-3.83,0-.29.11-.57.19-1h4.35Z"/><path class="cls-1" d="M130.28,175.43c-1.51.56-3.33,1-4.26-.17-.65-.85-.66-3.22,0-3.88.81-.81,2.65-.53,4.25-.75Z"/><path class="cls-1" d="M137.47,171.15v4.25c-1.52.47-3.3,1-4.27-.18a4,4,0,0,1,0-3.79C134.12,170.09,135.89,170.76,137.47,171.15Z"/><path class="cls-1" d="M141.17,85.67c-2.19,0-2.51-.3-2.51-2.45,0-2,.56-2.57,2.54-2.56s2.38.33,2.37,2.6S143.45,85.67,141.17,85.67Z"/><path class="cls-1" d="M141.25,116c2.23,0,2.32.11,2.32,2.49,0,2.22-.3,2.52-2.45,2.51-2,0-2.49-.58-2.46-2.64S139,116,141.25,116Z"/><path class="cls-1" d="M148.42,116c2.05,0,2.29.27,2.28,2.51,0,2-.45,2.47-2.45,2.46-1.79,0-2.4-.69-2.38-2.63S146.31,116,148.42,116Z"/><path class="cls-1" d="M150.7,103.94c0,2-.42,2.44-2.47,2.42-1.75,0-2.36-.65-2.36-2.47,0-2.1.42-2.51,2.56-2.49S150.71,101.71,150.7,103.94Z"/><path class="cls-1" d="M143.57,103.88c0,2.23-.26,2.5-2.43,2.5-2,0-2.47-.5-2.48-2.45,0-2.19.36-2.56,2.57-2.55S143.57,101.54,143.57,103.88Z"/><path class="cls-1" d="M141.25,108.71c2.25,0,2.32.09,2.32,2.49,0,2.22-.26,2.49-2.44,2.48-2,0-2.5-.53-2.47-2.6S139,108.7,141.25,108.71Z"/><path class="cls-1" d="M150.7,83.2c0,2.21-.23,2.45-2.33,2.46s-2.49-.38-2.5-2.39.61-2.58,2.42-2.58C150.28,80.69,150.7,81.13,150.7,83.2Z"/><path class="cls-1" d="M148.32,108.72c2.14,0,2.38.24,2.38,2.41s-.38,2.53-2.36,2.54-2.48-.63-2.47-2.51C145.87,109.12,146.27,108.72,148.32,108.72Z"/><path class="cls-1" d="M141.15,93c-2.18,0-2.49-.31-2.49-2.47s.52-2.52,2.57-2.5,2.35.28,2.34,2.58S143.46,93,141.15,93Z"/><path class="cls-1" d="M148.36,93c-2.07,0-2.48-.39-2.49-2.4s.6-2.55,2.43-2.55c2,0,2.4.41,2.4,2.5S150.47,93,148.36,93Z"/><path class="cls-1" d="M150.7,97.92c0,2.11-.29,2.38-2.44,2.37-2,0-2.4-.45-2.39-2.51,0-1.86.63-2.47,2.53-2.45S150.72,95.78,150.7,97.92Z"/><path class="cls-1" d="M143.57,97.88c0,2.3-.14,2.43-2.41,2.43s-2.5-.36-2.5-2.48.51-2.53,2.55-2.52S143.58,95.59,143.57,97.88Z"/><path class="cls-1" d="M143.57,152.64c0,2.2-.28,2.47-2.47,2.45-1.95,0-2.44-.51-2.44-2.48s.39-2.47,2.54-2.46S143.58,150.32,143.57,152.64Z"/><path class="cls-1" d="M137.39,108.83c.08.77.19,1.38.21,2,.08,2.62-1.62,3.75-4,2.65a1.18,1.18,0,0,1-.6-.83c-.07-1.22,0-2.46,0-3.82Z"/><path class="cls-1" d="M137.81,92.87h-4.64c-.45-1.6-1-3.39.19-4.43.72-.65,3.07-.68,3.52-.08C137.65,89.4,137.51,91.15,137.81,92.87Z"/><path class="cls-1" d="M137.82,85.56h-4.65c-.46-1.58-1-3.38.18-4.43.72-.65,3.06-.68,3.51-.08C137.64,82.08,137.52,83.83,137.82,85.56Z"/><path class="cls-1" d="M143.57,77.09c0,2.33-.13,2.47-2.37,2.48s-2.54-.35-2.54-2.46.48-2.45,2.45-2.46C143.32,74.63,143.57,74.88,143.57,77.09Z"/><path class="cls-1" d="M143.57,145.37c0,2.16-.3,2.44-2.5,2.42-1.94,0-2.42-.53-2.41-2.52s.47-2.48,2.58-2.47S143.58,143,143.57,145.37Z"/><path class="cls-1" d="M133,116.14h4.49c0,1.14.1,2.15.13,3.15.06,1.46-.86,1.73-2,1.77-2,.06-2.62-.25-2.74-1.64A26.83,26.83,0,0,1,133,116.14Z"/><path class="cls-1" d="M143.57,166.05c0,2.2-.19,2.38-2.47,2.37-2.06,0-2.46-.43-2.44-2.54,0-1.89.58-2.46,2.47-2.46C143.27,163.41,143.58,163.74,143.57,166.05Z"/><path class="cls-1" d="M125.57,168.28c.15-1.63-.2-3.43.52-4.35.91-1.16,2.7-.74,4.23-.07v4.42Z"/><path class="cls-1" d="M143.57,124.57c0,2.25-.23,2.48-2.44,2.47-2,0-2.47-.48-2.47-2.44,0-2.12.36-2.48,2.51-2.48S143.57,122.26,143.57,124.57Z"/><path class="cls-1" d="M143.57,173.37c0,2.17-.26,2.41-2.51,2.39-2,0-2.41-.47-2.4-2.49s.52-2.51,2.58-2.49S143.58,171.06,143.57,173.37Z"/><path class="cls-1" d="M137.44,101.53c.06,1.06.17,1.93.15,2.79,0,1.77-.32,2-2.1,2.07-2.41.06-2.83-.37-2.71-2.83,0-.62.19-1.24.31-2Z"/><path class="cls-1" d="M125.54,157.57h4.76V162c-1.45.71-3.26,1.11-4.15,0C125.39,161.06,125.72,159.21,125.54,157.57Z"/><path class="cls-1" d="M137.82,100.19h-4.63c-.5-1.59-1-3.39.15-4.44.71-.65,3.06-.69,3.52-.09C137.65,96.69,137.52,98.44,137.82,100.19Z"/><path class="cls-1" d="M150.7,139.14c0,2.1-.37,2.51-2.34,2.53s-2.49-.59-2.49-2.47.39-2.43,2.43-2.43S150.7,137,150.7,139.14Z"/><path class="cls-1" d="M143.57,139.25c0,2.13-.37,2.49-2.5,2.46-1.91,0-2.42-.57-2.41-2.55s.32-2.41,2.57-2.4S143.58,136.86,143.57,139.25Z"/><path class="cls-1" d="M130.28,141.29c-1.51.63-3.29,1.07-4.2-.1-.72-.93-.36-2.72-.5-4.31h4.7Z"/><path class="cls-1" d="M143.57,159.92c0,2.21-.3,2.53-2.4,2.53s-2.52-.56-2.51-2.56.4-2.45,2.54-2.44S143.57,157.61,143.57,159.92Z"/><path class="cls-1" d="M141.23,129.46c2.26,0,2.35.1,2.34,2.47,0,2.2-.26,2.44-2.49,2.42-2,0-2.43-.51-2.42-2.5S139,129.45,141.23,129.46Z"/><path class="cls-1" d="M137.41,157.59a13.54,13.54,0,0,1,.17,2.34c-.07.75-.24,2.06-.57,2.12-1.19.25-2.78.53-3.6-.08-.64-.47-.38-2.25-.46-3.45s.82-1,1.49-1.06C135.37,157.43,136.31,157.53,137.41,157.59Z"/><path class="cls-1" d="M137.46,150.3v4.8c-1.53-.13-3.29.25-4.16-.48-1.09-.91-.63-2.74-.12-4.32Z"/><path class="cls-1" d="M125.57,150.26h4.74v4.48c-1.48.5-3.31,1-4.19-.09S125.72,151.88,125.57,150.26Z"/><path class="cls-1" d="M132.66,136.86h4.71c.17,1.6.9,3.42-.33,4.4-.8.63-3.08.63-3.62,0C132.66,140.31,132.89,138.53,132.66,136.86Z"/><path class="cls-1" d="M150.7,159.92c0,2.08-.39,2.49-2.38,2.49-1.83,0-2.46-.64-2.45-2.53s.48-2.42,2.48-2.42S150.71,157.78,150.7,159.92Z"/><path class="cls-1" d="M150.7,131.87c0,2.1-.34,2.45-2.38,2.45s-2.46-.56-2.45-2.48.42-2.38,2.48-2.37S150.7,129.72,150.7,131.87Z"/><path class="cls-1" d="M150.7,77.09c0,2.16-.25,2.44-2.32,2.45s-2.5-.4-2.51-2.35.53-2.52,2.41-2.52C150.35,74.66,150.7,75,150.7,77.09Z"/><path class="cls-1" d="M137.46,74.62v4.77h-4.29c-.5-1.48-1-3.31.11-4.24C134.14,74.4,135.92,74.77,137.46,74.62Z"/><path class="cls-1" d="M150.7,166c0,2.09-.3,2.4-2.4,2.39s-2.44-.47-2.43-2.47c0-1.85.66-2.49,2.5-2.47S150.71,163.88,150.7,166Z"/><path class="cls-1" d="M137.44,134c-4.4,1-5.32.13-4.3-4.37h4.3Z"/><path class="cls-1" d="M137.4,168.26c-.94.07-1.74.17-2.54.16-1.79,0-2-.31-2.1-2.21,0-2.13.38-2.72,2.05-2.83,2.34-.15,2.82.3,2.79,2.7C137.59,166.75,137.48,167.42,137.4,168.26Z"/><path class="cls-1" d="M126,129.54h4.3V134C125.82,135.15,125,134.08,126,129.54Z"/><path class="cls-1" d="M130.35,122.22v4.44c-1.5.54-3.33,1-4.21,0s-.42-2.77-.59-4.4Z"/><path class="cls-1" d="M133.11,122.24h4.54c-.14,1.59.18,3.38-.55,4.36-.48.65-2.8.67-3.68.05C132.12,125.74,132.79,123.93,133.11,122.24Z"/><path class="cls-1" d="M150.7,124.57c0,2.08-.35,2.45-2.39,2.45s-2.45-.57-2.44-2.49.44-2.39,2.49-2.39S150.7,122.42,150.7,124.57Z"/><path class="cls-1" d="M130.3,79.47H126c-1.18-4.65-.12-5.51,4.27-4.5Z"/><path class="cls-1" d="M150.7,173.18c0,2.22-.29,2.55-2.4,2.55-1.89,0-2.41-.5-2.43-2.34s.54-2.58,2.36-2.59C150.32,170.78,150.69,171.14,150.7,173.18Z"/><path class="cls-1" d="M150.7,152.63c0,2.09-.35,2.44-2.4,2.44-1.86,0-2.44-.6-2.43-2.52s.49-2.4,2.5-2.39S150.71,150.48,150.7,152.63Z"/><path class="cls-1" d="M150.7,145.3c0,2.11-.34,2.46-2.38,2.46-1.87,0-2.46-.6-2.45-2.5s.53-2.44,2.49-2.43S150.71,143.19,150.7,145.3Z"/><path class="cls-1" d="M123.31,70l-.15,2.22c-1.27,0-2.49,0-3.71,0a1.54,1.54,0,0,1-.8-.41,8.65,8.65,0,0,1-.77-.82l-1,1.24c-1,0-2.24,0-3.46,0-.25,0-.49-.39-.73-.6.24-.16.48-.44.73-.46.8-.06,1.61,0,2.53,0,.07-1.28.76-1.25,1.79-1.15C119.48,70.1,121.29,70,123.31,70Z"/><path class="cls-1" d="M155.63,101.42a2.47,2.47,0,1,1-2.61,2.34A2.41,2.41,0,0,1,155.63,101.42Z"/><path class="cls-1" d="M155.51,116a2.4,2.4,0,0,1,2.34,2.55,2.42,2.42,0,1,1-4.83-.1A2.38,2.38,0,0,1,155.51,116Z"/><path class="cls-1" d="M157.85,97.81a2.4,2.4,0,0,1-2.43,2.46,2.45,2.45,0,0,1-2.4-2.41,2.41,2.41,0,0,1,2.49-2.52A2.46,2.46,0,0,1,157.85,97.81Z"/><path class="cls-1" d="M157.85,83.15a2.4,2.4,0,0,1-2.39,2.5,2.47,2.47,0,1,1,2.39-2.5Z"/><path class="cls-1" d="M157.85,90.5A2.4,2.4,0,0,1,155.42,93a2.47,2.47,0,0,1,.1-4.93A2.46,2.46,0,0,1,157.85,90.5Z"/><path class="cls-1" d="M157.85,111.15a2.42,2.42,0,1,1-2.47-2.42A2.4,2.4,0,0,1,157.85,111.15Z"/><path class="cls-1" d="M161.39,85.64A2.45,2.45,0,0,1,159,83.21a2.56,2.56,0,0,1,2.32-2.48,2.46,2.46,0,0,1,.09,4.91Z"/><path class="cls-1" d="M161.35,116a2.46,2.46,0,0,1,0,4.92,2.54,2.54,0,0,1-2.37-2.43A2.48,2.48,0,0,1,161.35,116Z"/><path class="cls-1" d="M157.85,124.62a2.33,2.33,0,0,1-2.39,2.38,2.3,2.3,0,0,1-2.44-2.39,2.42,2.42,0,1,1,4.83,0Z"/><path class="cls-1" d="M161.32,101.43a2.47,2.47,0,0,1,2.46,2.47,2.4,2.4,0,1,1-2.46-2.47Z"/><path class="cls-1" d="M166.14,103.78a2.54,2.54,0,0,1,2.5-2.34,2.45,2.45,0,1,1-2.5,2.34Z"/><path class="cls-1" d="M157.85,131.93a2.33,2.33,0,0,1-2.39,2.37,2.3,2.3,0,0,1-2.44-2.39,2.42,2.42,0,1,1,4.83,0Z"/><path class="cls-1" d="M161.31,108.74a2.47,2.47,0,0,1,2.47,2.46,2.4,2.4,0,1,1-2.47-2.46Z"/><path class="cls-1" d="M168.4,100.25a2.55,2.55,0,0,1-2.26-2.58,2.39,2.39,0,1,1,4.78.19A2.59,2.59,0,0,1,168.4,100.25Z"/><path class="cls-1" d="M161.36,100.26A2.46,2.46,0,0,1,159,97.79a2.53,2.53,0,0,1,2.35-2.44,2.47,2.47,0,0,1,2.45,2.54A2.52,2.52,0,0,1,161.36,100.26Z"/><path class="cls-1" d="M155.42,136.78a2.37,2.37,0,0,1,2.43,2.41,2.31,2.31,0,0,1-2.34,2.44,2.34,2.34,0,0,1-2.49-2.35A2.38,2.38,0,0,1,155.42,136.78Z"/><path class="cls-1" d="M168.6,116.05a2.63,2.63,0,0,1,2.32,2.45,2.39,2.39,0,1,1-4.78-.07A2.62,2.62,0,0,1,168.6,116.05Z"/><path class="cls-1" d="M166.14,111.1a2.56,2.56,0,0,1,2.48-2.35,2.62,2.62,0,0,1,2.3,2.47,2.67,2.67,0,0,1-2.41,2.41A2.61,2.61,0,0,1,166.14,111.1Z"/><path class="cls-1" d="M161.31,93a2.45,2.45,0,1,1,2.47-2.45A2.46,2.46,0,0,1,161.31,93Z"/><path class="cls-1" d="M168.46,92.94a2.44,2.44,0,0,1,.08-4.88,2.69,2.69,0,0,1,2.38,2.44A2.57,2.57,0,0,1,168.46,92.94Z"/><path class="cls-1" d="M155.52,170.82a2.4,2.4,0,0,1,2.33,2.51,2.47,2.47,0,0,1-2.53,2.38,2.49,2.49,0,0,1-2.3-2.5A2.43,2.43,0,0,1,155.52,170.82Z"/><path class="cls-1" d="M157.85,145.34a2.38,2.38,0,0,1-2.43,2.41,2.42,2.42,0,0,1-2.4-2.5,2.51,2.51,0,0,1,2.41-2.4A2.45,2.45,0,0,1,157.85,145.34Z"/><path class="cls-1" d="M157.85,166a2.42,2.42,0,1,1-2.42-2.54A2.41,2.41,0,0,1,157.85,166Z"/><path class="cls-1" d="M161.34,168.38a2.43,2.43,0,1,1,2.44-2.44A2.48,2.48,0,0,1,161.34,168.38Z"/><path class="cls-1" d="M159,159.91a2.46,2.46,0,0,1,2.39-2.42,2.54,2.54,0,0,1,2.41,2.33,2.48,2.48,0,0,1-2.45,2.53A2.54,2.54,0,0,1,159,159.91Z"/><path class="cls-1" d="M155.46,157.48A2.45,2.45,0,1,1,153,160,2.44,2.44,0,0,1,155.46,157.48Z"/><path class="cls-1" d="M155.47,150.17a2.46,2.46,0,0,1,2.38,2.52,2.41,2.41,0,0,1-2.47,2.36,2.44,2.44,0,0,1,.09-4.88Z"/><path class="cls-1" d="M163.78,139.17a2.4,2.4,0,0,1-2.38,2.43,2.37,2.37,0,0,1-2.42-2.33,2.4,2.4,0,1,1,4.8-.1Z"/><path class="cls-1" d="M168.68,81.63,170,83.06l.81-.83c.23,1.83-.63,3.32-2,3.4a2.5,2.5,0,0,1-2.7-2.42c0-1.56,1.25-2.5,3.17-2.41Z"/><path class="cls-1" d="M173.46,100.16c-.41-1.16-2.37-1.92-.91-3.55.78-.88,1.66-1.81,2.95-1.08a3.23,3.23,0,0,1,1.23,3.15A3.22,3.22,0,0,1,173.46,100.16Z"/><path class="cls-1" d="M175,93.05c-1.12.54-1.94-.81-2.73-1.76-.28-.33,0-1.45.4-2,.66-1,1.73-1.94,2.88-1C177.2,89.68,177.4,91.35,175,93.05Z"/><path class="cls-1" d="M166.21,130.82c1.11-.58,2-2.25,3.5-1,.9.77,1.94,1.87,1,3.12-.63.82-1.6,1.73-2.94,1.27C166.74,133.88,166.1,132.49,166.21,130.82Z"/><path class="cls-1" d="M159,131.91a2.43,2.43,0,0,1,2.39-2.43,2.49,2.49,0,0,1,2.41,2.34,2.4,2.4,0,1,1-4.8.09Z"/><path class="cls-1" d="M159,152.58a2.53,2.53,0,0,1,2.44-2.4,2.55,2.55,0,0,1,2.36,2.41,2.4,2.4,0,1,1-4.8,0Z"/><path class="cls-1" d="M163.78,173.34a2.55,2.55,0,0,1-2.42,2.35,2.43,2.43,0,1,1,2.42-2.35Z"/><path class="cls-1" d="M166.29,123.49c1.05-.56,1.89-2.28,3.45-.92.9.78,1.68,1.74,1.06,3.05-.44.93-2.37,1.76-3.05,1.26C166.72,126.13,165.56,125.27,166.29,123.49Z"/><path class="cls-1" d="M159,124.6a2.44,2.44,0,0,1,2.39-2.43,2.5,2.5,0,0,1,2.41,2.34,2.4,2.4,0,1,1-4.8.09Z"/><path class="cls-1" d="M161.39,142.87a2.57,2.57,0,0,1,2.39,2.38,2.4,2.4,0,1,1-4.8.05A2.48,2.48,0,0,1,161.39,142.87Z"/><path class="cls-1" d="M166.14,139.18a2.45,2.45,0,0,1,2.41-2.38,2.6,2.6,0,0,1,2.37,2.36,2.48,2.48,0,0,1-2.41,2.41A2.43,2.43,0,0,1,166.14,139.18Z"/><path class="cls-1" d="M173.31,109c1.75-.8,2.57.44,3.38,1.39.51.6-.24,2.61-1.21,3.1a2.23,2.23,0,0,1-2,0,3.49,3.49,0,0,1-1.23-2.29C172.24,110.36,173,109.57,173.31,109Z"/><path class="cls-1" d="M175.48,116.13c.5,1.13,2.26,1.94.93,3.56-.75.91-1.7,1.81-2.86,1.09a3.18,3.18,0,0,1-1.3-2.25c0-.77.68-1.58,1.09-2.4Z"/><path class="cls-1" d="M174.55,101.46a2.51,2.51,0,0,1,2.24,2.52,2.61,2.61,0,0,1-2.35,2.33,2.71,2.71,0,0,1-2.29-2.44A2.63,2.63,0,0,1,174.55,101.46Z"/><path class="cls-1" d="M143.83,180.55h-5.4c.31-1.21.29-2.84.92-3.18a4.43,4.43,0,0,1,3.6,0C143.56,177.65,143.53,179.31,143.83,180.55Z"/><path class="cls-1" d="M130.35,177.3v3.24H125.5c.16-1.15-.06-2.61.54-3.18C127.16,176.29,128.77,176.65,130.35,177.3Z"/><path class="cls-1" d="M151,180.53h-5c-.18-1.13-.57-2.56.55-3.11a4.23,4.23,0,0,1,3.43,0C150.64,177.75,150.65,179.32,151,180.53Z"/><path class="cls-1" d="M168.51,142.89a2.65,2.65,0,0,1,2.41,2.35,2.68,2.68,0,0,1-2.38,2.47,2.59,2.59,0,0,1-2.4-2.51A2.63,2.63,0,0,1,168.51,142.89Z"/><path class="cls-1" d="M166.21,167.08c-.09-1.48.71-3.38,1.58-3.46a3.43,3.43,0,0,1,2,.52c1,.66,1.8,1.89.89,2.85-.47.5-1,2-2.24,1.36C167.64,168,166.91,167.49,166.21,167.08Z"/><path class="cls-1" d="M166.21,158.87c1.12-.55,2-2.36,3.49-1,.83.75,2,1.83,1,3-.63.78-1.5,2-3,1.41C166.92,162,166.11,160.23,166.21,158.87Z"/><path class="cls-1" d="M166.14,173.25a2.39,2.39,0,1,1,2.41,2.42A2.5,2.5,0,0,1,166.14,173.25Z"/><path class="cls-1" d="M166.29,151.54c1.06-.51,1.89-2.4,3.43-.94.81.77,2,1.83,1,3-.64.78-1.64,2.2-3,1.32C166.77,154.25,165.59,153.31,166.29,151.54Z"/><path class="cls-1" d="M137.46,176.85c.08,1.55.12,2.56.17,3.66h-5c.19-1.1.05-2.82.62-3.13C134.4,176.79,135.92,177,137.46,176.85Z"/><path class="cls-1" d="M173.66,129.6c1.37-.65,2.39.38,3,1.46.74,1.24-.35,2.26-1.19,2.95a2.13,2.13,0,0,1-2.09,0C171.72,132.6,171.57,131,173.66,129.6Z"/><path class="cls-1" d="M172.15,124.44a2.58,2.58,0,0,1,2.38-2.24,2.45,2.45,0,0,1,2.26,2.47,2.41,2.41,0,0,1-2.41,2.27A2.48,2.48,0,0,1,172.15,124.44Z"/><path class="cls-1" d="M172.15,139.14a2.58,2.58,0,0,1,2.29-2.33,2.37,2.37,0,1,1-2.29,2.33Z"/><path class="cls-1" d="M181.11,116.11a2.4,2.4,0,0,1,2.79,2.51,2.57,2.57,0,0,1-3,2.21C179,119.31,178.54,117.78,181.11,116.11Z"/><path class="cls-1" d="M188.18,116.08c1.38-.67,2.12.81,2.73,1.73.84,1.26-1.89,4-3,2.9-.65-.68-2.13-1.45-1.42-2.91C186.8,117.24,187.42,116.85,188.18,116.08Z"/><path class="cls-1" d="M182.61,101.65c.37,1,2.12,1.72,1.13,3-.61.84-1.37,2.32-3.07,1.42-.56-.9-2.13-1.83-1.18-3.17C180.06,102.14,181,100.63,182.61,101.65Z"/><path class="cls-1" d="M180.68,95.48c1.9-.16,3.23.82,3.22,2.36s-1.28,2.44-3,2.33l-1.65-1.83C178.54,97.14,180.32,96.6,180.68,95.48Z"/><path class="cls-1" d="M182.57,92.88h-1.83c-1-2-1-2.22,0-4.9.64.16,1.51.12,2,.54a3.46,3.46,0,0,1,1.14,2.23C183.8,91.46,183,92.15,182.57,92.88Z"/><path class="cls-1" d="M187.94,100.17a5.1,5.1,0,0,0-.86-1.15,1.39,1.39,0,0,1,0-2.33c.67-.39.79-1.85,1.93-1.23a5.08,5.08,0,0,1,2,1.81c.28.52,0,1.2-.6,1.91A2.32,2.32,0,0,1,187.94,100.17Z"/><path class="cls-1" d="M188.13,101.55a3.33,3.33,0,0,1,2.86,1.63c.52,1.5-2,4-3.08,2.91-.66-.7-2.1-1.48-1.38-2.93C186.82,102.59,187.46,102.21,188.13,101.55Z"/><path class="cls-1" d="M187.72,109c1.81-.9,2.34.72,3.19,1.5.22.2-.15,1.26-.45,1.81-.58,1-1.51,1.87-2.65,1.07a3.27,3.27,0,0,1-1.24-2.28C186.56,110.38,187.33,109.65,187.72,109Z"/><path class="cls-1" d="M180.61,108.81h2c.36,1.14,2.3,1.85,1,3.47-.69.85-1.68,2-2.77,1.15-.54-.45-1.86-1.06-1.44-2.29A15.51,15.51,0,0,1,180.61,108.81Z"/><path class="cls-1" d="M172.28,144.27c1-.59,1.86-2.3,3.38-1,.82.71,1.65,1.72,1,3a2.8,2.8,0,0,1-3,1.37,1.26,1.26,0,0,1-.37-.36C172.54,146.43,171.69,145.62,172.28,144.27Z"/><path class="cls-1" d="M174.39,168.35a2.39,2.39,0,0,1,.13-4.77,2.56,2.56,0,0,1,2.27,2.41A2.5,2.5,0,0,1,174.39,168.35Z"/><path class="cls-1" d="M176.79,152.57a2.56,2.56,0,0,1-2.28,2.42,2.61,2.61,0,0,1-2.36-2.36,2.32,2.32,0,1,1,4.64-.06Z"/><path class="cls-1" d="M172.32,158.86c1-.56,1.82-2.29,3.34-1,.83.72,1.75,1.83.94,3-.62.87-1.65,2.23-2.9,1.32C172.8,161.52,171.45,160.58,172.32,158.86Z"/><path class="cls-1" d="M173.59,175.44a4.47,4.47,0,0,1-1.08-1,2.11,2.11,0,0,1-.3-1.54,3.93,3.93,0,0,1,1.54-1.92,1.64,1.64,0,0,1,2.17.62c.66.9,1.26,1.82.72,2.55C176,175.08,175.05,176.34,173.59,175.44Z"/><path class="cls-1" d="M181.44,167.46l-1.14-1.33-.87.88c-.21-1.77.65-3.31,1.9-3.4A2.49,2.49,0,0,1,183.9,166c0,1.51-1.29,2.42-3.23,2.27Z"/><path class="cls-1" d="M188.15,168.25l-1.33-1.15s-.13,0-.14,0c-.07-.56-.36-1.26-.14-1.66a4.28,4.28,0,0,1,1.67-1.68,1.93,1.93,0,0,1,1.63.34,2.89,2.89,0,0,1,1.13,1.55C191.29,167.27,189.84,168.41,188.15,168.25Z"/><path class="cls-1" d="M187.76,150.41c1.64-.79,2.32.64,3.15,1.45.24.23-.07,1.33-.4,1.84-.62,1-1.71,1.91-2.64,1-.48-.49-1.9-1-1.37-2.21A14.3,14.3,0,0,1,187.76,150.41Z"/><path class="cls-1" d="M181,175.58l-1.3-1.14s-.13,0-.13,0c-.07-.61-.38-1.35-.14-1.79a4,4,0,0,1,1.7-1.63,2,2,0,0,1,1.65.34,2.82,2.82,0,0,1,1.12,1.56C184.2,174.63,182.8,175.74,181,175.58Z"/><path class="cls-1" d="M180.11,145.11l1.36-1.12-.9-.92c1.75-.27,3.24.6,3.33,1.94a2.54,2.54,0,0,1-2.31,2.64c-1.42,0-2.33-1.36-2.22-3.3Z"/><path class="cls-1" d="M188.78,143a2.66,2.66,0,0,1,2.23,2.39,2.79,2.79,0,0,1-2.24,2.28,2.74,2.74,0,0,1-2.29-2.44A2.86,2.86,0,0,1,188.78,143Z"/><path class="cls-1" d="M179.52,151.56c.95-.43,1.73-2.35,3.17-1,.7.66,1.87,1.54,1.12,2.92-.56,1-2.38,2-2.91,1.36C180.14,154,178.63,153.41,179.52,151.56Z"/><path class="cls-1" d="M187.91,122.48a2,2,0,0,1,2.93,1.3c.53,2.27-.75,3.59-3,2.83-.59-.19-2-1.37-1.29-2.77C186.81,123.29,187.44,122.93,187.91,122.48Z"/><path class="cls-1" d="M186.71,138.32a4.92,4.92,0,0,1,.95-1.11c.38-.25,1-.49,1.36-.32a4.45,4.45,0,0,1,1.89,1.6,1.71,1.71,0,0,1-.58,2.07c-.86.8-1.77,1.35-2.44.73S185.75,139.89,186.71,138.32Z"/><path class="cls-1" d="M179.36,138.51c.47-.57.72-1.07,1.11-1.3a2,2,0,0,1,1.49-.33,4.06,4.06,0,0,1,1.85,1.61,1.74,1.74,0,0,1-.56,2.1,2.39,2.39,0,0,1-2.52.83C179.93,141.17,179.3,139.43,179.36,138.51Z"/><path class="cls-1" d="M186.53,174.18c-.1-1.78.86-3.22,2.17-3.23a2.59,2.59,0,0,1,2.31,2.49c0,1.31-1.43,2.23-3.15,2.11l.72-.75-.66-2Z"/><path class="cls-1" d="M187.5,131.74l1.1-1.38-.75-.76c1.87-.12,3.15.77,3.16,2.21a2.52,2.52,0,0,1-2.3,2.37c-1.39,0-2.28-1.33-2.19-3.23Z"/><path class="cls-1" d="M179.52,131a4.71,4.71,0,0,1,.95-1.11c.44-.25,1.13-.51,1.49-.32a4.06,4.06,0,0,1,1.85,1.61,1.74,1.74,0,0,1-.56,2.1c-.85.77-1.77,1.35-2.46.78C180,133.38,178.58,132.52,179.52,131Z"/><path class="cls-1" d="M181,122.16c1.26-.57,2.25.64,2.76,1.69.84,1.76-1.91,3.91-3.12,2.88-.76-.64-2-1.53-1.31-3C179.65,123.23,180.3,122.86,181,122.16Z"/><path class="cls-1" d="M180.1,159.72l1.36-1.13-.89-.91c1.75-.27,3.24.6,3.33,1.94a2.54,2.54,0,0,1-2.31,2.64c-1.42,0-2.33-1.35-2.22-3.3Z"/><path class="cls-1" d="M187.31,159.8l1.36-1.33-.82-.84c1.72-.13,3.11.79,3.16,2.09a2.57,2.57,0,0,1-2.3,2.5c-1.31,0-2.27-1.43-2.18-3.22Z"/><path class="cls-1" d="M201.8,143a2.89,2.89,0,0,1,2.26,2.25,3,3,0,0,1-2.17,2.25,3.09,3.09,0,0,1-2.22-2.15A2.94,2.94,0,0,1,201.8,143Z"/><path class="cls-1" d="M204.06,152.51a3,3,0,0,1-2.1,2.31,2.79,2.79,0,0,1-2.29-2.23,3.19,3.19,0,0,1,2.07-2.26A2.88,2.88,0,0,1,204.06,152.51Z"/><path class="cls-1" d="M192.54,152l1.12-1.35s0-.13,0-.13c.53-.08,1.21-.4,1.58-.18a4.6,4.6,0,0,1,1.63,1.73,1.81,1.81,0,0,1-.32,1.52,3.12,3.12,0,0,1-1.59,1.22C193.48,155.14,192.39,153.64,192.54,152Z"/><path class="cls-1" d="M194.26,101.48c1.39-.62,2,1,2.61,1.84.78,1.21-2,3.7-2.91,2.69-.66-.72-2.06-1.4-1.41-2.81C192.81,102.63,193.48,102.24,194.26,101.48Z"/><path class="cls-1" d="M194,157.87c1.54-1,2.71.65,2.84,1.32.37,2-.85,3.36-2.93,2.72-.49-.15-2.08-1.28-1.31-2.71C192.83,158.66,193.47,158.31,194,157.87Z"/><path class="cls-1" d="M204.06,159.81a3,3,0,0,1-2.1,2.32,2.85,2.85,0,0,1-2.29-2.22,3.21,3.21,0,0,1,2.06-2.28A2.9,2.9,0,0,1,204.06,159.81Z"/><path class="cls-1" d="M201.87,168.24a3,3,0,0,1-2.2-2.28,3.13,3.13,0,0,1,2.15-2.22,3,3,0,0,1,2.25,2.17A2.89,2.89,0,0,1,201.87,168.24Z"/><path class="cls-1" d="M204.33,173.6a11.64,11.64,0,0,1-2.38,1.88c-.73.33-2.26-1.25-2.28-2.11a2.87,2.87,0,0,1,2.19-2.32C202.68,171.05,204.05,172.42,204.33,173.6Z"/><path class="cls-1" d="M194.64,175.58a3,3,0,0,1-2.16-2.36,2.85,2.85,0,0,1,2.35-2.23,2.3,2.3,0,0,1-.19,4.59Z"/><path class="cls-1" d="M193.91,108.86h1.72c0,1.2,2.51,1.68,1,3.29-.66.68-1.4,2.1-2.68,1.16a3.45,3.45,0,0,1-1.33-2.26C192.56,110.35,193.41,109.63,193.91,108.86Z"/><path class="cls-1" d="M204.07,124.6a2.85,2.85,0,0,1-2.26,2.17,2.92,2.92,0,0,1-2.14-2.24,3,3,0,0,1,2.21-2.24A2.84,2.84,0,0,1,204.07,124.6Z"/><path class="cls-1" d="M193.34,124.48l1.35-1.33-.82-.84c1.62-.1,3.07.9,3.1,2.14a2.67,2.67,0,0,1-2.29,2.38c-1.29,0-2.25-1.43-2.14-3.16Z"/><path class="cls-1" d="M201.83,136.9a2.24,2.24,0,1,1-2.16,2.29A2.9,2.9,0,0,1,201.83,136.9Z"/><path class="cls-1" d="M194.17,136.88c1.38-.68,2.51.94,2.62,1.57.36,2.1-.83,3.44-3,2.7-.54-.19-2-1.28-1.27-2.66C192.83,137.93,193.47,137.56,194.17,136.88Z"/><path class="cls-1" d="M194,116.41c1.67-1,2.32.65,2.91,1.5.81,1.17-1.94,3.7-2.88,2.71-.66-.7-2.08-1.36-1.44-2.78C192.8,117.26,193.47,116.88,194,116.41Z"/><path class="cls-1" d="M194.65,168.28a3,3,0,0,1-2.17-2.36,2.86,2.86,0,0,1,2.34-2.23A3,3,0,0,1,197,166,2.92,2.92,0,0,1,194.65,168.28Z"/><path class="cls-1" d="M194,143.24c1.51-1,2.68.67,2.81,1.34.38,2-.86,3.35-2.93,2.72-.48-.14-2.08-1.28-1.31-2.71C192.84,144,193.49,143.68,194,143.24Z"/><path class="cls-1" d="M192.52,131.31l1.15-1.4s0-.13,0-.13c.55-.07,1.24-.38,1.61-.15a4.55,4.55,0,0,1,1.6,1.77,1.84,1.84,0,0,1-.35,1.52,3,3,0,0,1-1.52,1.16C193.59,134.4,192.44,132.94,192.52,131.31Z"/><path class="cls-1" d="M201.86,129.59a2.25,2.25,0,0,1,0,4.49,2.25,2.25,0,0,1,0-4.49Z"/><path class="cls-1" d="M157.64,180.56h-4.38c-.8-1.56,0-2.64,1.09-3.4a2.3,2.3,0,0,1,2.15,0A2.55,2.55,0,0,1,157.64,180.56Z"/><path class="cls-1" d="M163.6,180.54c-.33,0-.7.06-1.07.06h-3.74a9.11,9.11,0,0,1,.67-2.58,2.1,2.1,0,0,1,2.82-.95A2.58,2.58,0,0,1,163.6,180.54Z"/><path class="cls-1" d="M201.05,116.25a3.46,3.46,0,0,1,3,1.74c.44,1.34-2.12,3.53-2.91,2.51-.56-.72-2.1-1.27-1.34-2.54.31-.52,1.4-.55,2.14-.8Z"/><path class="cls-1" d="M201.07,108.93a3.54,3.54,0,0,1,3,1.78c.42,1.35-2.17,3.51-2.93,2.47-.54-.74-2.16-1.24-1.33-2.55.33-.53,1.37-.59,2.09-.86Z"/><path class="cls-1" d="M157.73,76c.25,2.6-.55,3.66-2.6,3.57a2.73,2.73,0,0,1-2-3.36c.11-.23.5-.32.77-.46,0,0,.09,0,.14,0Z"/><path class="cls-1" d="M170.68,180.55H166a9.73,9.73,0,0,1,.71-2.48c.63-1,1.79-1.61,2.81-.91S171.55,178.83,170.68,180.55Z"/><path class="cls-1" d="M176.55,180.52h-4.17c-.94-1.61.29-2.49,1.11-3.31a2,2,0,0,1,2,0C176.33,178,177.4,178.93,176.55,180.52Z"/><path class="cls-1" d="M179.54,180.5c-1-1.77.51-2.45,1.25-3.34a1.69,1.69,0,0,1,1.71,0c.78.84,2.11,1.61,1.13,3.3Z"/><path class="cls-1" d="M190.75,180.5h-4.52a15.22,15.22,0,0,1,.82-2.28c.57-1,1.63-1.7,2.56-1S191.72,178.84,190.75,180.5Z"/><path class="cls-1" d="M192.69,180.45c-.94-1.7.72-2.23,1.26-3.21a1.68,1.68,0,0,1,1.57,0c.63.89,2.16,1.45,1.21,3.18Z"/><path class="cls-1" d="M201.91,180.67c-.8-.37-2.28.59-2.24-1.31a2.2,2.2,0,0,1,4.4,0C204.1,181.2,202.7,180.33,201.91,180.67Z"/><path class="cls-1" d="M127.48,71.08h2.65c.12,1.23-1.41,1.53-4.48.86l.43-2.09Z"/><path class="cls-1" d="M195.71,100.11H194a10.7,10.7,0,0,1-.91-1.17,5.26,5.26,0,0,1-.56-1.42c0-.19.21-.46.33-.69.26.26.5.54.78.78.69.58,1.41,1.14,2.07,1.75C195.81,99.46,195.71,99.81,195.71,100.11Z"/><path class="cls-1" d="M216.1,151.39c-.1,1.1.92,2.62-1.16,2.62-1.22,0-1.43-.65-1.33-1.64C213.81,150.35,215.24,151.74,216.1,151.39Z"/><path class="cls-1" d="M208,151.11a6.7,6.7,0,0,1,2.35.68c.27.2.13,1.48-.23,1.92s-1.55.5-1.75.24a7.51,7.51,0,0,1-.81-2.35Z"/><path class="cls-1" d="M208,143.8a6.82,6.82,0,0,1,2.33.7c.27.21.12,1.48-.24,1.92s-1.56.48-1.75.22a7.49,7.49,0,0,1-.79-2.35Z"/><path class="cls-1" d="M216.37,143.86c-.45,1.23.72,2.68-1.25,2.84-1.18.09-1.63-.41-1.52-1.59C213.78,143.11,215.18,144.32,216.37,143.86Z"/><path class="cls-1" d="M216.15,167.12c-1-.17-2.41,1-2.56-1-.09-1.22.42-1.65,1.56-1.55C217.17,164.74,215.79,166.24,216.15,167.12Z"/><path class="cls-1" d="M207.56,167a7.22,7.22,0,0,1,.72-2.37c.21-.27,1.45-.1,1.87.27s.46,1.6.2,1.8a7.49,7.49,0,0,1-2.31.77Z"/><path class="cls-1" d="M220.74,138h2.59a7.33,7.33,0,0,1-.3,2.44c-.12.27-1.59.32-1.77,0A7.53,7.53,0,0,1,220.74,138Z"/><path class="cls-1" d="M216.42,137.71c-.56,1.25.73,2.78-1.35,2.94-1.27.09-1.55-.57-1.47-1.66C213.75,137,215.17,138.18,216.42,137.71Z"/><path class="cls-1" d="M216.15,174.42c-1.07-.11-2.54,1-2.57-1.16,0-1.24.61-1.47,1.6-1.38C217.17,172.07,215.8,173.55,216.15,174.42Z"/><path class="cls-1" d="M216.09,158.69c-.16,1,1,2.47-1,2.62-1.18.09-1.61-.43-1.51-1.6C213.77,157.65,215.23,159.06,216.09,158.69Z"/><path class="cls-1" d="M207.57,174.33a7,7,0,0,1,.7-2.38c.2-.27,1.45-.11,1.87.26s.47,1.6.21,1.79a7.34,7.34,0,0,1-2.31.8Z"/><path class="cls-1" d="M208,158.39a6.62,6.62,0,0,1,2.31.76c.27.21.09,1.48-.28,1.9s-1.57.45-1.76.19a7.64,7.64,0,0,1-.73-2.37Z"/><path class="cls-1" d="M216.09,123.19v2.92c-.83-.15-1.76,0-2.22-.48a2,2,0,0,1-.09-1.95C214.25,123.25,215.18,123.34,216.09,123.19Z"/><path class="cls-1" d="M208,123a6.12,6.12,0,0,1,2.3.76c.29.24.14,1.54-.23,1.92s-1.69.49-1.88.21a7.48,7.48,0,0,1-.64-2.45Z"/><path class="cls-1" d="M207.83,180.65c-.22-2.6-.13-2.74,1.21-2.8s1.59.73,1.43,1.77C210.18,181.54,208.77,180.21,207.83,180.65Z"/><path class="cls-1" d="M208,130.33a6.26,6.26,0,0,1,2.3.79c.28.24.13,1.54-.25,1.92s-1.7.47-1.89.19a7.54,7.54,0,0,1-.61-2.45Z"/><path class="cls-1" d="M216.42,130.4c-.56,1.26.73,2.79-1.35,2.94-1.27.1-1.55-.56-1.47-1.65C213.75,129.67,215.17,130.88,216.42,130.4Z"/><path class="cls-1" d="M216.38,180.53h-2.82a6.86,6.86,0,0,1,.46-2.38,1.87,1.87,0,0,1,1.79-.07A7.3,7.3,0,0,1,216.38,180.53Z"/><path class="cls-1" d="M208.07,137.62a6.38,6.38,0,0,1,2.28.83c.28.26.1,1.56-.28,1.92s-1.72.44-1.9.15a7.39,7.39,0,0,1-.56-2.47Z"/><path class="cls-1" d="M209,119.93c-1.12.19-1.29-.47-1.31-1.45s.28-1.45,1.36-1.43,1.45.44,1.44,1.46S210.08,120.06,209,119.93Z"/><path class="cls-1" d="M223.47,180.55H220.8a6.2,6.2,0,0,1,.4-2.33,1.85,1.85,0,0,1,1.78-.07A6.6,6.6,0,0,1,223.47,180.55Z"/><path class="cls-1" d="M230.39,178.24v2.29h-2.11C227.62,178.15,228,177.75,230.39,178.24Z"/><path class="cls-1" d="M172.37,83.25l1.47-.07c.67.58,1.11.93,1.51,1.33a.94.94,0,0,1,.32.67.7.7,0,0,1-.57.41c-.7-.13-1.74.61-2-.86-.06-.4-.72-.7-1.11-1Z"/><path class="cls-1" d="M159.12,77.2h2.08l-.15.26a7.07,7.07,0,0,1,1.2,1c.19.23.14.66.19,1-.83,0-1.79.67-2.42-.55a6.55,6.55,0,0,0-1.17-1.31Z"/><path class="cls-1" d="M105.15,71.08c1.74,0,3.06,0,4.38,0,.19,0,.38.29.57.45-.18.21-.36.6-.55.61a32.34,32.34,0,0,1-3.55,0C105.78,72.13,105.58,71.64,105.15,71.08Z"/><path class="cls-1" d="M221,144.09h2.29v2.37H221Z"/><path class="cls-1" d="M228.15,164.81h2.23v2.33h-2.23Z"/><path class="cls-1" d="M223.29,164.79v2.34H221v-2.34Z"/><path class="cls-1" d="M134.84,71a5.18,5.18,0,0,1,1,0c.55.19,1.08.41,1.62.62a7.55,7.55,0,0,1-1.55.55,9.33,9.33,0,0,1-2.11-.09c-.26,0-.48-.3-.72-.47a2.65,2.65,0,0,1,.79-.54A4.48,4.48,0,0,1,134.84,71Z"/><path class="cls-1" d="M223.29,151.41v2.34H221v-2.34Z"/><path class="cls-1" d="M223.26,161.13H221v-2.39h2.26Z"/><path class="cls-1" d="M228.14,172.11h2.25v2.29h-2.25Z"/><path class="cls-1" d="M223.29,172.09v2.35H221v-2.35Z"/><path class="cls-1" d="M230.39,158.79V161h-2.22v-2.24Z"/><circle class="cls-2" cx="186.65" cy="65.5" r="5.98"/><rect class="cls-3" x="26.02" y="76.25" width="10.5" height="10.5" transform="translate(-48.47 45.98) rotate(-45)"/><line class="cls-4" x1="70.86" y1="43.83" x2="73.67" y2="46.64"/><line class="cls-4" x1="79.4" y1="52.37" x2="82.21" y2="55.18"/><line class="cls-4" x1="82.39" y1="43.55" x2="79.58" y2="46.37"/><line class="cls-4" x1="73.57" y1="52.38" x2="70.75" y2="55.19"/><rect class="cls-5" x="46.1" y="91.16" width="153.47" height="9.18"/><rect class="cls-5" x="44.57" y="94.94" width="7.86" height="85.62"/><path class="cls-6" d="M108.24,95.63h88.55a9,9,0,0,1,9,9v75.16a9,9,0,0,1-9,9H56.05a9,9,0,0,1-9-9V104.67a9,9,0,0,1,9-9H73.61"/><path class="cls-7" d="M102.09,89.79h89.56a9,9,0,0,1,9,9V174a9,9,0,0,1-9,9H50.9a9,9,0,0,1-9-9V98.82a9,9,0,0,1,9-9H73.47"/><line class="cls-8" x1="81.76" y1="89.79" x2="93.04" y2="89.79"/><polygon class="cls-5" points="60.7 158.89 54 161.28 53.63 151.82 44.62 142.14 44.57 136.41 62.7 148.94 60.7 158.89"/><line class="cls-9" x1="115.53" y1="44.37" x2="56.94" y2="88.79"/><line class="cls-9" x1="124.58" y1="44.7" x2="182.75" y2="88.79"/><path class="cls-10" d="M121.28,31.24A9.39,9.39,0,1,1,112.62,37"/><circle class="cls-5" cx="118.36" cy="36.6" r="4.3"/><path class="cls-11" d="M121.28,31.24A9.39,9.39,0,1,1,112.62,37"/><rect class="cls-5" x="60.23" y="121.03" width="9.78" height="5.9" transform="translate(106.74 -9.74) rotate(45)"/><rect class="cls-5" x="84.46" y="113.03" width="4.75" height="13.76" transform="translate(71.59 -27.35) rotate(30)"/><rect class="cls-5" x="109.76" y="117.28" width="7.09" height="19.6"/><rect class="cls-5" x="110.86" y="141.92" width="8.73" height="22.95"/><path class="cls-5" d="M91.75,166l-7.3-1.17c-.75-3.85-3-7.58-3-13.27,0-5.44,2.85-8.79,3.57-12.51,3,0,3.73-1.34,6.71-1.34Z"/><rect class="cls-5" x="137.98" y="98.55" width="6.36" height="67.49"/><path class="cls-5" d="M174.5,168.62q-6.17-4.26-12.31-8.54a69.08,69.08,0,0,1-1.29-31.77,66,66,0,0,1,3.37-11.41l10.23-5.07Z"/><rect class="cls-5" x="190.63" y="119.13" width="9.08" height="18.47"/><polygon class="cls-5" points="41.18 138.58 32.35 132.88 38.01 114.86 47.03 114.32 41.18 138.58"/><rect class="cls-5" x="33.93" y="152.77" width="7.14" height="10.64"/><path class="cls-12" d="M71.05,128.31h0a3.89,3.89,0,0,1-3.71-2.67c-1.1-3.4-3.35-5.11-6.76-5.11q-4.11,0-6.18,1.62A5.73,5.73,0,0,0,52.33,127q0,3.35,11.3,9.37,9.18,4.93,10.58,8.19a17.19,17.19,0,0,1,1.4,6.92,15.73,15.73,0,0,1-4.82,11.27A14.83,14.83,0,0,1,60.14,167H52.37q-12.69,0-15-10.41a4.12,4.12,0,0,1,4-5.06h0a4.06,4.06,0,0,1,3.87,2.81,6.46,6.46,0,0,0,6.68,4.92q4.1,0,6.17-1.63a5.78,5.78,0,0,0,2.07-4.83q0-3.27-11.26-9.37-9.22-4.9-10.62-8.17a17.41,17.41,0,0,1-1.4-6.9,15.6,15.6,0,0,1,15.47-15.62h7.77q11.94,0,14.71,10.51A4,4,0,0,1,71.05,128.31Z"/><path class="cls-12" d="M115.42,136v-7.69a7.85,7.85,0,0,0-7.78-7.78H99.87c-3.73,0-6.12,1.73-7.18,5.16a3.77,3.77,0,0,1-3.63,2.62h0a3.87,3.87,0,0,1-3.65-5q3.21-10.5,14.46-10.51h15.55a14.85,14.85,0,0,1,10.91,4.6,15,15,0,0,1,4.55,11v31a7.74,7.74,0,0,1-7.73,7.74h0a7.74,7.74,0,0,1-7.73-7.74v0q-.92,7.78-7.78,7.78H99.87A15.57,15.57,0,0,1,84.4,151.55v-.08A15.6,15.6,0,0,1,99.87,136Zm0,7.78h-7.78a7.51,7.51,0,0,0-5.48,2.26,7.42,7.42,0,0,0-2.29,5.43v.08a7.78,7.78,0,0,0,15.55,0Z"/><path class="cls-12" d="M140.4,160.72V103.59a6.31,6.31,0,0,1,6.3-6.3h2.86a6.31,6.31,0,0,1,6.31,6.3v57.13a6.31,6.31,0,0,1-6.31,6.3H146.7A6.3,6.3,0,0,1,140.4,160.72Z"/><path class="cls-12" d="M203.86,143.78H180.92v7.77a7.38,7.38,0,0,0,2.16,5.29,8.09,8.09,0,0,0,5.86,2.4h7.52q6.07,0,7.35-4.77a3.8,3.8,0,0,1,3.62-2.92h0a3.68,3.68,0,0,1,3.59,4.64Q207.89,167,196.46,167H180.92a15.57,15.57,0,0,1-15.47-15.47V128.31a15.6,15.6,0,0,1,15.47-15.55h15.54a14.82,14.82,0,0,1,10.91,4.6,15,15,0,0,1,4.56,11v7.4A8.07,8.07,0,0,1,203.86,143.78ZM180.92,136h15.54v-7.69a7.77,7.77,0,0,0-15.54,0Z"/><path class="cls-11" d="M66.5,128.31h0a3.89,3.89,0,0,1-3.71-2.67c-1.1-3.4-3.35-5.11-6.76-5.11q-4.11,0-6.18,1.62A5.73,5.73,0,0,0,47.78,127q0,3.35,11.3,9.37,9.18,4.93,10.58,8.19a17.19,17.19,0,0,1,1.4,6.92,15.73,15.73,0,0,1-4.82,11.27A14.83,14.83,0,0,1,55.59,167H47.82q-12.69,0-15-10.41a4.12,4.12,0,0,1,4-5.06h0a4.06,4.06,0,0,1,3.87,2.81,6.46,6.46,0,0,0,6.67,4.92q4.11,0,6.18-1.63a5.78,5.78,0,0,0,2.07-4.83q0-3.27-11.26-9.37-9.23-4.9-10.62-8.17a17.41,17.41,0,0,1-1.4-6.9,15.59,15.59,0,0,1,15.47-15.62h7.77q11.94,0,14.71,10.51A4,4,0,0,1,66.5,128.31Z"/><path class="cls-11" d="M103.09,112.76h7.77a14.86,14.86,0,0,1,10.92,4.6,15,15,0,0,1,4.55,11v31A7.74,7.74,0,0,1,118.6,167h0a7.75,7.75,0,0,1-7.74-7.74v0Q110,167,103.09,167H95.32a15.57,15.57,0,0,1-15.47-15.47v-.08A15.6,15.6,0,0,1,95.32,136h15.54v-7.69a7.84,7.84,0,0,0-7.77-7.78H95.32c-3.73,0-6.12,1.73-7.18,5.16a3.78,3.78,0,0,1-3.63,2.62h0a3.87,3.87,0,0,1-3.65-5q3.21-10.5,14.46-10.51m15.54,31h-7.77A7.5,7.5,0,0,0,97.61,146a7.39,7.39,0,0,0-2.29,5.43v.08a7.77,7.77,0,0,0,15.54,0Z"/><path class="cls-11" d="M135.85,116.65v-4.82m0,20.47v-9.55m0-17.17V103a5.7,5.7,0,0,1,5.69-5.7h4.08a5.7,5.7,0,0,1,5.69,5.7v57.47a6.56,6.56,0,0,1-6.55,6.56H142.4a6.56,6.56,0,0,1-6.55-6.56V132.3"/><path class="cls-11" d="M199.31,143.78H176.37v7.77a7.38,7.38,0,0,0,2.16,5.29,8.09,8.09,0,0,0,5.86,2.4h7.52c4,0,6.5-1.59,7.35-4.77a3.8,3.8,0,0,1,3.62-2.92h0a3.68,3.68,0,0,1,3.59,4.64Q203.33,167,191.91,167H176.37a15.57,15.57,0,0,1-15.47-15.47V128.31a15.6,15.6,0,0,1,15.47-15.55h15.54a14.82,14.82,0,0,1,10.91,4.6,15,15,0,0,1,4.56,11v7.4A8.07,8.07,0,0,1,199.31,143.78ZM176.37,136h15.54v-7.69a7.77,7.77,0,0,0-15.54,0Z"/><text class="cls-13" transform="translate(237.72 125.64)">促销课程</text></svg>