<svg id="图层_1" data-name="图层 1" xmlns="http://www.w3.org/2000/svg" viewBox="0 0 400 220.1"><defs><style>.cls-1{fill:#ff9ee4;}.cls-2{fill:#fff;}.cls-3{fill:#ea50d4;}.cls-13,.cls-4{fill:#e8388d;}.cls-10,.cls-11,.cls-12,.cls-5,.cls-8,.cls-9{fill:none;stroke-width:5px;}.cls-5,.cls-8{stroke:#1e2e60;}.cls-10,.cls-11,.cls-12,.cls-5,.cls-9{stroke-linecap:round;stroke-linejoin:round;}.cls-6{fill:#4848f7;}.cls-7{fill:#ffb38d;}.cls-8{stroke-miterlimit:10;}.cls-9{stroke:#ff4a4a;}.cls-10{stroke:#ffcd2e;}.cls-11{stroke:#00ff67;}.cls-12{stroke:#00bdff;}.cls-13{font-size:38.07px;font-family:FZLTTHK--GBK1-0, Lantinghei SC;}</style></defs><title>图标1</title><path class="cls-1" d="M30,114.32l.26-2.34a5.46,5.46,0,0,0,2.41-3,5.39,5.39,0,0,1,1.25-2,30.64,30.64,0,0,1,2.36-2.48c.21-.19.61-.18,1-.26l.14-2.07.23.2,2-2.28c.53-.6,1.05-1.21,1.6-1.8.69-.75,1.39-1.47,2.1-2.19.09-.1.22-.22.33-.22,1.31,0,1.86-.59,2.05-2,.09-.62.9-1.16,1.42-1.69a13.88,13.88,0,0,1,1.18-1A17.45,17.45,0,0,0,52,89.58a16,16,0,0,0,2.46-3l-.3-.29L56.49,86c-.38,2.78.41,3.29,3.23,2.14v-2L56.46,86a3.6,3.6,0,0,1,.45-1.12c.64-.76,1.36-1.45,2.28-2.4l.59,0c.33,0,.66,0,.85-.3a5.92,5.92,0,0,1,1.39-1c.68-.22,1.31-.23,1.66.79.13.38,1.19.42,1.55.53,1.52-1.47,2.19-3,1.72-4.77,1-.45,2.54.52,2.59-1.38,1-.14,2.15.55,2.68-.94.11-.3,1.14-.27,1.53-.35.39-.48.72-1.17,1-1.14,1.2.17,2.82-1.06,3.42,1a16.92,16.92,0,0,0,1.73-1.29c.09-.09-.14-.63-.3-.91a15.51,15.51,0,0,0-1-1.22h3.64l-.12-.47c.54-.24,1.09-.47,1.62-.72s1-.48,1.44-.71A5.87,5.87,0,0,1,86.41,69c.82-.18,1.88.39,2.22-1.06.12-.48,1.92,0,2.26.54a3.37,3.37,0,0,0,.74.77,1.31,1.31,0,0,1-.09,2.07,20.77,20.77,0,0,0-1.81,1.57.7.7,0,0,0,0,.67c.62.65,1.34,1.21,1.93,1.9.24.27.46.93.31,1.14a14,14,0,0,1-2.29,2.48c-.16.79-.8,1.81.83,2.19.6.15,1,1.19,1.45,1.87A.93.93,0,0,1,92,84c-.71.87-1.48,1.68-2.44,2.75.06.42-.71,1.43.89,1.84.66.17,1.1,1.33,1.58,2.09a.93.93,0,0,1-.1.82c-.64.7-1.37,1.31-2,2-.16.18-.25.7-.13.83.61.66,1.35,1.2,1.93,1.88A1.36,1.36,0,0,1,92,97.4c-.4.74-.89,1.84-1.51,2-1.65.35-.79,1.44-.93,1.84,1,1.06,1.74,1.86,2.44,2.73a1,1,0,0,1-.06,1,25.33,25.33,0,0,0-2,2,6.42,6.42,0,0,0-.59,2l.49-.14c.74.84,1.51,1.65,2.19,2.54a1,1,0,0,1-.09,1c-.64.71-1.38,1.31-2,2-.15.17-.25.65-.15.75.55.58,1.25,1,1.75,1.63.32.38.66,1.1.51,1.44a5.66,5.66,0,0,1-1.54,2c-1,.78-1.07.7-.93,2a28.3,28.3,0,0,1,2.4,2.24,1.28,1.28,0,0,1,0,1.23c-.56.72-1.37,1.25-1.9,2a6.39,6.39,0,0,0-.7,1.72,32.1,32.1,0,0,1,2.56,2.38,1.31,1.31,0,0,1,0,1.23,27.42,27.42,0,0,1-1.88,2c-.18.2-.4.65-.32.75a9.34,9.34,0,0,0,1.58,1.68c1,.79.78,1.26.13,2.22s-2.24,1.23-2,2.76c.06.37.45.69.72,1a20,20,0,0,1,1.8,2,1.45,1.45,0,0,1-.27,1.3c-.6.67-1.52,1.08-2,1.81a2.21,2.21,0,0,0,0,2c.47.71,1.45,1.06,2,1.75a1.84,1.84,0,0,1,0,1.68,17.33,17.33,0,0,1-2.13,2.24,31,31,0,0,1,2.18,2.27,1.33,1.33,0,0,1,.17,1.21,22.54,22.54,0,0,1-1.68,2c-.32.38-.81.78-.81,1.18s.46.84.76,1.22c.58.72,1.24,1.38,1.74,2.14a1.18,1.18,0,0,1-.12,1.09c-.6.67-1.34,1.21-2,1.85-.16.15-.28.61-.18.73.5.6,1.13,1.1,1.6,1.73A2.34,2.34,0,0,1,92,173c-.07.33-.85.71-1.32.72-3.75.07-7.51.05-11.27.05H11.84c-.23,0-.45-.05-.87-.1.4-1.3-.72-2.84,1-3.78.11-.06.09-.68-.07-.87-.7-.86-1.41-4.12-.7-4.55,1.92-1.13.88-2.81,1-4.23s0-2.82.08-4.23c0-.75-.42-1.73.88-1.89.11,0,.19-.6.2-.93,0-.87,0-1.75,0-2.63,0-.28,0-.79.09-.83,2.08-.77.73-2.57,1.13-3.82a17.25,17.25,0,0,1,.71-1.66l.53.13c0-.83,0-1.65,0-2.47s.37-1,1.05-.8c0,.52,0,1,.09,1.56a.88.88,0,0,0,.47.56c.14.06.54-.15.55-.26a4.91,4.91,0,0,0-.05-1.67c0-.14-.72-.1-1.1-.15,0-.92,0-1.85.12-2.75A4.76,4.76,0,0,1,17.6,137l.5.1v-3.17l.47.12c.27-.67.52-1.35.83-2a3.94,3.94,0,0,1,.9-1.21c.52-.78-.44-2.34,1.33-2.23.59-.87-.77-2.55,1.32-2.42v-2.13c2.28-.91,2.83-2.63,2.32-4.74,1.41-1,2.77-1.8,2.47-3.44A11.72,11.72,0,0,1,29,114.44c.23-.18.65-.11,1-.16.19,1.8,1.43.92,2.31,1C32.42,113.81,31.89,113.61,30,114.32ZM82.76,79.17l-.36,0c0,.85-.54,2,1,2.13.13,0,.16.55.34.71a2.3,2.3,0,0,0,1.09.63A1.49,1.49,0,0,0,86,82.21a9.87,9.87,0,0,0,1.1-1.45l.23.15v-2l-.36.18A9.72,9.72,0,0,0,86,77.94a1.65,1.65,0,0,0-1-.55,2.08,2.08,0,0,0-1.21.49A8.94,8.94,0,0,0,82.76,79.17Zm4.75,7.22-.44.1A12,12,0,0,0,86,85.21a1.65,1.65,0,0,0-1-.52,2.22,2.22,0,0,0-1.19.53,10.34,10.34,0,0,0-1.1,1.27c-1.35,1.79.77,2.4,1.48,3.2,1.29,1.46,1.73-1,2.76-1.35C87.31,88.21,87.33,87.07,87.51,86.39Zm-.18,20.92c-.53-.48-.89-.83-1.27-1.16s-.73-.78-1.07-.76-.85.46-1.24.77c-.16.13-.2.55-.33.57-1.65.22-1,1.36-.8,2.14a4.66,4.66,0,0,1,1.17,1.27,1.55,1.55,0,0,0,2.21,0c.33-.51.72-1,1.09-1.43l.24.16Zm-.28-5.82c1.32-1.73-.71-2.48-1.42-3.23-1.33-1.39-1.71,1.32-3,1.44-.19,0-.27,1.24-.4,1.9l.4-.12a10.55,10.55,0,0,0,1.13,1.26,2.06,2.06,0,0,0,1.18.54,1.62,1.62,0,0,0,1-.5A12.2,12.2,0,0,0,87.05,101.49Zm.78,61.26c-.58-.55-.92-.87-1.25-1.21s-.32-.51-.54-.68-.7-.62-1-.61a2.67,2.67,0,0,0-1.23.58,3.08,3.08,0,0,0-.54.72c-.29.39-.81.76-.82,1.15s.47.83.75,1.23a3.25,3.25,0,0,0,.6.68,2.86,2.86,0,0,0,1.27.71c.34,0,.7-.49,1-.79s.33-.39.51-.57Zm0-20.69c-.58-.53-.93-.84-1.27-1.17-.18-.18-.3-.42-.49-.59-.34-.29-.71-.78-1-.76s-.86.43-1.26.72a3,3,0,0,0-.6.67c-.29.4-.72.81-.74,1.24s.43.76.71,1.11a2.85,2.85,0,0,0,.63.62,3,3,0,0,0,1.27.69c.34,0,.7-.47,1-.75a6.75,6.75,0,0,0,.54-.53ZM74.23,129.27c.65-1.34-.89-2.26-1.71-2.94-1.35-1.11-1.86,1.11-3,1.47a2.59,2.59,0,0,0-.09,1.69c1.12.47,1.62,2.49,3.18,1.32Zm0-7.3c.65-1.35-.89-2.27-1.71-3-1.35-1.11-1.86,1.12-3,1.48a2.58,2.58,0,0,0-.09,1.69c1.12.46,1.62,2.48,3.18,1.31Zm13.63,27.41-1.22-1.17c-.18-.17-.37-.35-.57-.52-.36-.3-.73-.83-1.11-.84s-.82.47-1.22.76a3.82,3.82,0,0,0-.64.63c-.27.36-.72.77-.69,1.13s.47.83.75,1.22a2.72,2.72,0,0,0,.6.66,3.1,3.1,0,0,0,1.31.65c.31,0,.67-.4,1-.66s.28-.43.46-.61C86.86,150.27,87.24,149.94,87.86,149.38ZM87,129.57c1.16-1.81-.63-2.57-1.45-3.33-1.27-1.19-1.71,1.09-2.79,1.42-.34.11-.35,1.29-.52,2l.45-.1c.38.43.69,1.09,1.14,1.23a4,4,0,0,0,2.17-.06C86.41,130.59,86.68,130,87,129.57ZM72.65,103.12c.28-.5.46-1.19.7-1.2a.87.87,0,0,0,.78-1.33,6.41,6.41,0,0,0-1.74-2.37,1.13,1.13,0,0,0-1.78.71c0,.25-.44.4-.62.63a2.66,2.66,0,0,0-.62.93c-.26.94.87,1.17,1,1.56C70.85,103.41,71.72,103.13,72.65,103.12ZM72.74,147c-1.88-1-2.45.9-3.2,1.65-1.21,1.21.83,1.78,1.24,2.74.17.4,1.25.41,1.82.56.62-1,1.47-1.81,1.47-2.59S73.22,147.83,72.74,147Zm0-7.36c-1.79-.9-2.46.92-3.19,1.76-1.11,1.26,1,1.74,1.31,2.76.12.35,1.27.33,1.83.45.61-1.05,1.45-1.85,1.43-2.62S73.18,140.46,72.69,139.68ZM74.45,87a11,11,0,0,0-2.53-2.06c-.88-.36-2.59,1.46-2.57,2.43a3.58,3.58,0,0,0,2.5,2.51C72.62,89.86,74.17,88.17,74.45,87Zm-2.1-9.47c-1.43-1-2.06,1-2.79,1.71-1.25,1.17.73,1.88,1.21,2.82.22.44,1.24.46,1.9.67.22-.67.31-1.38.5-1.41,1.56-.24.86-1.38.92-1.9Zm9.89,44.68c1.1.72,1.87,1.63,2.63,1.61s1.6-.89,2.34-1.36c1.06-1.91-.8-2.67-1.59-3.45-1.28-1.26-1.77,1-2.78,1.36C82.44,120.48,82.41,121.59,82.24,122.17Zm-9.45-16.52c-1.88-1.12-2.51.86-3.26,1.62-1.16,1.14.65,1.84,1.21,2.65.32.46,1.25.48,1.58.59l1.62-1.74C75.34,107.08,72.57,107,72.79,105.65Zm0,54.81c-1.85-1-2.52.79-3.25,1.56-1.18,1.24.8,1.82,1.23,2.77.19.42,1.24.45,1.78.61.65-1,1.51-1.82,1.52-2.61S73.24,161.22,72.79,160.46Zm-7.25-8.74c.25-.41.42-1.05.7-1.1a.92.92,0,0,0,.71-1.41,13,13,0,0,0-1.72-2.28c-.08-.1-.38,0-.55,0-1.18-.32-1,1.14-1.66,1.35a1.09,1.09,0,0,0-.61,1.71C63.35,150.69,63.73,152.56,65.54,151.72Zm-.09,8.95c-1.67-1.14-2,.86-3,1.38-.2.1-.11,1.11.1,1.6a2.75,2.75,0,0,0,1.11,1.25c.44.26,1.25.51,1.54.29a6.86,6.86,0,0,0,1.74-2.11c.18-.31-.07-1-.32-1.4A5.23,5.23,0,0,0,65.45,160.67Zm.16-20.88c-1.89-1-2.41.86-3.13,1.63-1.07,1.15.74,1.79,1.19,2.69.2.41,1.25.38,1.77.52.63-1,1.48-1.77,1.45-2.5S66.05,140.54,65.61,139.79Zm1.32-10.45c.13-1.11-1-3.06-2-3.1a3,3,0,0,0-2.64,2.62c.06,1.27,1.66,2.32,3,2.18Zm-.2-7.11c1.2-1.72-1.17-1.94-1.13-3.21-1.84-.11-3.34,1.07-3.29,2.51,0,1.26,1.65,2.33,3,2.21ZM65.47,106l.09-.38c-1.72-.69-2.37.9-3.12,1.77s1.1,3.13,2.48,3a1.4,1.4,0,0,0,.81-.38,12.66,12.66,0,0,0,.93-1.25l.38.14a6.23,6.23,0,0,0-.29-1.92C66.53,106.55,65.91,106.31,65.47,106Zm0-20.76c-1.48-1.09-2.22.52-2.92,1.28-1,1.1.5,1.92,1.11,2.67.39.47,1.24.53,1.57.66L67,87.76a4.14,4.14,0,0,0-.29-1.52C66.48,85.8,65.87,85.56,65.42,85.23ZM67,101.13c.09-.9.08-.89-.87-1.64-.16-.12-.15-.45-.31-.59a2.77,2.77,0,0,0-1-.68c-1.18-.41-1.18,1-1.81,1.38-.36.25-.76,1-.63,1.29A6.31,6.31,0,0,0,64,103c.34.26,1.07,0,1.62,0,.05,0,.07-.17.13-.24C66.07,102.27,66.39,101.86,67,101.13ZM52,123.76c.81-.78,1.48-1.18,1.78-1.77.68-1.38-.85-1.85-1.37-2.68-.69-1.1-3.85,1.58-3,2.65C50.07,122.77,50.7,124.22,52,123.76Zm.42-20.85-.6-.61L53.11,101l.6.6c.14-1.35-.93-3.14-1.91-3.2a2.94,2.94,0,0,0-2.49,2.44C49.36,102,51,103,52.39,102.91Zm.43,5.06.88.9c.15-1.34-.91-3.14-1.89-3.2a2.94,2.94,0,0,0-2.5,2.43c0,1.15,1.63,2.24,3.07,2.12l-.88-.9Zm-.47,23,.7-1.08c.25-.41.79-.92.7-1.2A8.77,8.77,0,0,0,52.61,127a1.3,1.3,0,0,0-2.06-.15,3.54,3.54,0,0,0-.69.82c-.22.55-.61,1.55-.44,1.68C50.31,130,50.8,131.59,52.35,130.94Zm-.26,16.15c-1.11-.06-2.78,1.18-2.78,2.28s1.68,2.43,2.76,2.35c.57-.57,1.15-.89,1.31-1.35a3.32,3.32,0,0,0,0-2C53.2,148,52.63,147.63,52.09,147.09Zm0,13.35c-1.07-.09-2.76,1.19-2.75,2.35S51,165.12,52,165.07c.65-.59,1.29-.9,1.45-1.38a3,3,0,0,0-.1-1.9C53.2,161.32,52.65,161,52.06,160.44Zm0-20.68c-1.2,0-2.77,1.31-2.71,2.41s1.75,2.31,2.76,2.26c.6-.58,1.22-.92,1.4-1.42a2.89,2.89,0,0,0-.08-1.88C53.22,140.67,52.65,140.36,52,139.76Zm32.9-43.35c.92-.94,1.62-1.65,2.3-2.36a.12.12,0,0,0,0-.14,9.49,9.49,0,0,0-2-1.89,1,1,0,0,0-1.53.92.64.64,0,0,1-.27.46c-1.48.42-1.33.78,0,1.19.13,0,.17.31.29.45C84.07,95.45,84.42,95.84,84.92,96.41Zm-38,25a11.8,11.8,0,0,0-2.05-2.18c-.54-.34-2,1.25-2,2.07,0,.65,1.58,2.53,2,2.26A14.86,14.86,0,0,0,47,121.46Zm0,7.26c-.85-.87-1.39-1.76-2.17-2.13s-1.94,1.25-1.94,2.14c0,.58,1.54,2.42,1.91,2.17A15.42,15.42,0,0,0,47,128.72ZM84.87,117l2.36-2.31a27.88,27.88,0,0,0-2.17-2c-.29-.22-2.65,1.77-2.47,2A32,32,0,0,0,84.87,117ZM47,108a11.21,11.21,0,0,0-2.13-2.13c-.56-.3-2,1.38-2,2.18,0,.55,1.6,2.4,1.94,2.16A17.54,17.54,0,0,0,47,108Zm0-7.28a11.79,11.79,0,0,0-2-2.15c-.55-.34-2,1.29-2,2.11s1.61,2.52,2,2.22A14.54,14.54,0,0,0,46.93,100.69ZM85,75.75c.88-1,1.6-1.71,2.23-2.52.16-.2-1.84-1.85-2.23-1.85s-2.6,1.65-2.39,1.9C83.25,74.09,84,74.8,85,75.75Zm-2.48,93.84c.43.27,1.09.47,1.13.76.17,1.2,1,1.38,1.74,1a7,7,0,0,0,1.84-1.91,1.82,1.82,0,0,0-.47-.56c-.17-.13-.56-.18-.57-.29-.17-1.76-1.34-1-1.88-1Zm1.83-32.33c1,.11,1,.1,1.82-1,.12-.16.42-.16.6-.3s.43-.36.46-.58-2-2-2.38-1.95a2,2,0,0,0-1,.42,15.62,15.62,0,0,0-1.19,1.63ZM72.86,113c-2.1-1-2.18,1.14-3.19,1.7l1.42,1.8h1.28c.68-.63,1.46-1,1.48-1.45s-.59-1.09-.91-1.65A1.06,1.06,0,0,1,72.86,113ZM44.92,139.91a2.88,2.88,0,0,1-.67.45c-1,.34-1.71,1-1.28,2a7.36,7.36,0,0,0,1.73,2,.54.54,0,0,0,.52,0,6.81,6.81,0,0,0,1.28-1.68,1.89,1.89,0,0,0-.25-1.42A7.84,7.84,0,0,0,44.92,139.91Zm-.06,7.32a2.9,2.9,0,0,1-.58.41c-.9.37-1.74.93-1.32,2a7.5,7.5,0,0,0,1.71,2c.09.09.49,0,.62-.11a4.64,4.64,0,0,0,1.13-1.43,2.12,2.12,0,0,0-.15-1.58C46,148.05,45.46,147.76,44.86,147.23Zm2,15.6a17.56,17.56,0,0,0-2-2.34c-.31-.25-1.93,1.62-2,2.21,0,.83,1.33,2.46,2,2.15S46.13,163.63,46.9,162.83Zm35.78-6.58c.24.17.92.41,1,.74a1.13,1.13,0,0,0,1.74,1c.74-.37,1.23-1.24,1.83-1.9,0,0,0-.1,0-.13a8,8,0,0,0-1.64-1.77,1.91,1.91,0,0,0-1.67.28A7.18,7.18,0,0,0,82.68,156.25ZM78.27,152c.35-.58.55-1.26.82-1.29,1.67-.21,1-1.37,1-2l-2-1.72c-.6.79-1.62,1.55-1.61,2.3S77.54,151,78.27,152Zm.18,13c.16-.26.35-.91.64-1,1.58-.26,1.08-1.34,1-2l-1.83-1.54c-.49.39-1.16.67-1.35,1.15a3.08,3.08,0,0,0-.11,2.11C77,164.28,77.81,164.56,78.45,165Zm-.1-25.14c-.56.41-1.31.69-1.53,1.2a2.79,2.79,0,0,0,0,2c.23.5,1,.77,1.52,1.17l1.78-1.52v-1.37Zm1.53-17.6c1.17-2-.95-2.08-1.75-3.61,0,1.67-2.16,1.3-1.64,2.78a9.81,9.81,0,0,0,1.68,2.3Zm.26,7.13v-1.5l-2-1.48c-.2.31-.35.84-.59.89-1.51.31-1.13,1.36-1,2.09l1.8,1.48Zm-7.48,38.49c-1.8-1.13-2,.84-2.94,1.58.91.77,1.25,2.59,2.67,1.89l1.53-1.91Zm-.12-34.32c-.84-.12-.84-.12-2.71,1.72L71,137.22h1.53l1.34-1.84Zm-1.48,20.64-1.18,1.83L71,157.92h1.49l1.33-1.84-1.33-1.85Zm6.85-56.08c.5,1.7-1.65,1-1.54,2.57s1.87,1,1.81,2.21l1.94-1.49V100Zm.19,7.54a2.76,2.76,0,0,1-.41.88c-.22.2-.83.2-.85.34a4.34,4.34,0,0,0,0,2.15c.2.48,1,.7,1.54,1.06l1.76-1.42v-1.44Zm.23-20.58-1.87,1.54c-1,1.71,1.45,1.72,1.72,2.89L80.12,88V86.64Zm-1.88-5.66c-1,1.64,1.53,1.57,1.68,2.86l2-1.6V79.28l-1.87-1.49Zm-3.87,13c-1.72-1.15-1.86,1-3.09,1.55,1.2.65,1.43,2.7,3.19,1.61.29-.42.73-.74,1-1.16a.93.93,0,0,0,0-.87A8.46,8.46,0,0,0,72.58,92.42Zm-7.24,61.74c-.44.1-1.53.11-1.64.45a15.25,15.25,0,0,0-.3,3.26h2l1.21-1.75Zm0-41.29c-2.19-.12-2.66.86-1.46,3.55h1.51l1.39-1.69Zm.06,20.76c-2.26-.17-2.69.69-1.53,3.55h1.54l1.26-1.81Zm1.21,35.89-1.09-1.83H63.77c-1,3-.54,3.82,1.64,3.5ZM65.3,95.75,66.7,94l-1.32-1.77c-1.61-.1-2.12.27-2.19,1.67S63.83,95.82,65.3,95.75ZM59.64,130l.36-.48c-.25-.66-.37-1.74-.79-1.88a4.57,4.57,0,0,0-2.6.17,3.07,3.07,0,0,0-.1,1.64A21.8,21.8,0,0,0,59.64,130Zm.11-22.93c-2.93-.92-3.67-.49-3.16,2h3.16Zm-3.16,15.43h3.12c0-.47.1-.8.1-1.12a9,9,0,0,0-.09-1C56.88,119.54,56.08,120,56.59,122.54Zm0-20.74h3.14V99.71C56.65,99,56.11,99.34,56.58,101.8Zm3.18,59.56a22.82,22.82,0,0,0-3.2.68,2,2,0,0,0,.06,1.54,2.48,2.48,0,0,0,3.14,0Zm0-20.11c-1.22-.65-2.33-.75-3.24.13a1.51,1.51,0,0,0,.06,1.47c.94.86,2.05.7,3.18.12Zm0,7.31c-1.2-.66-2.31-.77-3.23.12a1.52,1.52,0,0,0,0,1.46c.94.88,2,.7,3.18.14Zm-7,5.94-.51-.38c-.58.31-1.52.5-1.67,1a4,4,0,0,0,.21,2.41c.09.24,1.48.27,1.49.22C52.51,156.66,52.62,155.58,52.76,154.5Zm-.17,13c-.82.22-1.84.25-1.94.57a4.67,4.67,0,0,0,0,2.62c.1.32,1.11.34,1.94.56ZM52.6,92c-.85.31-1.83.38-2,.78a3.62,3.62,0,0,0,0,2.45c.14.36,1.16.35,2,.55Zm0,41.55c-.82.22-1.84.24-1.94.56a4.76,4.76,0,0,0,0,2.62c.1.32,1.12.35,1.94.57Zm0-20.88c-.93.35-1.87.44-2,.8a3.93,3.93,0,0,0,0,2.47c.15.37,1.16.38,2,.59Zm-22.68,9.76.43.39c.72-.19,1.66-.16,2.1-.63a2.15,2.15,0,0,0-.18-2,1.83,1.83,0,0,0-1.78-.09A6.88,6.88,0,0,0,29.93,122.46Zm.26,7.53c.9-.32,2.27.89,2.43-1,.07-.91.06-1.79-1.28-1.68S29.89,127.52,30.19,130Zm-.27,20.4.39.42c.72-.15,1.66-.08,2.11-.53a2.09,2.09,0,0,0-.14-2,1.76,1.76,0,0,0-1.77-.1A5.73,5.73,0,0,0,29.92,150.39Zm.2,13.89c.95-.24,1.84-.21,2.32-.66a1.89,1.89,0,0,0-.06-1.83,5.45,5.45,0,0,0-2.26-.39Zm-.19-21.13.38.4a5.44,5.44,0,0,0,2.15-.68,1.92,1.92,0,0,0-.14-1.83c-.33-.35-1.56-.43-1.77-.14A6.27,6.27,0,0,0,29.93,143.15ZM78.16,113.1c-.92,1.6-.91,1.82.06,3.22a18.34,18.34,0,0,0,1.65-1.2.85.85,0,0,0-.05-.84A14.9,14.9,0,0,0,78.16,113.1ZM23,161.33v2.72c.78-.08,1.65.07,2.14-.3a1.9,1.9,0,0,0,.06-1.84C24.8,161.49,23.92,161.53,23,161.33ZM78.23,92.44a10.28,10.28,0,0,0-1.18,1.11.87.87,0,0,0-.1.8,11.93,11.93,0,0,0,1.27,1.18,12.79,12.79,0,0,0,1.57-1.1.94.94,0,0,0,0-.89A11.94,11.94,0,0,0,78.23,92.44ZM23,143.49c.89-.18,1.77-.11,2.19-.52a1.86,1.86,0,0,0,0-1.84c-.47-.39-1.35-.26-2.15-.36Zm2.24-13.6c.28-2.69.09-2.88-2.22-2.28v2.28ZM23,150.82c.91-.2,1.79-.15,2.2-.57a1.88,1.88,0,0,0-.06-1.84c-.49-.37-1.36-.23-2.14-.31Zm55.23-17,.68.61-2.09.93,1.39,1.68c.59-.45,1.18-.87,1.71-1.36.11-.09,0-.59-.09-.71C79.34,134.57,78.78,134.23,78.24,133.85Zm0,37.15c.61-.41,1.17-.76,1.68-1.17a.7.7,0,0,0,.12-.62c-.61-.52-1.26-1-1.8-1.4l-1.37,1.71ZM80,156.07l-1.77-1.64-1.42,1.62,1.43,1.71ZM45.89,135.39l-1.06-1.55-1.67,1.47,1.71,1.79Zm0,34.17-.87-1.8c-.6.56-1.2,1.12-1.81,1.67L44.87,171Zm0-54.83-1-1.64-1.71,1.63,1.68,1.62Zm0,41.26-1-1.43-1.68,1.49,1.76,1.55Zm-14.31,1.12.89-1c-.32-.24-.67-.73-.95-.68a4.48,4.48,0,0,0-1.36.75Zm-.06,11.23-1.36,1.17c.42.25.84.67,1.28.68s.69-.47,1-.74Zm-.24-31.84,1.2-1.13c-.31-.26-.66-.76-.93-.72a4.51,4.51,0,0,0-1.39.72ZM37,122.86c.76-.32,1.4-.43,1.43-.63a6.19,6.19,0,0,0-.15-2c0-.08-.73-.14-.74-.1C37.34,120.92,37.21,121.68,37,122.86Zm.12,6.92c1.2.39,1.56-.08,1.39-1-.09-.47-.48-1.32-.61-1.3C36.42,127.78,37.5,129,37.11,129.78Zm-13,6.65,1.11-1.05c-.28-.23-.58-.67-.84-.64a5.4,5.4,0,0,0-1.4.58Zm14.73,5.67-1-1.24c-.24.42-.64.83-.67,1.27s.37.8.58,1.21ZM24.24,168.5l-1.22.94a4.09,4.09,0,0,0,1.32.66c.28,0,.61-.44.92-.69ZM36.8,149.4l1,1.24c.24-.42.66-.83.68-1.26s-.37-.81-.59-1.22Zm0,13.36L37.89,164c.21-.41.61-.83.58-1.22s-.44-.84-.68-1.26ZM18.43,149.51l-.85-1.18c-.2.35-.56.7-.57,1.06s.32.76.49,1.14Zm6.51,5.33L23,156.1a3.7,3.7,0,0,0,1.24.56,1.18,1.18,0,0,0,.94-.62C25.32,155.72,25.05,155.26,24.94,154.84ZM38.9,108l-1.11-1.22c-.21.39-.61.8-.58,1.18s.43.83.67,1.24ZM16.7,162.76l.82,1.06c.2-.39.55-.78.56-1.18s-.37-.68-.59-1Z"/><path class="cls-1" d="M93.19,161.36a25.62,25.62,0,0,1,.06-3.73c.09-.59,1-1.06,1-1.62s-1-.92-1-1.45a30.6,30.6,0,0,1,0-4,24.38,24.38,0,0,1,3.76.06c.57.09,1,1.1,1.56,1.1s1-1,1.57-1.08a26.43,26.43,0,0,1,3.81,0,28.47,28.47,0,0,1-.05,3.94c-.08.57-1,1-1.06,1.59s.83.9,1.08,1.45a4.57,4.57,0,0,1,.25,1.85,17.64,17.64,0,0,1-.35,2.11c-1.19,0-2.43.07-3.66,0-.37,0-.67-.58-1.06-.78s-.87-.2-.91-.11c-.73,1.69-2.17,1.1-3.39,1.13A6.9,6.9,0,0,1,93.19,161.36Zm7.25-5.27a2.45,2.45,0,0,0-.25-.43c-.41-.43-.82-.86-1.26-1.26-.12-.11-.43-.2-.5-.13-.57.57-1.12,1.18-1.64,1.8a1.36,1.36,0,0,0,.39.49,6.63,6.63,0,0,0,2.84,0A3.9,3.9,0,0,0,100.44,156.09Z"/><path class="cls-1" d="M93.13,99.5V95l1.27-.92-1.27-1.14V88.42a21.31,21.31,0,0,1,3.7.06c.66.12,1.21,1.14,1.83,1.16s.59-1.37,1.69-1.25a32.36,32.36,0,0,0,3.58,0v4.66l-1.24.78a3.39,3.39,0,0,1,.9.77A2.8,2.8,0,0,1,104,96c0,1.09,0,2.2,0,3.54a30.79,30.79,0,0,1-4.12-.06c-.51-.07-.92-1.05-1.42-1.1s-.79,1-1.26,1.11A31.85,31.85,0,0,1,93.13,99.5ZM100.45,94c-.1-.19-.15-.41-.22-.42-.71-.09-1.23-.36-1.27-1.2-.67.39-1.37.75-2,1.2-.14.11,0,.57,0,.87,0,0,.18,0,.24.1.42.4.82,1.12,1.24,1.14s.82-.72,1.26-1.09c.09-.08.31,0,.4-.08A2.73,2.73,0,0,0,100.45,94Z"/><path class="cls-1" d="M103.92,67.82a25.07,25.07,0,0,1-.06,3.83c-.1.61-1.06,1.11-1.08,1.68s.84,1,1.1,1.57a4.56,4.56,0,0,1,.23,1.85,16.07,16.07,0,0,1-.35,2.08,25,25,0,0,0-3.46,0c-1.1.16-1.1-1.24-1.72-1.19s-1.1,1-1.72,1.1a23.47,23.47,0,0,1-3.69.06c0-1.41-.07-2.64,0-3.86,0-.42.61-.76.83-1.19a2,2,0,0,0,.14-1c-1.85-.59-1.07-2.16-1.18-3.36a6.58,6.58,0,0,1,.4-1.64,26.39,26.39,0,0,1,3.66,0c.54.08,1,1.07,1.49,1.07s1-1,1.52-1A28.52,28.52,0,0,1,103.92,67.82Zm-3.37,5.75c-.19-.48-.23-.72-.29-.72a1.47,1.47,0,0,1-1.4-1.28c-.65.41-1.32.8-1.93,1.26-.14.12-.1.52-.08.78,0,.08.25.12.34.21.46.44.91,1.23,1.37,1.23s.9-.79,1.38-1.2A2.23,2.23,0,0,1,100.55,73.57Z"/><path class="cls-1" d="M103.9,140.91c-1.39,0-2.6.07-3.8,0-.37,0-.67-.6-1.06-.84a1.82,1.82,0,0,0-.85-.2c-.7,2-2.32,1.13-3.61,1.22a4.72,4.72,0,0,1-1.36-.34v-4s0-.12,0-.15c.39-.43,1.11-.86,1.09-1.27s-1-.83-1-1.33a37.34,37.34,0,0,1-.24-4.12c1.49,0,2.67-.08,3.84,0,.42.05.79.55,1.21.8a2.77,2.77,0,0,0,.76.27c.83-1.94,2.48-.94,3.79-1.11a5.41,5.41,0,0,1,1.3.16,24,24,0,0,1-.06,3.7c-.09.58-1.08,1-1.09,1.59s1,1,1.06,1.56A29.07,29.07,0,0,1,103.9,140.91Zm-5.35-3.65,1.84-1.87c-.61-.61-1.21-1.68-1.82-1.68a2.39,2.39,0,0,0-1.68,1.69C96.85,136,97.93,136.61,98.55,137.26Z"/><path class="cls-1" d="M103.77,120.16a26.56,26.56,0,0,1-3.69,0c-.55-.08-1-1.06-1.51-1s-.95,1-1.5,1.06a27.62,27.62,0,0,1-3.92.06c0-1.35,0-2.57,0-3.78,0-.55,0-1.24.89-1.18a3.43,3.43,0,0,0,.14-1c-1.8-.63-1.08-2.19-1.19-3.4a6.76,6.76,0,0,1,.38-1.72c1.13,0,2.31-.07,3.47,0,.43,0,.8.54,1.22.78a3.59,3.59,0,0,0,.88.26c.32-1.68,1.67-1,2.62-1.13a13.58,13.58,0,0,1,2.34.15c0,1.31.06,2.58,0,3.84,0,.37-.56.68-.77,1.07a2.52,2.52,0,0,0-.26,1c2.05.81,1.13,2.48,1.1,3.88C103.94,119.31,103.86,119.59,103.77,120.16Zm-3.11-5.46c-.4-.26-.64-.41-.86-.58a5.47,5.47,0,0,1-.68-.58,7.59,7.59,0,0,1-.56-.71,6.4,6.4,0,0,1-.55.71c-.4.43-.83.83-1.25,1.24a10.12,10.12,0,0,0,1.33,1.29,1.14,1.14,0,0,0,1,0,4.62,4.62,0,0,0,.82-.73C100.06,115.14,100.27,115,100.66,114.7Z"/><path class="cls-1" d="M117.77,88.54l1,1.39a10.77,10.77,0,0,1,.83-1,1.45,1.45,0,0,1,.79-.43c1.18-.05,2.35,0,3.69,0v4.85h-4.34c-.11-.38-.12-.87-.35-1a1.76,1.76,0,0,0-1-.06c-.09.77-.42,1.21-1.23,1.24-.06,0-.23.53-.15.62A23,23,0,0,0,118.81,96s.48-.24.61-.45a3.92,3.92,0,0,0,.25-.94h4.38v4.91c-1.27,0-2.44,0-3.6,0a1.5,1.5,0,0,1-.87-.36,10.14,10.14,0,0,1-.9-1l-.9,1.41h-4.27V95l1.25-.94a4.48,4.48,0,0,1-1-.73,1.81,1.81,0,0,1-.36-1c0-1.19,0-2.38,0-3.73Z"/><path class="cls-1" d="M124.07,114.08c-1.19,0-2.22.18-3.24.12-.6,0-1.38-.06-1.43-1.06,0-.17-.66-.5-.71-.45a19.57,19.57,0,0,0-1.75,2s.31.44.52.64c.44.43.88,1.13,1.37,1.17s.81-1,1.28-1.09a31.94,31.94,0,0,1,3.94,0v4.69a20,20,0,0,1-3.15.13c-.53-.06-1-.68-1.49-.94a2.56,2.56,0,0,0-1.09-.16c-.35,1.49-1.57,1.15-2.51,1.18-2.18.07-2.55-.34-2.52-2.55a19.48,19.48,0,0,1,.22-2l1.26-.93a4.32,4.32,0,0,1-.94-.8,2.83,2.83,0,0,1-.46-1.31c-.07-1.1,0-2.2,0-3.44h4.37l1.1,1.36,1.12-1.36h4.13Z"/><path class="cls-1" d="M124.08,67.92V72.7c-1.21,0-2.37.07-3.52,0-.38,0-.73-.5-1.09-.78,0,0,0-.12,0-.13-.29-.12-.72-.41-.83-.31a12.87,12.87,0,0,0-1.66,1.72s.37.49.57.75.39.7.68.87a2.17,2.17,0,0,0,1.12.2c.63-1.83,2.14-1.15,3.34-1.24a5,5,0,0,1,1.39.34v4.64h-4l-1.32-1.33-.9,1.36h-4.43a29.85,29.85,0,0,1,0-3.56c.06-.47.6-.88.92-1.32.15-.21.44-.59.4-.63a12.8,12.8,0,0,0-1.2-1,2.25,2.25,0,0,1-.11-.68c.07-1.18-.22-3,.35-3.39,1-.59,2.54-.35,3.83-.22.45,0,.86,1.15,1.24,1.12s.84-1,1.32-1.12A28,28,0,0,1,124.08,67.92Z"/><path class="cls-1" d="M113.53,150.65h4.21l1,1.29a8.05,8.05,0,0,1,.86-.89,1.57,1.57,0,0,1,.83-.38c1.17,0,2.35,0,3.66,0v4.86c-1.27,0-2.46.06-3.64,0-.34,0-.64-.52-.94-.82-.1-.1-.1-.33-.2-.37s-.56-.24-.65-.15a20.79,20.79,0,0,0-1.68,2,2.8,2.8,0,0,0,.58.62c.16.15.51.18.56.34.58,1.82.79,1.26,1.62,0,.42-.62,2-.49,3-.58.39,0,.8.26,1.33.46v4.57c-1.29,0-2.46,0-3.63,0a1.58,1.58,0,0,1-.86-.35,8.44,8.44,0,0,1-.83-.94l-1,1.31H113.4a36.38,36.38,0,0,1,0-3.64c0-.43.61-.78.84-1.23a3.45,3.45,0,0,0,.19-1.08c-1.39-.2-1.09-1.38-1.16-2.25A15.93,15.93,0,0,1,113.53,150.65Z"/><path class="cls-1" d="M124.09,130v4.77H120.3a.47.47,0,0,1-.27-.06c-.44-.42-.87-1.16-1.31-1.17s-.82.78-1.23,1.22c-.2.22-.59.6-.56.65a17.77,17.77,0,0,0,1.65,1.92c.1.11.66,0,.73-.17.92-2,2.43-1.49,3.94-1.08.23.06.47.08.82.14V141a24.08,24.08,0,0,1-3.31,0c-.48-.06-.86-.67-1.34-.93a2.79,2.79,0,0,0-1.07-.24c-.57,1.9-2.12,1.13-3.3,1.25a5.51,5.51,0,0,1-1.57-.32v-4.19l1.28-1a4,4,0,0,1-.94-.83,3,3,0,0,1-.49-1.44c0-1,.08-2,.14-3.17h4.4l.75,1.19a10.72,10.72,0,0,1,1-.94,1.28,1.28,0,0,1,.74-.28C121.51,129.94,122.69,130,124.09,130Z"/><path class="cls-1" d="M93.38,163.87a19,19,0,0,1,3.46.06c.66.13,1.24,1.19,1.83,1.17s.68-1.32,1.71-1.25,2.23,0,3.52,0a30.31,30.31,0,0,1-.06,4.1c-.08.57-1.08,1.06-1.06,1.57s.79,1,1.13,1.59a3.16,3.16,0,0,1,.23,1.13c.12,1.06-.18,1.58-1.4,1.54-2.8-.1-5.61-.1-8.41,0-1.22,0-1.61-.5-1.37-1.53.19-.82-.23-2.06,1.16-2.32a1.45,1.45,0,0,0,.08-.9c-1.82-.84-1.2-2.39-1.09-3.78C93.15,164.87,93.25,164.49,93.38,163.87Zm5.2,7.41,1.81-1.83c-.63-.6-1.22-1.6-1.91-1.69-.5-.06-1.63,1.13-1.59,1.7S98,170.68,98.58,171.28Z"/><path class="cls-1" d="M124.09,164.22v4.66c-1.25,0-2.43.07-3.59,0-.37,0-.69-.58-1-.85s-.67-.5-.74-.44a15.13,15.13,0,0,0-1.77,1.81c-.06.07.23.54.43.74s.65.28.73.51c.5,1.36.68,1,1.51.09.61-.66,2-.64,3.08-.78.41,0,.87.29,1.4.48v3.26H113.3c.27-1.31-.8-2.91,1.19-3.69a2,2,0,0,0,0-1c-1.63-.34-1.06-1.7-1.17-2.68a10.63,10.63,0,0,1,.27-2.32,33.38,33.38,0,0,1,3.47,0c.41,0,.73.65,1.15.88a2.47,2.47,0,0,0,1.07.25c.69-1.88,2.24-1.14,3.49-1.21A4.75,4.75,0,0,1,124.09,164.22Z"/><path class="cls-1" d="M93.15,148v-4.73c1.41,0,2.65-.07,3.88,0,.37,0,.67.58,1,.81a2.18,2.18,0,0,0,.86.22c.61-1.83,2.13-1.12,3.32-1.23a6.55,6.55,0,0,1,1.67.36v4.76a36.8,36.8,0,0,1-3.68,0c-.43-.05-.78-.61-1.2-.87a2,2,0,0,0-.85-.21c-.77,2-2.39,1.17-3.74,1.18A6,6,0,0,1,93.15,148Z"/><path class="cls-1" d="M104,81.16V86.1c-1.46,0-2.73,0-4,0-.26,0-.69-.1-.75-.26-.76-2.29-1-.47-1.48.29H93.18v-5a23.12,23.12,0,0,1,3.75.06c.61.1,1.11,1.11,1.69,1.15s1-1,1.55-1.14A24.49,24.49,0,0,1,104,81.16Z"/><path class="cls-1" d="M93.14,106.71v-4.8h4.47l1,1.16.83-1.19h4.48v4.93c-1.43,0-2.65,0-3.86,0-.34,0-.64-.5-1-.71a6.73,6.73,0,0,0-.92-.35c-.34,1.71-1.73,1.11-2.73,1.22A11.2,11.2,0,0,1,93.14,106.71Z"/><path class="cls-1" d="M103.93,122.74v4.73a28.25,28.25,0,0,1-3.83,0c-.55-.09-1-1-1.51-1.06s-1,1-1.49,1.07a29.26,29.26,0,0,1-3.91,0v-4.9c1.34,0,2.52-.07,3.69,0,.42,0,.78.55,1.2.8a2.3,2.3,0,0,0,.77.26c.83-1.93,2.48-.94,3.79-1.11A5.93,5.93,0,0,1,103.93,122.74Z"/><path class="cls-1" d="M106.27,99.42c0-1.36-.06-2.61,0-3.84,0-.36.6-.65.8-1a3.77,3.77,0,0,0,.2-1.09c-1.45,0-1.08-1.25-1.16-2a15.89,15.89,0,0,1,.2-2.9H111V93l-1.2,1,1.26,1.09v4.36Z"/><path class="cls-1" d="M106.23,150.62h4.86c0,1.33,0,2.47,0,3.62,0,.6,0,1.32-.93,1.33a8.23,8.23,0,0,0-.11,1c1.45.16,1,1.41,1.13,2.24a13.57,13.57,0,0,1-.22,2.73h-4.72a21.2,21.2,0,0,1,.06-3.68c.13-.68,1.15-1.23,1.18-1.87s-1.06-1.08-1.18-1.71A19.89,19.89,0,0,1,106.23,150.62Z"/><path class="cls-1" d="M111.07,120a5.22,5.22,0,0,1-1.17.22c-1.15-.07-3,.21-3.31-.38-.58-1-.33-2.59-.2-3.91,0-.44.77-.81,1.19-1.21-.42-.42-1.14-.79-1.2-1.26a33.46,33.46,0,0,1-.06-4.16H111c0,1.42,0,2.76,0,4.09a1.28,1.28,0,0,1-.36.7,8,8,0,0,1-.84.7l1.27,1.05Z"/><path class="cls-1" d="M111.06,78.77h-4.75c0-1.44,0-2.77,0-4.1a1.24,1.24,0,0,1,.36-.72,7.82,7.82,0,0,1,.9-.82l-1.16-.75c-1-4.43-.13-5.45,4.62-4.28v4.08l-1.24,1.09,1.26,1.12Z"/><path class="cls-1" d="M106.42,130h4.69c0,1.24,0,2.38,0,3.52,0,.58,0,1.32-.91,1.35a2.73,2.73,0,0,0-.22,1c2,.7,1.05,2.35,1.15,3.64a6.17,6.17,0,0,1-.21,1.37h-4.66c0-1.31-.08-2.5,0-3.67,0-.42.62-.75.84-1.19a2.64,2.64,0,0,0,.19-1.07c-1.65-.42-1.1-1.81-1.18-2.86A9.77,9.77,0,0,1,106.42,130Z"/><path class="cls-1" d="M124.11,81.2V86h-4.19l-1.12-1.32-1.1,1.39h-4.2v-4.8h4.21l1.08,1.37a6.64,6.64,0,0,1,.78-1,1.39,1.39,0,0,1,.84-.39C121.58,81.18,122.75,81.2,124.11,81.2Z"/><path class="cls-1" d="M124.07,106.86c-1.15,0-2.14,0-3.12,0-.67,0-1.48,0-1.58-1,0-.1-.71-.13-1.09-.19-.2,1.7-1.52,1.19-2.49,1.26a15.64,15.64,0,0,1-2.31-.18v-4.76h4.23l1.11,1.37,1.12-1.36h4.13Z"/><path class="cls-1" d="M124.08,143.34v4.91a26.1,26.1,0,0,1-3.33,0c-.47-.07-.85-.68-1.33-.94a2.61,2.61,0,0,0-1.08-.23c-.52,1.83-2,1.16-3.15,1.26a7.15,7.15,0,0,1-1.71-.32v-4.6h4.29c.37.5.66.88,1,1.25a8.07,8.07,0,0,1,.85-.9,1.52,1.52,0,0,1,.84-.37C121.58,143.32,122.75,143.34,124.08,143.34Z"/><path class="cls-1" d="M124.11,122.7v4.76a18.62,18.62,0,0,1-3.52-.06c-.63-.12-1.14-1.19-1.73-1.21s-1.06,1.08-1.67,1.17c-3.88.62-4.15,0-3.78-3.64,0-.29.11-.57.21-1.08,1.17,0,2.38-.06,3.58,0,.34,0,.62.5,1,.67a6.86,6.86,0,0,0,1.18.32c.23-1.45,1.37-1,2.21-1.08A23.59,23.59,0,0,1,124.11,122.7Z"/><path class="cls-1" d="M111,164v4.38l-1.24,1c.32.26.84.46.93.79.28,1.08.41,2.2.62,3.44h-5.18c.2-1.31-.86-2.91,1.18-3.72.13-.05.19-.81.1-.85-2.39-1.2-1.12-3.16-1-5.08Z"/><path class="cls-1" d="M111,148.18h-4.69v-4.86H111Z"/><path class="cls-1" d="M106.33,81.21H111v4.84h-4.69Z"/><path class="cls-1" d="M111,106.79h-4.69V101.9H111Z"/><path class="cls-1" d="M111.05,122.67v4.75h-4.71v-4.75Z"/><path class="cls-1" d="M126.67,93.32V88.59h4.51v4.73Z"/><path class="cls-1" d="M131.21,94.65v4.69h-4.53V94.65Z"/><path class="cls-1" d="M126.44,136h4.77V141c-1.52-.13-3.43.26-4.19-.51S126.6,137.73,126.44,136Z"/><path class="cls-1" d="M138.34,140.53c-1.54.5-3.33,1-4.22-.14-.66-.85-.68-3.23,0-3.87.83-.79,2.66-.5,4.24-.7Z"/><path class="cls-1" d="M131.19,114.2c-1.48-.11-3.44.32-4.09-.43-.8-.93-.5-2.84-.69-4.5h4.78Z"/><path class="cls-1" d="M131.22,78.71h-4.81c.19-1.66-.11-3.58.69-4.5.65-.75,2.62-.33,4.12-.43Z"/><path class="cls-1" d="M126.84,86c-1-4.95-.08-5.41,4.34-4.54V86Z"/><path class="cls-1" d="M131.18,106.57c-.43.09-.7.16-1,.2-3.28.52-4.23-.51-3.57-3.83.06-.28.11-.57.19-1h4.36Z"/><path class="cls-1" d="M131.17,168.58c-1.52.55-3.33,1-4.26-.17-.66-.85-.67-3.22,0-3.89.82-.8,2.65-.53,4.26-.75Z"/><path class="cls-1" d="M138.36,164.3v4.24c-1.52.47-3.3,1-4.28-.17a4.08,4.08,0,0,1,0-3.8C135,163.24,136.78,163.9,138.36,164.3Z"/><path class="cls-1" d="M142.06,78.82c-2.2,0-2.51-.31-2.52-2.45s.56-2.57,2.55-2.56,2.37.32,2.36,2.59S144.34,78.82,142.06,78.82Z"/><path class="cls-1" d="M142.14,109.16c2.23,0,2.32.11,2.31,2.5,0,2.22-.29,2.52-2.44,2.51-2,0-2.49-.58-2.47-2.64S139.87,109.15,142.14,109.16Z"/><path class="cls-1" d="M149.3,109.17c2.06,0,2.3.28,2.29,2.51,0,2-.46,2.47-2.46,2.46-1.78,0-2.4-.69-2.38-2.62S147.2,109.15,149.3,109.17Z"/><path class="cls-1" d="M151.59,97.08c0,2-.43,2.44-2.47,2.43-1.76,0-2.37-.65-2.37-2.48,0-2.09.43-2.51,2.57-2.49S151.6,94.85,151.59,97.08Z"/><path class="cls-1" d="M144.45,97c0,2.23-.26,2.5-2.42,2.5-2,0-2.48-.5-2.49-2.44,0-2.19.37-2.57,2.58-2.56S144.45,94.68,144.45,97Z"/><path class="cls-1" d="M142.13,101.85c2.26,0,2.33.09,2.32,2.49,0,2.23-.26,2.49-2.44,2.49-2,0-2.49-.54-2.47-2.61S139.87,101.84,142.13,101.85Z"/><path class="cls-1" d="M151.59,76.34c0,2.21-.23,2.46-2.33,2.47s-2.5-.38-2.51-2.4.62-2.57,2.43-2.57C151.17,73.84,151.59,74.27,151.59,76.34Z"/><path class="cls-1" d="M149.21,101.87c2.14,0,2.37.24,2.38,2.41s-.38,2.52-2.36,2.53-2.48-.63-2.48-2.51C146.75,102.26,147.16,101.86,149.21,101.87Z"/><path class="cls-1" d="M142,86.12c-2.18,0-2.49-.31-2.49-2.47,0-2,.53-2.51,2.57-2.5s2.35.29,2.34,2.59S144.35,86.12,142,86.12Z"/><path class="cls-1" d="M149.25,86.11c-2.08,0-2.49-.38-2.5-2.39s.6-2.55,2.44-2.55c2,0,2.4.4,2.4,2.49S151.35,86.1,149.25,86.11Z"/><path class="cls-1" d="M151.59,91.07c0,2.1-.29,2.37-2.44,2.36-2,0-2.41-.45-2.4-2.51,0-1.86.64-2.47,2.54-2.45S151.6,88.92,151.59,91.07Z"/><path class="cls-1" d="M144.45,91c0,2.3-.13,2.42-2.4,2.43s-2.51-.37-2.51-2.49.52-2.53,2.56-2.51S144.46,88.73,144.45,91Z"/><path class="cls-1" d="M144.45,145.79c0,2.19-.27,2.46-2.46,2.44-2,0-2.45-.5-2.45-2.48s.39-2.47,2.55-2.46S144.46,143.47,144.45,145.79Z"/><path class="cls-1" d="M138.28,102c.08.76.18,1.38.2,2,.09,2.61-1.61,3.74-4,2.64a1.18,1.18,0,0,1-.61-.82c-.07-1.23,0-2.46,0-3.82Z"/><path class="cls-1" d="M138.69,86h-4.64c-.44-1.6-1-3.4.19-4.44.73-.65,3.07-.68,3.53-.07C138.54,82.54,138.4,84.29,138.69,86Z"/><path class="cls-1" d="M138.71,78.71h-4.65c-.46-1.59-1-3.39.18-4.44.71-.64,3-.68,3.5-.08C138.52,75.23,138.4,77,138.71,78.71Z"/><path class="cls-1" d="M144.45,70.24c0,2.32-.13,2.46-2.37,2.47s-2.54-.35-2.54-2.45S140,67.8,142,67.79C144.21,67.78,144.45,68,144.45,70.24Z"/><path class="cls-1" d="M144.45,138.51c0,2.17-.29,2.44-2.5,2.42-1.93,0-2.41-.52-2.41-2.52s.47-2.48,2.58-2.46S144.46,136.18,144.45,138.51Z"/><path class="cls-1" d="M133.86,109.29h4.48c0,1.13.1,2.14.14,3.15.05,1.45-.86,1.73-2,1.76-2,.06-2.63-.24-2.74-1.63A24.9,24.9,0,0,1,133.86,109.29Z"/><path class="cls-1" d="M144.45,159.2c0,2.2-.19,2.37-2.46,2.36-2.07,0-2.47-.42-2.45-2.54,0-1.88.59-2.45,2.48-2.46C144.15,156.55,144.46,156.89,144.45,159.2Z"/><path class="cls-1" d="M126.46,161.42c.14-1.62-.21-3.43.51-4.35.91-1.16,2.7-.73,4.24-.06v4.41Z"/><path class="cls-1" d="M144.45,117.72c0,2.24-.23,2.47-2.44,2.47-2,0-2.46-.49-2.47-2.45s.37-2.48,2.52-2.47S144.45,115.4,144.45,117.72Z"/><path class="cls-1" d="M144.45,166.51c0,2.17-.26,2.42-2.5,2.39-2,0-2.41-.47-2.41-2.49s.52-2.51,2.59-2.49S144.47,164.2,144.45,166.51Z"/><path class="cls-1" d="M138.33,94.68c.06,1,.16,1.92.15,2.79,0,1.76-.32,2-2.11,2.06-2.41.06-2.83-.36-2.71-2.83a18.85,18.85,0,0,1,.32-2Z"/><path class="cls-1" d="M126.43,150.72h4.75v4.41c-1.44.71-3.26,1.11-4.15,0C126.28,154.2,126.6,152.35,126.43,150.72Z"/><path class="cls-1" d="M138.71,93.34h-4.63c-.5-1.6-1-3.4.15-4.45.7-.65,3.06-.69,3.52-.08C138.53,89.83,138.4,91.58,138.71,93.34Z"/><path class="cls-1" d="M151.59,132.28c0,2.1-.38,2.51-2.34,2.53s-2.5-.59-2.5-2.46c0-2,.4-2.43,2.44-2.43S151.58,130.16,151.59,132.28Z"/><path class="cls-1" d="M144.45,132.39c0,2.13-.37,2.49-2.49,2.46-1.91,0-2.42-.56-2.42-2.55s.33-2.4,2.58-2.4S144.46,130,144.45,132.39Z"/><path class="cls-1" d="M131.17,134.43c-1.51.64-3.3,1.07-4.2-.09-.72-.93-.37-2.73-.51-4.31h4.71Z"/><path class="cls-1" d="M144.45,153.06c0,2.22-.3,2.53-2.39,2.54s-2.52-.56-2.52-2.57.41-2.44,2.55-2.44S144.46,150.75,144.45,153.06Z"/><path class="cls-1" d="M142.11,122.6c2.26,0,2.35.1,2.34,2.48,0,2.19-.25,2.43-2.49,2.41-2,0-2.42-.5-2.42-2.5S139.87,122.59,142.11,122.6Z"/><path class="cls-1" d="M138.3,150.73a14.58,14.58,0,0,1,.16,2.34c-.07.75-.24,2.06-.56,2.13-1.19.24-2.79.52-3.61-.08-.63-.48-.38-2.25-.45-3.45s.82-1,1.48-1.06C136.26,150.57,137.2,150.68,138.3,150.73Z"/><path class="cls-1" d="M138.35,143.44v4.8c-1.53-.12-3.29.26-4.16-.47-1.09-.92-.64-2.75-.13-4.33Z"/><path class="cls-1" d="M126.45,143.4h4.74v4.48c-1.47.5-3.3,1-4.18-.09C126.25,146.89,126.6,145,126.45,143.4Z"/><path class="cls-1" d="M133.54,130h4.72c.16,1.59.89,3.41-.34,4.39-.79.64-3.08.63-3.61,0C133.54,133.45,133.77,131.67,133.54,130Z"/><path class="cls-1" d="M151.59,153.06c0,2.08-.39,2.49-2.38,2.49s-2.46-.63-2.46-2.52.48-2.43,2.49-2.42S151.59,150.92,151.59,153.06Z"/><path class="cls-1" d="M151.59,125c0,2.09-.34,2.44-2.39,2.45-1.89,0-2.46-.57-2.45-2.48s.42-2.39,2.48-2.38S151.59,122.86,151.59,125Z"/><path class="cls-1" d="M151.59,70.23c0,2.17-.26,2.45-2.32,2.46s-2.51-.41-2.52-2.36.54-2.51,2.42-2.52C151.23,67.81,151.59,68.16,151.59,70.23Z"/><path class="cls-1" d="M138.35,67.77v4.76h-4.29c-.5-1.48-1-3.31.1-4.24C135,67.54,136.8,67.91,138.35,67.77Z"/><path class="cls-1" d="M151.59,159.15c0,2.1-.31,2.4-2.41,2.4s-2.44-.48-2.43-2.47.66-2.5,2.51-2.48S151.59,157,151.59,159.15Z"/><path class="cls-1" d="M138.32,127.13c-4.4,1-5.31.12-4.3-4.37h4.3Z"/><path class="cls-1" d="M138.29,161.41c-.95.06-1.75.16-2.54.16-1.79,0-2.05-.31-2.1-2.21-.06-2.13.37-2.73,2-2.84,2.33-.15,2.82.31,2.78,2.71C138.47,159.89,138.37,160.56,138.29,161.41Z"/><path class="cls-1" d="M126.85,122.69h4.31v4.42C126.7,128.3,125.85,127.22,126.85,122.69Z"/><path class="cls-1" d="M131.23,115.37v4.44c-1.49.53-3.32,1-4.2,0s-.43-2.76-.6-4.39Z"/><path class="cls-1" d="M134,115.38h4.54c-.14,1.59.17,3.38-.56,4.36-.48.65-2.79.67-3.67.05C133,118.89,133.68,117.08,134,115.38Z"/><path class="cls-1" d="M151.59,117.72c0,2.08-.36,2.44-2.4,2.44-1.89,0-2.45-.56-2.44-2.49s.45-2.39,2.49-2.38S151.59,115.56,151.59,117.72Z"/><path class="cls-1" d="M131.18,72.61h-4.27c-1.18-4.64-.12-5.51,4.27-4.49Z"/><path class="cls-1" d="M151.59,166.32c0,2.23-.3,2.56-2.41,2.56-1.88,0-2.41-.51-2.43-2.35s.55-2.57,2.37-2.59C151.2,163.92,151.58,164.29,151.59,166.32Z"/><path class="cls-1" d="M151.59,145.77c0,2.09-.35,2.44-2.41,2.44-1.86,0-2.44-.6-2.43-2.52s.49-2.4,2.51-2.39S151.59,143.62,151.59,145.77Z"/><path class="cls-1" d="M151.59,138.45c0,2.1-.35,2.45-2.39,2.46-1.86,0-2.45-.6-2.45-2.51s.53-2.44,2.49-2.42S151.59,136.33,151.59,138.45Z"/><path class="cls-1" d="M124.2,63.12,124,65.33c-1.27,0-2.49,0-3.7,0a1.52,1.52,0,0,1-.8-.4,7.57,7.57,0,0,1-.77-.83l-1,1.25c-1,0-2.24,0-3.47,0-.25,0-.48-.39-.73-.6.25-.16.48-.44.73-.45.81-.06,1.62,0,2.54,0,.07-1.27.76-1.25,1.78-1.15C120.36,63.24,122.17,63.12,124.2,63.12Z"/><path class="cls-1" d="M156.52,94.56a2.47,2.47,0,0,1-.34,4.93,2.47,2.47,0,0,1,.34-4.93Z"/><path class="cls-1" d="M156.4,109.18a2.4,2.4,0,0,1,2.33,2.56,2.41,2.41,0,1,1-4.82-.1A2.39,2.39,0,0,1,156.4,109.18Z"/><path class="cls-1" d="M158.73,91a2.4,2.4,0,0,1-2.43,2.47A2.45,2.45,0,0,1,153.91,91a2.41,2.41,0,0,1,2.49-2.53A2.46,2.46,0,0,1,158.73,91Z"/><path class="cls-1" d="M158.73,76.3a2.39,2.39,0,0,1-2.39,2.5,2.47,2.47,0,1,1,2.39-2.5Z"/><path class="cls-1" d="M158.73,83.65a2.39,2.39,0,0,1-2.43,2.45,2.46,2.46,0,0,1,.1-4.92A2.45,2.45,0,0,1,158.73,83.65Z"/><path class="cls-1" d="M158.73,104.29a2.41,2.41,0,1,1-2.46-2.41A2.4,2.4,0,0,1,158.73,104.29Z"/><path class="cls-1" d="M162.28,78.79a2.47,2.47,0,0,1-2.42-2.44,2.54,2.54,0,0,1,2.32-2.47,2.49,2.49,0,0,1,2.49,2.51A2.52,2.52,0,0,1,162.28,78.79Z"/><path class="cls-1" d="M162.23,109.19a2.46,2.46,0,0,1,0,4.91,2.55,2.55,0,0,1-2.37-2.42A2.48,2.48,0,0,1,162.23,109.19Z"/><path class="cls-1" d="M158.73,117.77a2.32,2.32,0,0,1-2.38,2.37,2.29,2.29,0,0,1-2.44-2.39,2.41,2.41,0,1,1,4.82,0Z"/><path class="cls-1" d="M162.2,94.57A2.48,2.48,0,0,1,164.67,97a2.41,2.41,0,1,1-2.47-2.47Z"/><path class="cls-1" d="M167,96.92a2.52,2.52,0,0,1,2.49-2.33A2.44,2.44,0,1,1,167,96.92Z"/><path class="cls-1" d="M158.73,125.08a2.32,2.32,0,0,1-2.39,2.37,2.29,2.29,0,0,1-2.43-2.39,2.41,2.41,0,1,1,4.82,0Z"/><path class="cls-1" d="M162.2,101.88a2.47,2.47,0,0,1,2.47,2.46,2.41,2.41,0,1,1-2.47-2.46Z"/><path class="cls-1" d="M169.29,93.39A2.54,2.54,0,0,1,167,90.81a2.39,2.39,0,1,1,4.77.19A2.58,2.58,0,0,1,169.29,93.39Z"/><path class="cls-1" d="M162.25,93.4a2.47,2.47,0,0,1-2.39-2.47,2.54,2.54,0,0,1,2.35-2.44A2.49,2.49,0,0,1,164.67,91,2.52,2.52,0,0,1,162.25,93.4Z"/><path class="cls-1" d="M156.3,129.93a2.36,2.36,0,0,1,2.43,2.41,2.3,2.3,0,0,1-2.34,2.43,2.42,2.42,0,1,1-.09-4.84Z"/><path class="cls-1" d="M169.48,109.2a2.61,2.61,0,0,1,2.32,2.44,2.39,2.39,0,1,1-4.77-.07A2.6,2.6,0,0,1,169.48,109.2Z"/><path class="cls-1" d="M167,104.24a2.56,2.56,0,0,1,2.48-2.35,2.62,2.62,0,0,1,2.29,2.47,2.66,2.66,0,0,1-2.4,2.41A2.6,2.6,0,0,1,167,104.24Z"/><path class="cls-1" d="M162.19,86.09a2.45,2.45,0,1,1,2.48-2.45A2.47,2.47,0,0,1,162.19,86.09Z"/><path class="cls-1" d="M169.34,86.08a2.44,2.44,0,0,1,.08-4.88,2.7,2.7,0,0,1,2.38,2.44A2.57,2.57,0,0,1,169.34,86.08Z"/><path class="cls-1" d="M156.41,164a2.4,2.4,0,0,1,2.32,2.52,2.45,2.45,0,0,1-2.52,2.37,2.49,2.49,0,0,1-2.3-2.5A2.42,2.42,0,0,1,156.41,164Z"/><path class="cls-1" d="M158.73,138.48a2.41,2.41,0,1,1-4.82-.08,2.49,2.49,0,0,1,2.4-2.4A2.44,2.44,0,0,1,158.73,138.48Z"/><path class="cls-1" d="M158.73,159.18a2.41,2.41,0,1,1-2.42-2.54A2.4,2.4,0,0,1,158.73,159.18Z"/><path class="cls-1" d="M162.22,161.52a2.51,2.51,0,0,1-2.36-2.45,2.41,2.41,0,1,1,4.81,0A2.48,2.48,0,0,1,162.22,161.52Z"/><path class="cls-1" d="M159.86,153.06a2.47,2.47,0,0,1,2.4-2.43,2.54,2.54,0,0,1,2.41,2.34,2.48,2.48,0,0,1-2.46,2.52A2.55,2.55,0,0,1,159.86,153.06Z"/><path class="cls-1" d="M156.35,150.62a2.43,2.43,0,0,1,2.38,2.48,2.41,2.41,0,0,1-2.39,2.42,2.45,2.45,0,0,1,0-4.9Z"/><path class="cls-1" d="M156.36,143.32a2.44,2.44,0,1,1-2.45,2.34A2.43,2.43,0,0,1,156.36,143.32Z"/><path class="cls-1" d="M164.67,132.31a2.43,2.43,0,0,1-2.39,2.44,2.39,2.39,0,0,1-2.42-2.34,2.41,2.41,0,1,1,4.81-.1Z"/><path class="cls-1" d="M169.57,74.78l1.31,1.42.81-.83c.23,1.83-.63,3.33-2,3.41a2.5,2.5,0,0,1-2.7-2.43c0-1.55,1.24-2.5,3.16-2.4Z"/><path class="cls-1" d="M174.34,93.3c-.4-1.16-2.36-1.92-.91-3.55.78-.88,1.67-1.81,2.95-1.08a3.22,3.22,0,0,1,1.23,3.15A3.19,3.19,0,0,1,174.34,93.3Z"/><path class="cls-1" d="M175.86,86.2c-1.12.53-1.93-.81-2.72-1.76-.28-.33,0-1.45.39-2,.66-1,1.74-1.94,2.88-1C178.09,82.83,178.29,84.5,175.86,86.2Z"/><path class="cls-1" d="M167.09,124c1.11-.59,2-2.26,3.51-1,.89.76,1.94,1.86,1,3.11-.63.82-1.59,1.73-2.93,1.27C167.62,127,167,125.63,167.09,124Z"/><path class="cls-1" d="M159.86,125.05a2.44,2.44,0,0,1,2.4-2.42,2.48,2.48,0,0,1,2.41,2.33,2.41,2.41,0,1,1-4.81.09Z"/><path class="cls-1" d="M159.86,145.72a2.52,2.52,0,0,1,2.45-2.39,2.56,2.56,0,0,1,2.36,2.41,2.41,2.41,0,1,1-4.81,0Z"/><path class="cls-1" d="M164.67,166.48a2.55,2.55,0,0,1-2.42,2.36,2.43,2.43,0,1,1,2.42-2.36Z"/><path class="cls-1" d="M167.18,116.64c1-.56,1.89-2.28,3.44-.93.91.79,1.68,1.75,1.07,3.05-.44.93-2.37,1.76-3.05,1.27C167.6,119.27,166.44,118.42,167.18,116.64Z"/><path class="cls-1" d="M159.86,117.75a2.45,2.45,0,0,1,2.4-2.43,2.5,2.5,0,0,1,2.41,2.34,2.41,2.41,0,1,1-4.81.09Z"/><path class="cls-1" d="M162.28,136a2.58,2.58,0,0,1,2.39,2.39,2.41,2.41,0,1,1-2.39-2.39Z"/><path class="cls-1" d="M167,132.32a2.46,2.46,0,0,1,2.41-2.38,2.58,2.58,0,0,1,2.36,2.36,2.47,2.47,0,0,1-2.4,2.42A2.43,2.43,0,0,1,167,132.32Z"/><path class="cls-1" d="M174.2,102.09c1.74-.8,2.57.44,3.38,1.4.51.6-.24,2.6-1.21,3.09a2.23,2.23,0,0,1-2,0,3.53,3.53,0,0,1-1.24-2.3C173.12,103.5,173.86,102.72,174.2,102.09Z"/><path class="cls-1" d="M176.37,109.27c.49,1.14,2.25,1.94.92,3.56-.75.92-1.69,1.82-2.86,1.09a3.23,3.23,0,0,1-1.3-2.25c0-.77.69-1.58,1.09-2.4Z"/><path class="cls-1" d="M175.43,94.6a2.5,2.5,0,0,1,2.24,2.53,2.6,2.6,0,0,1-2.35,2.32A2.69,2.69,0,0,1,173,97,2.62,2.62,0,0,1,175.43,94.6Z"/><path class="cls-1" d="M144.72,173.69h-5.41c.32-1.21.29-2.84.93-3.17a4.4,4.4,0,0,1,3.59,0C144.45,170.79,144.41,172.45,144.72,173.69Z"/><path class="cls-1" d="M131.23,170.44v3.25h-4.85c.17-1.15,0-2.62.55-3.18C128.05,169.44,129.65,169.79,131.23,170.44Z"/><path class="cls-1" d="M151.88,173.68h-5c-.18-1.14-.57-2.56.56-3.12a4.2,4.2,0,0,1,3.42,0C151.52,170.9,151.54,172.47,151.88,173.68Z"/><path class="cls-1" d="M169.4,136a2.41,2.41,0,0,1,0,4.82,2.57,2.57,0,0,1-2.4-2.5A2.64,2.64,0,0,1,169.4,136Z"/><path class="cls-1" d="M167.09,160.22c-.09-1.48.72-3.37,1.58-3.45a3.34,3.34,0,0,1,2,.52c1,.66,1.8,1.88.89,2.84-.47.5-.95,2-2.23,1.37C168.52,161.12,167.79,160.63,167.09,160.22Z"/><path class="cls-1" d="M167.1,152c1.11-.54,2-2.35,3.49-1,.82.74,2,1.82,1,3-.64.78-1.5,2-3,1.41C167.81,155.1,167,153.38,167.1,152Z"/><path class="cls-1" d="M167,166.39a2.39,2.39,0,1,1,2.4,2.43A2.5,2.5,0,0,1,167,166.39Z"/><path class="cls-1" d="M167.18,144.68c1-.51,1.88-2.39,3.42-.94.82.77,2,1.83,1,3-.64.77-1.63,2.2-2.95,1.32C167.66,147.39,166.47,146.46,167.18,144.68Z"/><path class="cls-1" d="M138.35,170c.07,1.56.12,2.56.17,3.67h-5c.19-1.11.05-2.83.63-3.14C135.29,169.93,136.81,170.13,138.35,170Z"/><path class="cls-1" d="M174.54,122.74c1.38-.64,2.39.38,3,1.47.74,1.24-.36,2.26-1.19,2.94a2.15,2.15,0,0,1-2.1,0C172.61,125.74,172.46,124.16,174.54,122.74Z"/><path class="cls-1" d="M173,117.58a2.55,2.55,0,0,1,2.38-2.23,2.44,2.44,0,0,1,2.25,2.46,2.41,2.41,0,0,1-2.41,2.27A2.47,2.47,0,0,1,173,117.58Z"/><path class="cls-1" d="M173,132.28a2.58,2.58,0,0,1,2.29-2.33,2.37,2.37,0,1,1-2.29,2.33Z"/><path class="cls-1" d="M182,109.25a2.41,2.41,0,0,1,2.8,2.52,2.58,2.58,0,0,1-3,2.2C179.92,112.45,179.42,110.92,182,109.25Z"/><path class="cls-1" d="M189.06,109.23c1.39-.67,2.12.8,2.73,1.72.84,1.27-1.89,4-3,2.91-.65-.69-2.12-1.45-1.42-2.92C187.68,110.38,188.3,110,189.06,109.23Z"/><path class="cls-1" d="M183.49,94.8c.38,1,2.13,1.71,1.14,3-.62.83-1.37,2.31-3.07,1.41-.57-.9-2.13-1.83-1.18-3.17C181,95.29,181.84,93.78,183.49,94.8Z"/><path class="cls-1" d="M181.56,88.62c1.9-.16,3.23.82,3.23,2.37s-1.28,2.43-3,2.33l-1.65-1.83C179.42,90.29,181.21,89.75,181.56,88.62Z"/><path class="cls-1" d="M183.46,86h-1.83c-1-2-1-2.22,0-4.9.65.16,1.52.12,2,.55a3.48,3.48,0,0,1,1.14,2.22C184.69,84.6,183.91,85.29,183.46,86Z"/><path class="cls-1" d="M188.82,93.31a5.27,5.27,0,0,0-.86-1.15,1.39,1.39,0,0,1,0-2.32c.67-.4.78-1.86,1.92-1.24a5,5,0,0,1,1.95,1.82c.29.51,0,1.19-.59,1.91A2.34,2.34,0,0,1,188.82,93.31Z"/><path class="cls-1" d="M189,94.69a3.35,3.35,0,0,1,2.85,1.64c.53,1.49-2,4-3.07,2.91-.66-.71-2.11-1.48-1.38-2.94C187.7,95.73,188.34,95.35,189,94.69Z"/><path class="cls-1" d="M188.61,102.14c1.81-.91,2.34.72,3.18,1.5.22.2-.14,1.26-.45,1.8-.57,1-1.5,1.88-2.65,1.08a3.34,3.34,0,0,1-1.23-2.29C187.44,103.52,188.22,102.79,188.61,102.14Z"/><path class="cls-1" d="M181.49,102h2c.36,1.13,2.3,1.84,1,3.47-.69.85-1.68,2-2.77,1.15-.55-.45-1.87-1.06-1.44-2.3A15,15,0,0,1,181.49,102Z"/><path class="cls-1" d="M173.17,137.41c1-.59,1.86-2.3,3.37-1,.83.71,1.65,1.73,1,3a2.8,2.8,0,0,1-3,1.37,1.33,1.33,0,0,1-.38-.37C173.43,139.57,172.58,138.77,173.17,137.41Z"/><path class="cls-1" d="M175.27,161.5a2.39,2.39,0,0,1,.13-4.78,2.56,2.56,0,0,1,2.27,2.42A2.5,2.5,0,0,1,175.27,161.5Z"/><path class="cls-1" d="M177.67,145.72a2.56,2.56,0,0,1-2.27,2.41,2.6,2.6,0,0,1-2.36-2.35,2.51,2.51,0,0,1,2.38-2.42A2.54,2.54,0,0,1,177.67,145.72Z"/><path class="cls-1" d="M173.2,152c1-.56,1.82-2.29,3.35-1,.83.72,1.74,1.84.94,3-.62.87-1.66,2.23-2.91,1.33C173.68,154.67,172.34,153.72,173.2,152Z"/><path class="cls-1" d="M174.48,168.59c-.37-.33-.86-.59-1.08-1a2.08,2.08,0,0,1-.31-1.54,4,4,0,0,1,1.54-1.91,1.63,1.63,0,0,1,2.17.62c.66.9,1.27,1.81.73,2.55C176.85,168.23,175.93,169.48,174.48,168.59Z"/><path class="cls-1" d="M182.33,160.61l-1.15-1.34-.86.88c-.22-1.77.64-3.31,1.9-3.4a2.5,2.5,0,0,1,2.57,2.38c0,1.52-1.3,2.43-3.24,2.27Z"/><path class="cls-1" d="M189,161.39l-1.33-1.15s-.13,0-.13,0c-.07-.56-.36-1.26-.14-1.65a4.28,4.28,0,0,1,1.66-1.69,2,2,0,0,1,1.64.34,2.89,2.89,0,0,1,1.12,1.56C192.18,160.42,190.72,161.56,189,161.39Z"/><path class="cls-1" d="M188.64,143.56c1.65-.8,2.33.63,3.15,1.44.24.24-.06,1.33-.4,1.84-.61.95-1.7,1.91-2.63,1-.49-.49-1.9-1-1.37-2.21A15.09,15.09,0,0,1,188.64,143.56Z"/><path class="cls-1" d="M181.85,168.73l-1.31-1.15s-.13,0-.13,0c-.07-.61-.37-1.35-.14-1.79a4,4,0,0,1,1.7-1.62,2,2,0,0,1,1.66.33,2.88,2.88,0,0,1,1.11,1.56C185.08,167.78,183.69,168.89,181.85,168.73Z"/><path class="cls-1" d="M181,138.26l1.35-1.13-.89-.92c1.75-.26,3.24.61,3.33,1.94a2.55,2.55,0,0,1-2.31,2.65c-1.43,0-2.34-1.36-2.22-3.31Z"/><path class="cls-1" d="M189.66,136.1a2.66,2.66,0,0,1,2.24,2.38,2.81,2.81,0,0,1-2.24,2.28,2.72,2.72,0,0,1-2.3-2.44A2.85,2.85,0,0,1,189.66,136.1Z"/><path class="cls-1" d="M180.41,144.71c.94-.44,1.73-2.36,3.17-1,.69.66,1.86,1.55,1.11,2.93-.55,1-2.38,1.95-2.91,1.36C181,147.18,179.52,146.55,180.41,144.71Z"/><path class="cls-1" d="M188.8,115.62a2,2,0,0,1,2.92,1.3c.53,2.27-.75,3.6-3,2.84-.59-.2-2-1.38-1.28-2.77C187.69,116.44,188.33,116.07,188.8,115.62Z"/><path class="cls-1" d="M187.6,131.47a4.94,4.94,0,0,1,.94-1.12c.39-.25,1-.48,1.36-.31a4.34,4.34,0,0,1,1.9,1.59,1.74,1.74,0,0,1-.58,2.08c-.86.8-1.77,1.34-2.45.73S186.63,133,187.6,131.47Z"/><path class="cls-1" d="M180.24,131.65c.47-.57.72-1.07,1.12-1.3s1.12-.51,1.48-.33a4,4,0,0,1,1.85,1.62,1.72,1.72,0,0,1-.56,2.09,2.4,2.4,0,0,1-2.51.84C180.82,134.31,180.18,132.57,180.24,131.65Z"/><path class="cls-1" d="M187.42,167.33c-.1-1.79.86-3.22,2.16-3.24a2.61,2.61,0,0,1,2.32,2.5c-.06,1.3-1.43,2.22-3.16,2.1l.73-.74-.66-2Z"/><path class="cls-1" d="M188.38,124.89l1.1-1.39-.75-.76c1.87-.11,3.15.78,3.17,2.21a2.53,2.53,0,0,1-2.3,2.37c-1.39,0-2.28-1.32-2.19-3.22Z"/><path class="cls-1" d="M180.4,124.16a4.35,4.35,0,0,1,1-1.11c.43-.26,1.12-.52,1.48-.33a4.06,4.06,0,0,1,1.85,1.61,1.73,1.73,0,0,1-.56,2.1c-.85.78-1.77,1.35-2.46.78S179.47,125.66,180.4,124.16Z"/><path class="cls-1" d="M181.93,115.31c1.25-.58,2.25.63,2.75,1.69.85,1.75-1.9,3.9-3.11,2.87-.76-.64-2-1.53-1.31-2.94C180.53,116.37,181.18,116,181.93,115.31Z"/><path class="cls-1" d="M181,152.86l1.36-1.12-.9-.92c1.76-.26,3.25.6,3.34,1.94a2.55,2.55,0,0,1-2.31,2.65c-1.42,0-2.34-1.36-2.22-3.3Z"/><path class="cls-1" d="M188.19,152.94l1.36-1.33-.82-.84c1.72-.12,3.11.8,3.17,2.09a2.6,2.6,0,0,1-2.31,2.51c-1.3,0-2.27-1.44-2.18-3.23Z"/><path class="cls-1" d="M202.69,136.16a2.91,2.91,0,0,1,2.26,2.26,3,3,0,0,1-2.18,2.24,3.09,3.09,0,0,1-2.22-2.15A3,3,0,0,1,202.69,136.16Z"/><path class="cls-1" d="M205,145.66a3,3,0,0,1-2.11,2.31,2.84,2.84,0,0,1-2.29-2.23,3.2,3.2,0,0,1,2.07-2.27A2.89,2.89,0,0,1,205,145.66Z"/><path class="cls-1" d="M193.42,145.16l1.13-1.34s0-.13,0-.14c.54-.08,1.22-.4,1.58-.18a4.67,4.67,0,0,1,1.63,1.73,1.83,1.83,0,0,1-.31,1.53,3.13,3.13,0,0,1-1.6,1.21C194.37,148.28,193.28,146.79,193.42,145.16Z"/><path class="cls-1" d="M195.15,94.63c1.38-.62,2,1,2.6,1.83.78,1.22-2,3.7-2.91,2.69-.66-.72-2.06-1.39-1.41-2.8C193.7,95.77,194.36,95.39,195.15,94.63Z"/><path class="cls-1" d="M194.84,151c1.53-1,2.71.64,2.83,1.32.38,2-.85,3.36-2.93,2.72-.48-.15-2.07-1.29-1.31-2.72C193.72,151.8,194.36,151.45,194.84,151Z"/><path class="cls-1" d="M205,153a3,3,0,0,1-2.1,2.32,2.84,2.84,0,0,1-2.3-2.22,3.24,3.24,0,0,1,2.07-2.28A2.92,2.92,0,0,1,205,153Z"/><path class="cls-1" d="M202.76,161.38a3,3,0,0,1-2.21-2.27,3.11,3.11,0,0,1,2.16-2.22,3,3,0,0,1,2.24,2.17A2.84,2.84,0,0,1,202.76,161.38Z"/><path class="cls-1" d="M205.22,166.74a11.75,11.75,0,0,1-2.39,1.89c-.72.33-2.25-1.25-2.28-2.12a2.89,2.89,0,0,1,2.19-2.32C203.57,164.19,204.94,165.56,205.22,166.74Z"/><path class="cls-1" d="M195.53,168.73a3,3,0,0,1-2.16-2.37,2.86,2.86,0,0,1,2.35-2.23,3,3,0,0,1,2.14,2.35A3,3,0,0,1,195.53,168.73Z"/><path class="cls-1" d="M194.79,102h1.72c0,1.2,2.51,1.69,1,3.29-.66.69-1.41,2.11-2.68,1.17a3.45,3.45,0,0,1-1.33-2.27C193.45,103.5,194.29,102.77,194.79,102Z"/><path class="cls-1" d="M205,117.74a2.86,2.86,0,0,1-2.25,2.18,2.94,2.94,0,0,1-2.15-2.24,3,3,0,0,1,2.22-2.25A2.84,2.84,0,0,1,205,117.74Z"/><path class="cls-1" d="M194.22,117.63l1.36-1.34-.82-.83c1.62-.1,3.07.89,3.1,2.13a2.67,2.67,0,0,1-2.3,2.38c-1.29,0-2.24-1.42-2.13-3.15Z"/><path class="cls-1" d="M202.72,130a2.25,2.25,0,0,1,0,4.49,3,3,0,0,1-2.2-2.19A2.93,2.93,0,0,1,202.72,130Z"/><path class="cls-1" d="M195.06,130c1.38-.69,2.51.93,2.62,1.56.36,2.1-.83,3.44-3,2.7-.54-.18-2-1.28-1.27-2.66C193.72,131.07,194.35,130.7,195.06,130Z"/><path class="cls-1" d="M194.83,109.55c1.67-1,2.33.65,2.92,1.5.81,1.17-1.95,3.71-2.88,2.71-.66-.7-2.09-1.36-1.44-2.78C193.69,110.41,194.35,110,194.83,109.55Z"/><path class="cls-1" d="M195.53,161.42a3,3,0,0,1-2.16-2.36,2.87,2.87,0,0,1,2.34-2.23,3,3,0,0,1,2.15,2.34A2.93,2.93,0,0,1,195.53,161.42Z"/><path class="cls-1" d="M194.86,136.38c1.51-1,2.69.67,2.81,1.34.38,2.05-.85,3.36-2.93,2.73-.48-.15-2.07-1.29-1.31-2.72C193.73,137.18,194.37,136.83,194.86,136.38Z"/><path class="cls-1" d="M193.4,124.46l1.15-1.41s0-.13,0-.13c.54-.07,1.24-.37,1.61-.14a4.57,4.57,0,0,1,1.59,1.76,1.82,1.82,0,0,1-.34,1.52,3,3,0,0,1-1.52,1.17C194.48,127.55,193.33,126.08,193.4,124.46Z"/><path class="cls-1" d="M202.75,122.74a2.24,2.24,0,0,1,0,4.48,3,3,0,0,1-2.17-2.22A3,3,0,0,1,202.75,122.74Z"/><path class="cls-1" d="M158.52,173.7h-4.37c-.8-1.56,0-2.64,1.08-3.39a2.32,2.32,0,0,1,2.16,0A2.55,2.55,0,0,1,158.52,173.7Z"/><path class="cls-1" d="M164.48,173.68c-.33,0-.69.06-1.06.07h-3.75a9.56,9.56,0,0,1,.67-2.58,2.1,2.1,0,0,1,2.83-.94A2.57,2.57,0,0,1,164.48,173.68Z"/><path class="cls-1" d="M201.94,109.4a3.44,3.44,0,0,1,3,1.74c.44,1.33-2.13,3.52-2.92,2.5-.55-.72-2.09-1.27-1.33-2.54.31-.52,1.4-.55,2.13-.8Z"/><path class="cls-1" d="M202,102.08a3.49,3.49,0,0,1,3,1.77c.42,1.35-2.17,3.51-2.93,2.47-.54-.73-2.15-1.23-1.32-2.55.33-.52,1.37-.58,2.09-.85Z"/><path class="cls-1" d="M158.61,69.11c.25,2.6-.55,3.65-2.59,3.56a2.72,2.72,0,0,1-2-3.36c.1-.23.5-.31.76-.46,0,0,.1,0,.14,0Z"/><path class="cls-1" d="M171.56,173.69h-4.73a9.33,9.33,0,0,1,.72-2.48,2,2,0,0,1,2.8-.91C171.33,171,172.43,172,171.56,173.69Z"/><path class="cls-1" d="M177.43,173.66h-4.16c-.94-1.61.29-2.49,1.11-3.31a2,2,0,0,1,2,0C177.22,171.14,178.29,172.07,177.43,173.66Z"/><path class="cls-1" d="M180.42,173.64c-.95-1.77.51-2.45,1.25-3.34a1.73,1.73,0,0,1,1.72,0c.78.85,2.1,1.61,1.13,3.3Z"/><path class="cls-1" d="M191.63,173.65h-4.51a14,14,0,0,1,.81-2.29c.57-1,1.63-1.7,2.56-1S192.6,172,191.63,173.65Z"/><path class="cls-1" d="M193.57,173.59c-.94-1.69.72-2.23,1.27-3.21.13-.24,1.37-.24,1.57,0,.62.88,2.16,1.45,1.21,3.17Z"/><path class="cls-1" d="M202.79,173.81c-.79-.36-2.28.6-2.24-1.31a2.2,2.2,0,0,1,4.4,0C205,174.34,203.59,173.47,202.79,173.81Z"/><path class="cls-1" d="M128.36,64.22H131c.12,1.24-1.4,1.54-4.48.87L127,63Z"/><path class="cls-1" d="M196.59,93.25h-1.73a9.08,9.08,0,0,1-.91-1.17,5.11,5.11,0,0,1-.55-1.42c-.05-.19.2-.45.32-.68.26.26.51.53.79.77.68.59,1.4,1.14,2.07,1.75C196.69,92.61,196.59,93,196.59,93.25Z"/><path class="cls-1" d="M217,144.54c-.1,1.1.93,2.61-1.16,2.62-1.22,0-1.43-.66-1.33-1.65C214.7,143.49,216.13,144.89,217,144.54Z"/><path class="cls-1" d="M208.86,144.26a6.59,6.59,0,0,1,2.34.68c.27.2.13,1.47-.22,1.91s-1.56.51-1.75.24a7.71,7.71,0,0,1-.82-2.34Z"/><path class="cls-1" d="M208.87,136.94a6.61,6.61,0,0,1,2.34.71c.27.2.12,1.47-.25,1.91s-1.55.49-1.75.22a7.69,7.69,0,0,1-.79-2.34Z"/><path class="cls-1" d="M217.26,137c-.45,1.23.71,2.67-1.25,2.83-1.18.09-1.63-.41-1.53-1.59C214.66,136.26,216.06,137.46,217.26,137Z"/><path class="cls-1" d="M217,160.26c-1-.17-2.41,1-2.56-1-.09-1.21.42-1.65,1.56-1.55C218.05,157.88,216.68,159.38,217,160.26Z"/><path class="cls-1" d="M208.45,160.16a6.92,6.92,0,0,1,.72-2.37c.2-.28,1.44-.11,1.86.27s.46,1.6.2,1.79a7.32,7.32,0,0,1-2.31.78Z"/><path class="cls-1" d="M221.63,131.1h2.59a7.54,7.54,0,0,1-.3,2.43,2,2,0,0,1-1.77,0A7.22,7.22,0,0,1,221.63,131.1Z"/><path class="cls-1" d="M217.3,130.85c-.55,1.26.74,2.79-1.34,2.94-1.27.1-1.55-.56-1.47-1.65C214.63,130.12,216.05,131.32,217.3,130.85Z"/><path class="cls-1" d="M217,167.57c-1.06-.11-2.54,1-2.56-1.17,0-1.23.61-1.47,1.59-1.38C218.05,165.21,216.68,166.69,217,167.57Z"/><path class="cls-1" d="M217,151.83c-.17,1,1,2.47-1,2.62-1.19.09-1.62-.43-1.52-1.6C214.65,150.79,216.12,152.2,217,151.83Z"/><path class="cls-1" d="M208.46,167.48a7,7,0,0,1,.69-2.38c.21-.28,1.45-.12,1.88.25a2,2,0,0,1,.21,1.8,7.48,7.48,0,0,1-2.32.79Z"/><path class="cls-1" d="M208.91,151.54a6.48,6.48,0,0,1,2.31.75c.27.22.09,1.48-.28,1.91s-1.57.45-1.76.18a7.65,7.65,0,0,1-.74-2.37Z"/><path class="cls-1" d="M217,116.33v2.92c-.83-.14-1.76,0-2.21-.48a2,2,0,0,1-.1-2C215.14,116.39,216.07,116.49,217,116.33Z"/><path class="cls-1" d="M208.91,116.18a6.36,6.36,0,0,1,2.31.76c.28.24.14,1.54-.24,1.92s-1.69.49-1.87.21a7.19,7.19,0,0,1-.64-2.44Z"/><path class="cls-1" d="M208.71,173.79c-.22-2.6-.13-2.73,1.21-2.79s1.6.72,1.44,1.77C211.06,174.69,209.65,173.35,208.71,173.79Z"/><path class="cls-1" d="M208.93,123.48a6.27,6.27,0,0,1,2.29.78c.29.25.13,1.55-.25,1.92s-1.7.47-1.88.19a7.23,7.23,0,0,1-.61-2.45Z"/><path class="cls-1" d="M217.3,123.55c-.55,1.25.74,2.78-1.34,2.94-1.27.09-1.55-.57-1.47-1.66C214.63,122.82,216.05,124,217.3,123.55Z"/><path class="cls-1" d="M217.27,173.68h-2.82a6.55,6.55,0,0,1,.46-2.38,1.85,1.85,0,0,1,1.78-.08A7.06,7.06,0,0,1,217.27,173.68Z"/><path class="cls-1" d="M209,130.76a6.09,6.09,0,0,1,2.27.84c.28.26.11,1.55-.28,1.91s-1.72.44-1.89.16a7.39,7.39,0,0,1-.56-2.48Z"/><path class="cls-1" d="M209.89,113.08c-1.12.19-1.28-.48-1.31-1.46s.29-1.45,1.37-1.43,1.45.44,1.44,1.47S211,113.21,209.89,113.08Z"/><path class="cls-1" d="M224.36,173.69h-2.67a6,6,0,0,1,.4-2.33,1.82,1.82,0,0,1,1.78-.06A6.81,6.81,0,0,1,224.36,173.69Z"/><path class="cls-1" d="M231.28,171.38v2.3h-2.11C228.51,171.29,228.86,170.89,231.28,171.38Z"/><path class="cls-1" d="M173.26,76.4l1.47-.07c.66.57,1.1.92,1.5,1.32.17.18.37.48.33.67a.72.72,0,0,1-.58.42c-.69-.13-1.73.6-2-.86-.07-.41-.73-.71-1.11-1.06Z"/><path class="cls-1" d="M160,70.35h2.08l-.16.25a6.73,6.73,0,0,1,1.21,1c.19.22.13.66.18,1-.82-.06-1.79.67-2.41-.56a6.84,6.84,0,0,0-1.18-1.3Z"/><path class="cls-1" d="M106,64.22c1.74,0,3.06,0,4.38,0,.2,0,.39.29.58.45-.19.21-.36.6-.56.61a29.86,29.86,0,0,1-3.54,0C106.66,65.27,106.47,64.78,106,64.22Z"/><path class="cls-1" d="M221.84,137.24h2.3v2.36h-2.3Z"/><path class="cls-1" d="M229,158h2.22v2.32H229Z"/><path class="cls-1" d="M224.17,157.93v2.35h-2.32v-2.35Z"/><path class="cls-1" d="M135.72,64.19a4.35,4.35,0,0,1,1,0c.55.18,1.09.4,1.63.61a7.26,7.26,0,0,1-1.56.55,8.8,8.8,0,0,1-2.11-.08c-.25,0-.48-.31-.71-.47.26-.19.5-.48.79-.55A3.65,3.65,0,0,1,135.72,64.19Z"/><path class="cls-1" d="M224.17,144.55v2.35h-2.31v-2.35Z"/><path class="cls-1" d="M224.14,154.27h-2.25v-2.38h2.25Z"/><path class="cls-1" d="M229,165.25h2.24v2.3H229Z"/><path class="cls-1" d="M224.17,165.24v2.34h-2.32v-2.34Z"/><path class="cls-1" d="M231.27,151.94v2.24h-2.21v-2.24Z"/><path class="cls-2" d="M97.45,164.71a102.06,102.06,0,0,0-67.27,0V87.61a67,67,0,0,1,67.27,0Z"/><path class="cls-2" d="M97.45,164.71a102.06,102.06,0,0,0-67.27,0V87.61a67,67,0,0,1,67.27,0Z"/><rect class="cls-2" x="152.96" y="135.53" width="16.74" height="38.22"/><path class="cls-2" d="M166.71,164.71a102.06,102.06,0,0,0-67.27,0V87.61a67,67,0,0,1,67.27,0Z"/><path class="cls-3" d="M100.26,165a97.2,97.2,0,0,0-63.9,0V92a63.83,63.83,0,0,1,63.9,0Z"/><path class="cls-4" d="M172,165a107.74,107.74,0,0,0-67.37,0V92A70.47,70.47,0,0,1,172,92Z"/><path class="cls-5" d="M167.16,165.93a103.37,103.37,0,0,0-68.17,0V87.74a67.85,67.85,0,0,1,68.17,0Z"/><path class="cls-5" d="M47.6,100.43a44.47,44.47,0,0,1,32.42,0"/><path class="cls-5" d="M47.6,114.53a44.47,44.47,0,0,1,32.42,0"/><path class="cls-5" d="M47.6,128.64a44.47,44.47,0,0,1,32.42,0"/><path class="cls-5" d="M47.6,142.74a44.47,44.47,0,0,1,32.42,0"/><path class="cls-5" d="M30.87,116.2v-9"/><path class="cls-5" d="M52,79.79a68.09,68.09,0,0,1,47,7.95v78.19a103.34,103.34,0,0,0-68.16,0V124.22"/><path class="cls-5" d="M30.83,98.9V87.74a62.5,62.5,0,0,1,12-5.51"/><path class="cls-5" d="M116.87,100.43a44.47,44.47,0,0,1,32.42,0"/><path class="cls-5" d="M116.87,114.53a44.47,44.47,0,0,1,32.42,0"/><path class="cls-5" d="M116.87,128.64a44.47,44.47,0,0,1,32.42,0"/><path class="cls-5" d="M116.87,142.74a44.47,44.47,0,0,1,32.42,0"/><rect class="cls-2" x="152.26" y="131.61" width="11.22" height="34.79"/><rect class="cls-2" x="169.7" y="136.2" width="11.16" height="37.46"/><rect class="cls-2" x="175.26" y="110.04" width="10.13" height="27.83" transform="translate(71.6 -65.94) rotate(25.7)"/><rect class="cls-6" x="157.01" y="132.56" width="11.61" height="41.5"/><line class="cls-5" x1="153.01" y1="147.6" x2="153.01" y2="142.72"/><polyline class="cls-5" points="153.01 136.18 153.01 131.93 168.62 131.93 168.62 173.43 153.01 173.43 153.01 154.1"/><path class="cls-7" d="M212.76,132.34H190a1.21,1.21,0,0,1-1.12-1.66l4-9.78a6.73,6.73,0,0,0-3.28-8.73,6.55,6.55,0,0,0-8.73,3.49l-8,16.68h0v41.5h35.73a3.47,3.47,0,0,0,3.33-2.5l8.37-29A7.86,7.86,0,0,0,212.76,132.34Z"/><path class="cls-8" d="M208.5,131.93H185.74a1.2,1.2,0,0,1-1.11-1.65l4-9.79a6.73,6.73,0,0,0-3.28-8.72,6.55,6.55,0,0,0-8.74,3.48l-8,16.68h0v41.5h35.73a3.44,3.44,0,0,0,3.32-2.5l8.38-29A7.86,7.86,0,0,0,208.5,131.93Z"/><line class="cls-5" x1="199.85" y1="147.27" x2="212.39" y2="147.27"/><line class="cls-5" x1="200.28" y1="159.6" x2="209.55" y2="159.6"/><circle class="cls-9" cx="204.83" cy="88.5" r="5.98"/><circle class="cls-10" cx="70.84" cy="54.54" r="5.98"/><path class="cls-11" d="M20,93.51,15.54,89,11,84.52l4.5,4.5Z"/><path class="cls-11" d="M20,84.52,15.54,89,11,93.51,15.54,89Z"/><polygon class="cls-12" points="148.57 46.04 140.86 59.4 156.29 59.4 148.57 46.04"/><text class="cls-13" transform="translate(237.72 124.64)">推荐课程</text></svg>